<svg width="120" height="35" viewBox="0 0 120 35" fill="none" xmlns="http://www.w3.org/2000/svg">
<path d="M48.7442 20.0819C48.7442 20.531 48.6574 20.9222 48.4693 21.2699C48.2957 21.6176 48.0353 21.8929 47.7315 22.1247C47.4132 22.3565 47.0515 22.5303 46.6319 22.6462C46.2124 22.7621 45.7784 22.82 45.3009 22.82H40.1505V12.1573H45.8507C46.2269 12.1573 46.5596 12.2443 46.8634 12.4036C47.1672 12.563 47.4132 12.7658 47.6302 13.0266C47.8472 13.2874 48.0064 13.5771 48.1221 13.8958C48.2378 14.2146 48.2957 14.5478 48.2957 14.881C48.2957 15.4025 48.1655 15.8951 47.9051 16.3442C47.6447 16.7933 47.2685 17.141 46.7622 17.3583C47.3698 17.5322 47.8472 17.8654 48.2089 18.329C48.5561 18.7926 48.7442 19.3865 48.7442 20.0819ZM42.2193 13.9393V16.6339H44.9826C45.3299 16.6339 45.6337 16.518 45.8796 16.2718C46.1256 16.0255 46.2413 15.7068 46.2413 15.2721C46.2413 14.8665 46.1256 14.5333 45.9086 14.3015C45.6771 14.0552 45.4022 13.9393 45.0694 13.9393H42.2193ZM46.6464 19.6908C46.6464 19.5024 46.6175 19.3141 46.5451 19.1403C46.4728 18.9664 46.386 18.807 46.2847 18.6767C46.169 18.5463 46.0388 18.4449 45.8941 18.3724C45.7494 18.3 45.5758 18.2565 45.4022 18.2565H42.2193V21.0816H45.3009C45.489 21.0816 45.6626 21.0526 45.8362 20.9802C45.9954 20.9077 46.1401 20.8208 46.2703 20.6904C46.386 20.56 46.4873 20.4151 46.5596 20.2413C46.6175 20.0674 46.6464 19.8791 46.6464 19.6908Z" fill="currentColor"/>
<path d="M61.5336 22.8345V12.1718H66.25C66.7419 12.1718 67.1904 12.2732 67.61 12.4761C68.0295 12.6789 68.3767 12.9542 68.6806 13.2874C68.9844 13.6206 69.2159 14.0117 69.3895 14.4319C69.5631 14.852 69.6499 15.2866 69.6499 15.7212C69.6499 16.4166 69.4763 17.0396 69.1291 17.6046C68.7818 18.1696 68.3189 18.5752 67.7257 18.836L70.489 22.849H68.1597L65.6568 19.2706H63.6169V22.849L61.5336 22.8345ZM63.6024 17.4452H66.1921C66.3802 17.4452 66.5538 17.4018 66.7274 17.3148C66.8866 17.2279 67.0312 17.0975 67.1615 16.9527C67.2772 16.7933 67.3785 16.6195 67.4508 16.4021C67.5231 16.1848 67.5521 15.9675 67.5521 15.7212C67.5521 15.475 67.5087 15.2432 67.4363 15.0258C67.3495 14.823 67.2483 14.6347 67.1181 14.4753C66.9878 14.316 66.8287 14.2001 66.6551 14.1131C66.4815 14.0262 66.3079 13.9828 66.1198 13.9828H63.6169L63.6024 17.4452Z" fill="currentColor"/>
<path d="M71.1979 17.4163C71.1979 16.7643 71.3137 16.1269 71.5451 15.4894C71.7766 14.852 72.1238 14.287 72.5723 13.7799C73.0208 13.2729 73.5706 12.8672 74.2216 12.563C74.8727 12.2443 75.6105 12.0994 76.4497 12.0994C77.4334 12.0994 78.2726 12.3167 78.996 12.7513C79.7049 13.1859 80.2402 13.751 80.5874 14.4319L78.996 15.5329C78.8513 15.2287 78.6921 14.9824 78.4896 14.7796C78.287 14.5767 78.07 14.4174 77.8385 14.287C77.6071 14.1711 77.3756 14.0842 77.1152 14.0262C76.8692 13.9683 76.6233 13.9393 76.3773 13.9393C75.8565 13.9393 75.408 14.0407 75.0174 14.258C74.6267 14.4608 74.3084 14.7361 74.0625 15.0693C73.8021 15.4025 73.614 15.7937 73.4838 16.2138C73.3536 16.6484 73.2813 17.0686 73.2813 17.4887C73.2813 17.9668 73.3536 18.4159 73.5127 18.8505C73.6574 19.2851 73.8744 19.6763 74.1493 19.995C74.4242 20.3282 74.7569 20.589 75.1331 20.7918C75.5237 20.9946 75.9433 21.0961 76.4062 21.0961C76.6522 21.0961 76.8982 21.0671 77.1586 21.0091C77.419 20.9512 77.6649 20.8498 77.8964 20.7194C78.1279 20.589 78.3449 20.4151 78.5475 20.2123C78.75 20.0095 78.9091 19.7632 79.0249 19.4735L80.7176 20.4441C80.544 20.8498 80.298 21.1975 79.9942 21.5017C79.6759 21.8059 79.3287 22.0667 78.9236 22.2695C78.533 22.4868 78.099 22.6462 77.6505 22.7476C77.202 22.8635 76.7535 22.907 76.3339 22.907C75.5671 22.907 74.8727 22.7476 74.2506 22.4289C73.614 22.1102 73.0787 21.69 72.6157 21.1685C72.1672 20.6469 71.8056 20.0674 71.5596 19.4155C71.3137 18.7781 71.1979 18.1117 71.1979 17.4163Z" fill="currentColor"/>
<path d="M89.7309 21.0091V22.8345H82.4537V12.1573H89.7309V13.9828H84.537V16.547H88.0961V18.242H84.537V21.0091H89.7309Z" fill="currentColor"/>
<path d="M91.8142 22.8345V12.1573H93.8831V21.0091H99.3084V22.8345H91.8142Z" fill="currentColor"/>
<path d="M104.777 22.907C103.996 22.907 103.287 22.7476 102.65 22.4434C102.014 22.1391 101.464 21.7335 101.016 21.2264C100.553 20.7194 100.205 20.1399 99.9595 19.488C99.7135 18.836 99.5833 18.1696 99.5833 17.4887C99.5833 16.7788 99.7135 16.0979 99.974 15.446C100.234 14.794 100.611 14.2146 101.073 13.722C101.536 13.2149 102.086 12.8238 102.737 12.534C103.374 12.2443 104.068 12.0849 104.821 12.0849C105.587 12.0849 106.296 12.2443 106.933 12.563C107.569 12.8817 108.119 13.2874 108.568 13.8089C109.016 14.316 109.363 14.8955 109.624 15.5474C109.87 16.1993 110 16.8657 110 17.5322C110 18.242 109.87 18.9229 109.609 19.5749C109.349 20.2123 108.987 20.7918 108.524 21.2844C108.061 21.777 107.512 22.1826 106.875 22.4724C106.209 22.7621 105.515 22.907 104.777 22.907ZM101.681 17.5032C101.681 17.9668 101.753 18.4159 101.884 18.836C102.028 19.2706 102.231 19.6473 102.491 19.9805C102.752 20.3137 103.084 20.5745 103.461 20.7773C103.851 20.9802 104.285 21.0816 104.777 21.0816C105.284 21.0816 105.718 20.9802 106.108 20.7773C106.499 20.5745 106.817 20.2992 107.078 19.966C107.338 19.6328 107.541 19.2417 107.671 18.8215C107.801 18.4014 107.873 17.9668 107.873 17.5177C107.873 17.0541 107.801 16.605 107.656 16.1848C107.512 15.7502 107.309 15.3735 107.034 15.0403C106.774 14.7071 106.441 14.4463 106.065 14.258C105.674 14.0552 105.255 13.9683 104.763 13.9683C104.256 13.9683 103.822 14.0697 103.432 14.2725C103.041 14.4753 102.723 14.7506 102.462 15.0838C102.202 15.417 101.999 15.7937 101.869 16.2283C101.753 16.6195 101.681 17.0541 101.681 17.5032ZM105.443 10.868L104.097 10.8825L104.907 9.40475H107.092L105.443 10.868Z" fill="currentColor"/>
<path d="M56.0359 12.1573H53.8802L49.4821 22.82H51.5365L52.636 20.1544H57.2656L58.3652 22.82H60.4196L56.0359 12.1573ZM53.2292 18.7201L54.9508 14.5478L56.6725 18.7201H53.2292Z" fill="currentColor"/>
<path d="M40.1505 30.9475V26.891H42.8993V27.7023H41.0909V28.586H42.581V29.3394H41.0909V30.9475H40.1505Z" fill="currentColor"/>
<path d="M44.2593 26.891H45.0984L46.5741 30.9475H45.6192L45.3009 30.0348H44.0422L43.7384 30.9475H42.7836L44.2593 26.891ZM45.1563 29.3828L44.6788 27.9486L44.2014 29.3828H45.1563Z" fill="currentColor"/>
<path d="M46.7911 28.8758C46.7911 28.6295 46.8345 28.3832 46.9358 28.1514C47.0226 27.9051 47.1528 27.6878 47.3409 27.4995C47.5145 27.3111 47.7315 27.1518 47.9774 27.0359C48.2234 26.92 48.5127 26.862 48.831 26.862C49.2072 26.862 49.5399 26.949 49.8148 27.1083C50.0897 27.2677 50.3067 27.485 50.4369 27.7458L49.7135 28.2528C49.6701 28.1514 49.6123 28.0645 49.5399 27.992C49.4676 27.9196 49.3953 27.8617 49.3085 27.8182C49.2216 27.7747 49.1348 27.7458 49.048 27.7313C48.9612 27.7168 48.8744 27.7023 48.7876 27.7023C48.614 27.7023 48.4549 27.7458 48.3247 27.8037C48.1944 27.8761 48.0787 27.9631 47.9919 28.079C47.9051 28.1949 47.8472 28.3252 47.8038 28.4701C47.7604 28.615 47.746 28.7599 47.746 28.9047C47.746 29.0641 47.7749 29.2235 47.8183 29.3683C47.8617 29.5132 47.934 29.6436 48.0353 29.7595C48.1221 29.8754 48.2379 29.9623 48.3681 30.0348C48.4983 30.1072 48.6429 30.1362 48.8166 30.1362C48.9034 30.1362 48.9902 30.1217 49.077 30.1072C49.1638 30.0927 49.2506 30.0492 49.3374 30.0058C49.4242 29.9623 49.4965 29.9044 49.5689 29.8319C49.6412 29.7595 49.6991 29.6726 49.7425 29.5712L50.5093 30.0203C50.4514 30.1651 50.3646 30.2955 50.2344 30.4259C50.1186 30.5418 49.974 30.6432 49.8148 30.7302C49.6557 30.8171 49.4965 30.875 49.3229 30.9185C49.1493 30.962 48.9757 30.9764 48.8166 30.9764C48.5272 30.9764 48.2523 30.9185 48.0064 30.8026C47.7604 30.6867 47.5434 30.5273 47.3698 30.3245C47.1962 30.1217 47.0515 29.9044 46.9647 29.6581C46.849 29.3973 46.7911 29.1365 46.7911 28.8758Z" fill="currentColor"/>
<path d="M52.8964 30.1362C53.0556 30.1362 53.1858 30.1072 53.3015 30.0348C53.4172 29.9623 53.5041 29.8754 53.5764 29.774C53.6487 29.6581 53.6921 29.5422 53.7211 29.3973C53.75 29.2524 53.7645 29.1076 53.7645 28.9627V26.891H54.7049V28.9627C54.7049 29.238 54.6759 29.5132 54.6036 29.745C54.5312 29.9913 54.43 30.1941 54.2853 30.3825C54.1406 30.5708 53.9525 30.7157 53.7211 30.8171C53.4896 30.9185 53.2292 30.9764 52.9109 30.9764C52.5926 30.9764 52.3177 30.9185 52.0862 30.8171C51.8547 30.7012 51.6667 30.5563 51.5365 30.368C51.3918 30.1796 51.2905 29.9623 51.2182 29.7305C51.1458 29.4842 51.1169 29.238 51.1169 28.9627V26.891H52.0573V28.9627C52.0573 29.1221 52.0718 29.2669 52.1007 29.4118C52.1296 29.5567 52.1875 29.6726 52.2454 29.7885C52.3177 29.9044 52.4045 29.9913 52.5058 30.0492C52.5926 30.1072 52.7373 30.1362 52.8964 30.1362Z" fill="currentColor"/>
<path d="M55.6163 30.9475V26.891H56.5422V30.1217H58.5098V30.9475H55.6163Z" fill="currentColor"/>
<path d="M61.5625 27.7023H60.3328V30.9475H59.3924V27.7023H58.1482V26.891H61.5625V27.7023Z" fill="currentColor"/>
<path d="M62.908 26.891H63.7471L65.2228 30.9475H64.2679L63.9497 30.0348H62.691L62.3871 30.9475H61.4323L62.908 26.891ZM63.805 29.3828L63.3275 27.9486L62.8357 29.3828H63.805Z" fill="currentColor"/>
<path d="M65.8304 30.9475V26.891H67.3495C67.6823 26.891 67.9716 26.949 68.2321 27.0504C68.478 27.1518 68.695 27.2966 68.8686 27.485C69.0423 27.6733 69.158 27.8761 69.2448 28.1224C69.3316 28.3687 69.375 28.6295 69.375 28.9047C69.375 29.209 69.3316 29.4987 69.2303 29.745C69.1291 29.9913 68.9988 30.2086 68.8252 30.3825C68.6516 30.5563 68.4346 30.7012 68.1887 30.7881C67.9427 30.8895 67.6678 30.933 67.364 30.933H65.8304V30.9475ZM68.4057 28.9047C68.4057 28.7309 68.3767 28.557 68.3333 28.4122C68.2899 28.2673 68.2176 28.1369 68.1308 28.0355C68.044 27.9341 67.9282 27.8472 67.798 27.7892C67.6678 27.7313 67.5232 27.7023 67.3495 27.7023H66.7708V30.1072H67.3495C67.5232 30.1072 67.6678 30.0782 67.798 30.0203C67.9282 29.9623 68.044 29.8754 68.1308 29.774C68.2176 29.6581 68.2899 29.5422 68.3333 29.3973C68.3912 29.238 68.4057 29.0786 68.4057 28.9047Z" fill="currentColor"/>
<path d="M71.6464 30.9475V26.891H73.151C73.4838 26.891 73.7731 26.949 74.0336 27.0504C74.2795 27.1518 74.4965 27.2966 74.6701 27.485C74.8438 27.6733 74.974 27.8761 75.0463 28.1224C75.1331 28.3687 75.1765 28.6295 75.1765 28.9047C75.1765 29.209 75.1331 29.4987 75.0318 29.745C74.9306 29.9913 74.8003 30.2086 74.6267 30.3825C74.4531 30.5563 74.2361 30.7012 73.9902 30.7881C73.7442 30.8895 73.4693 30.933 73.1655 30.933H71.6464V30.9475ZM74.2216 28.9047C74.2216 28.7309 74.1927 28.557 74.1493 28.4122C74.1059 28.2673 74.0336 28.1369 73.9468 28.0355C73.86 27.9341 73.7442 27.8472 73.614 27.7892C73.4838 27.7313 73.3246 27.7023 73.1655 27.7023H72.5868V30.1072H73.1655C73.3391 30.1072 73.4838 30.0782 73.614 30.0203C73.7442 29.9623 73.86 29.8754 73.9468 29.774C74.0336 29.6581 74.1059 29.5422 74.1493 29.3973C74.1927 29.238 74.2216 29.0786 74.2216 28.9047Z" fill="currentColor"/>
<path d="M78.7789 30.1217V30.9475H75.9288V26.891H78.7211V27.7023H76.8547V28.4991H78.4607V29.2524H76.8547V30.1217H78.7789Z" fill="currentColor"/>
<path d="M84.2621 30.9475V28.5136L83.3796 30.281H82.8877L82.0052 28.5136V30.9475H81.0648V26.891H82.092L83.1337 29.0062L84.1898 26.891H85.2025V30.9475H84.2621Z" fill="currentColor"/>
<path d="M89.022 30.1217V30.9475H86.1719V26.891H88.9641V27.7023H87.1123V28.4991H88.7037V29.2524H87.1123V30.1217H89.022Z" fill="currentColor"/>
<path d="M89.7888 30.9475V26.891H91.3079C91.6406 26.891 91.93 26.949 92.1904 27.0504C92.4363 27.1518 92.6534 27.2966 92.827 27.485C93.0006 27.6733 93.1163 27.8761 93.2031 28.1224C93.2899 28.3687 93.3333 28.6295 93.3333 28.9047C93.3333 29.209 93.2899 29.4987 93.1887 29.745C93.0874 29.9913 92.9572 30.2086 92.7836 30.3825C92.61 30.5563 92.3929 30.7012 92.147 30.7881C91.901 30.8895 91.6262 30.933 91.3223 30.933H89.7888V30.9475ZM92.364 28.9047C92.364 28.7309 92.3351 28.557 92.2917 28.4122C92.2483 28.2673 92.1759 28.1369 92.0891 28.0355C92.0023 27.9341 91.8866 27.8472 91.7564 27.7892C91.6262 27.7313 91.467 27.7023 91.3079 27.7023H90.7292V30.1072H91.3079C91.4815 30.1072 91.6262 30.0782 91.7708 30.0203C91.901 29.9623 92.0168 29.8754 92.1036 29.774C92.1904 29.6581 92.2627 29.5422 92.3061 29.3973C92.3351 29.238 92.364 29.0786 92.364 28.9047Z" fill="currentColor"/>
<path d="M95.0116 26.891H94.0712V30.9475H95.0116V26.891Z" fill="currentColor"/>
<path d="M95.7494 28.8758C95.7494 28.6295 95.7928 28.3832 95.8796 28.1514C95.9664 27.9051 96.0967 27.6878 96.2847 27.4995C96.4583 27.3111 96.6753 27.1518 96.9213 27.0359C97.1672 26.92 97.4566 26.862 97.7749 26.862C98.151 26.862 98.4838 26.949 98.7587 27.1083C99.0336 27.2677 99.2506 27.485 99.3808 27.7458L98.6574 28.2528C98.614 28.1514 98.5561 28.0645 98.4838 27.992C98.4115 27.9196 98.3391 27.8617 98.2523 27.8182C98.1655 27.7747 98.0787 27.7458 97.9919 27.7313C97.9051 27.7168 97.8183 27.7023 97.7315 27.7023C97.5579 27.7023 97.3987 27.7458 97.2685 27.8037C97.1383 27.8761 97.0226 27.9631 96.9358 28.079C96.849 28.1949 96.7766 28.3252 96.7477 28.4701C96.7043 28.615 96.6898 28.7599 96.6898 28.9047C96.6898 29.0641 96.7187 29.2235 96.7622 29.3683C96.8056 29.5132 96.8779 29.6436 96.9792 29.7595C97.066 29.8754 97.1817 29.9623 97.3119 30.0348C97.4421 30.1072 97.5868 30.1362 97.7604 30.1362C97.8472 30.1362 97.934 30.1217 98.0208 30.1072C98.1076 30.0927 98.1944 30.0492 98.2813 30.0058C98.3681 29.9623 98.4404 29.9044 98.5127 29.8319C98.5851 29.7595 98.6285 29.6726 98.6719 29.5712L99.4387 30.0203C99.3808 30.1651 99.294 30.2955 99.1638 30.4259C99.048 30.5418 98.9034 30.6432 98.7442 30.7302C98.5851 30.8171 98.4259 30.875 98.2523 30.9185C98.0787 30.962 97.9051 30.9764 97.7459 30.9764C97.4566 30.9764 97.1817 30.9185 96.9358 30.8026C96.6898 30.6867 96.4728 30.5273 96.2992 30.3245C96.1256 30.1217 95.9809 29.9044 95.8941 29.6581C95.7928 29.3973 95.7494 29.1365 95.7494 28.8758Z" fill="currentColor"/>
<path d="M101.045 26.891H100.104V30.9475H101.045V26.891Z" fill="currentColor"/>
<path d="M102.954 28.6295V30.9475H102.014V26.891H102.737L104.633 29.2669V26.891H105.558V30.9475H104.806L102.954 28.6295Z" fill="currentColor"/>
<path d="M107.642 26.891H108.481L109.957 30.9475H109.002L108.683 30.0348H107.425L107.121 30.9475H106.166L107.642 26.891ZM108.539 29.3828L108.061 27.9486L107.584 29.3828H108.539Z" fill="currentColor"/>
<path d="M40.1505 8.10088V4.05891H42.8993V4.8702H41.0909V5.75393H42.581V6.50727H41.0909V8.10088H40.1505Z" fill="currentColor"/>
<path d="M45.3443 7.30408C45.5035 7.30408 45.6337 7.27511 45.7494 7.20267C45.8652 7.13023 45.952 7.0433 46.0243 6.94189C46.0966 6.82599 46.14 6.71009 46.169 6.56522C46.1979 6.42035 46.2124 6.27547 46.2124 6.1306V4.05891H47.1528V6.1306C47.1528 6.40586 47.1238 6.68112 47.0515 6.91292C46.9792 7.15921 46.8779 7.36203 46.7332 7.55036C46.5885 7.7387 46.4005 7.88357 46.169 7.98499C45.9375 8.0864 45.6771 8.14435 45.3588 8.14435C45.0405 8.14435 44.7656 8.0864 44.5341 7.98499C44.3027 7.86909 44.1146 7.72421 43.9844 7.53588C43.8397 7.34754 43.7384 7.13023 43.6661 6.89843C43.5938 6.65215 43.5648 6.40586 43.5648 6.1306V4.05891H44.5052V6.1306C44.5052 6.28996 44.5197 6.43483 44.5486 6.57971C44.5775 6.72458 44.6354 6.84048 44.6933 6.95638C44.7656 7.07228 44.8524 7.1592 44.9537 7.21715C45.0405 7.2751 45.1852 7.30408 45.3443 7.30408Z" fill="currentColor"/>
<path d="M48.9902 5.79739V8.10088H48.0642V4.05891H48.7876L50.6829 6.43484V4.05891H51.6088V8.10088H50.8565L48.9902 5.79739Z" fill="currentColor"/>
<path d="M52.5926 8.10088V4.04442H54.0972C54.43 4.04442 54.7193 4.10237 54.9797 4.20378C55.2257 4.30519 55.4427 4.45007 55.6163 4.6384C55.7899 4.82674 55.9057 5.02956 55.9925 5.27585C56.0793 5.52213 56.1227 5.7829 56.1227 6.05816C56.1227 6.3624 56.0793 6.65215 55.978 6.89843C55.8767 7.14472 55.7465 7.36203 55.5729 7.53588C55.3993 7.70972 55.1823 7.8546 54.9363 7.94152C54.6904 8.04293 54.4155 8.0864 54.1117 8.0864L52.5926 8.10088ZM55.1678 6.07265C55.1678 5.8988 55.1389 5.72496 55.0955 5.58008C55.0521 5.43521 54.9797 5.30482 54.8929 5.20341C54.8061 5.102 54.6904 5.01508 54.5602 4.95713C54.43 4.89918 54.2708 4.8702 54.1117 4.8702H53.533V7.27511H54.1117C54.2853 7.27511 54.43 7.24613 54.5747 7.18818C54.7049 7.13023 54.8206 7.0433 54.9074 6.92741C54.9942 6.81151 55.0665 6.69561 55.11 6.55074C55.1389 6.40586 55.1678 6.2465 55.1678 6.07265Z" fill="currentColor"/>
<path d="M57.8299 4.05891H58.669L60.1447 8.11537H59.1898L58.8715 7.20267H57.6129L57.309 8.11537H56.3542L57.8299 4.05891ZM58.7269 6.55074L58.2494 5.11648L57.7575 6.55074C57.772 6.55074 58.7269 6.55074 58.7269 6.55074Z" fill="currentColor"/>
<path d="M85.3617 4.05891H86.2008L87.6765 8.11537H86.7216L86.4034 7.20267H85.1447L84.8409 8.11537H83.886L85.3617 4.05891ZM86.2587 6.55074L85.7813 5.11648L85.2894 6.55074H86.2587Z" fill="currentColor"/>
<path d="M60.3617 6.04368C60.3617 5.79739 60.4051 5.55111 60.5064 5.31931C60.5932 5.07303 60.7234 4.85571 60.9115 4.66738C61.0851 4.47904 61.3021 4.31968 61.548 4.20378C61.794 4.08788 62.0833 4.02993 62.4016 4.02993C62.7778 4.02993 63.1105 4.11686 63.3854 4.27622C63.6603 4.43558 63.8773 4.65289 64.0075 4.91366L63.2841 5.42072C63.2407 5.31931 63.1829 5.23239 63.1105 5.15995C63.0382 5.08751 62.9659 5.02956 62.879 4.9861C62.7922 4.94264 62.7054 4.91366 62.6186 4.89917C62.5318 4.88469 62.445 4.8702 62.3582 4.8702C62.1846 4.8702 62.0255 4.91366 61.8953 4.9861C61.7651 5.05854 61.6493 5.14546 61.5625 5.26136C61.4757 5.37726 61.4034 5.50764 61.3744 5.65252C61.331 5.79739 61.3166 5.94227 61.3166 6.08714C61.3166 6.2465 61.3455 6.40586 61.3889 6.55074C61.4323 6.69561 61.5046 6.82599 61.6059 6.94189C61.6927 7.05779 61.8084 7.14471 61.9387 7.21715C62.0689 7.28959 62.2135 7.31857 62.3871 7.31857C62.474 7.31857 62.5608 7.30408 62.6476 7.28959C62.7344 7.2751 62.8212 7.23164 62.908 7.18818C62.9948 7.14472 63.0671 7.08677 63.1395 7.01433C63.2118 6.94189 63.2697 6.85497 63.2986 6.75356L64.0654 7.20267C64.0075 7.34754 63.9207 7.47793 63.7905 7.60831C63.6748 7.72421 63.5301 7.82562 63.371 7.91255C63.2118 7.99947 63.0527 8.05742 62.879 8.10088C62.7054 8.14434 62.5318 8.15883 62.3582 8.15883C62.0689 8.15883 61.794 8.10088 61.548 7.98499C61.3021 7.86909 61.0995 7.70972 60.9115 7.5069C60.7378 7.30408 60.5932 7.08677 60.5064 6.826C60.4196 6.56522 60.3617 6.30445 60.3617 6.04368Z" fill="currentColor"/>
<path d="M65.6568 4.05891H64.7164V8.11537H65.6568V4.05891Z" fill="currentColor"/>
<path d="M68.4057 8.14435C68.1019 8.14435 67.827 8.0864 67.581 7.9705C67.3351 7.8546 67.1181 7.69524 66.9444 7.5069C66.7708 7.31856 66.6406 7.10126 66.5394 6.84048C66.4381 6.5942 66.3947 6.33342 66.3947 6.07265C66.3947 5.81188 66.4381 5.55111 66.5394 5.30482C66.6406 5.05854 66.7853 4.84123 66.9589 4.65289C67.147 4.46456 67.3495 4.31968 67.5955 4.20378C67.8414 4.08788 68.1163 4.02993 68.4057 4.02993C68.7095 4.02993 68.9844 4.08788 69.2303 4.20378C69.4763 4.31968 69.6933 4.47904 69.8669 4.66738C70.0405 4.85571 70.1707 5.08751 70.272 5.33379C70.3733 5.58008 70.4167 5.82637 70.4167 6.08714C70.4167 6.34791 70.3733 6.60868 70.272 6.85497C70.1707 7.10125 70.026 7.31856 69.8524 7.5069C69.6788 7.69524 69.4618 7.84011 69.2159 7.95601C68.9699 8.08639 68.695 8.14435 68.4057 8.14435ZM67.3495 6.08714C67.3495 6.2465 67.3785 6.39137 67.4219 6.53625C67.4653 6.68112 67.5376 6.81151 67.6244 6.92741C67.7112 7.0433 67.827 7.13023 67.9572 7.20267C68.0874 7.27511 68.2465 7.30408 68.4201 7.30408C68.5937 7.30408 68.7529 7.26062 68.8831 7.20267C69.0133 7.13023 69.129 7.02882 69.2159 6.91292C69.3027 6.79702 69.375 6.66663 69.4184 6.52176C69.4618 6.37689 69.4907 6.23201 69.4907 6.07265C69.4907 5.91329 69.4618 5.76842 69.4184 5.62354C69.375 5.47867 69.3027 5.34828 69.2159 5.23239C69.129 5.11649 69.0133 5.02956 68.8831 4.97161C68.7529 4.89917 68.5938 4.8702 68.4346 4.8702C68.261 4.8702 68.1019 4.89917 67.9716 4.97161C67.8414 5.04405 67.7257 5.13098 67.6389 5.24687C67.5521 5.36277 67.4797 5.49316 67.4363 5.63803C67.3785 5.7829 67.3495 5.92778 67.3495 6.08714ZM68.7529 3.65326H68.2465L68.6082 2.98684H69.4329L68.7529 3.65326Z" fill="currentColor"/>
<path d="M72.0949 5.79739V8.10088H71.169V4.05891H71.8924L73.7876 6.43484V4.05891H74.7135V8.10088H73.9612L72.0949 5.79739Z" fill="currentColor"/>
<path d="M80.9346 4.05891V8.10088H80.0087V6.44932H78.316V8.10088H77.39V4.05891H78.316V5.69598H80.0087V4.05891H80.9346Z" fill="currentColor"/>
<path d="M82.1065 7.44895H81.441V8.11537H82.1065V7.44895Z" fill="currentColor"/>
<path d="M88.7471 7.44895H88.0816V8.11537H88.7471V7.44895Z" fill="currentColor"/>
<path d="M20.923 0.00244322C18.8397 -0.0410189 17.1759 0.495012 16.0041 1.63951C15.1939 2.43632 14.7888 3.34903 14.5862 4.05891H10V5.36277C12.8646 5.36277 13.2552 6.2465 13.2552 8.14435V27.3691C13.2552 28.8758 12.5608 29.6291 10 29.6291V30.933H16.93C16.9155 30.846 16.7564 30.2666 16.7564 29.5567C16.7564 28.9627 16.8287 28.4701 16.8866 28.1659C16.9734 27.7458 17.4074 26.6302 18.3333 25.7175C18.9988 25.0656 20.4311 23.7472 20.4456 23.7327C21.8924 22.342 23.3681 20.7339 24.1059 18.894C23.6574 18.7491 22.9774 18.5752 22.037 18.4738C21.5885 19.4155 20.8796 20.3137 20.0839 21.154L20.2141 17.6191C20.5758 17.6336 23.8021 17.6336 25.4948 18.6911C26.2471 19.1692 26.7969 19.7342 27.173 20.5166C27.5637 21.2989 27.7373 22.313 27.7517 23.5879C27.7662 25.1815 27.3756 26.9489 25.9288 28.1369C25.3501 28.6005 23.9468 29.3828 21.386 29.3828H20.5035L20.4456 30.904C21.14 30.904 21.8345 30.9185 22.5289 30.9185C23.8744 30.9185 25.1331 30.846 26.2905 30.5708C27.4624 30.2955 28.4606 29.8609 29.3142 29.238C30.1534 28.615 30.8189 27.8037 31.3108 26.7896C31.7882 25.7755 32.0341 24.544 32.0341 23.0953C32.0341 21.2409 31.3686 19.7487 30.0521 18.6477C28.7355 17.5466 26.985 16.6629 24.8148 16.3442C25.625 16.0834 26.3773 15.7792 27.0573 15.4605C27.7373 15.1417 28.3304 14.7361 28.8368 14.2725C29.3287 13.7944 29.7193 13.2439 29.9797 12.6209C30.2546 11.9835 30.3848 11.2302 30.3848 10.3464C30.3848 9.18743 30.1244 8.21678 29.6181 7.41998C29.1117 6.62317 28.4172 5.97124 27.5203 5.47867C26.6377 4.9861 24.1204 4.04442 20.4022 4.04442H16.7564C16.901 3.7257 17.7257 1.91478 20.8652 2.03067C21.1835 2.08862 21.2558 2.50876 22.1672 2.89992C23.1076 3.30556 23.9323 3.20415 24.2506 2.7985C24.6701 2.10311 24.5255 0.958608 23.2668 0.408088C22.2251 -0.055508 20.923 0.00244322 20.923 0.00244322ZM20.3009 15.9965L20.6481 6.3624C19.0712 6.3624 18.2321 6.34791 17.8125 6.71009L18.2755 22.9794C18.2031 23.0518 17.1615 24.008 16.7708 24.3992V7.13023C16.7708 5.62354 19.0422 5.63803 19.5775 5.63803H21.14C24.6557 5.63803 26.4062 7.37651 26.4062 10.8535C26.4062 11.7952 26.305 12.592 26.1169 13.2584C25.9288 13.9248 25.5382 14.4608 24.9306 14.881C24.8003 14.9679 24.6557 15.0548 24.511 15.1273C24.2216 13.2294 23.151 11.7952 21.1979 10.6796L21.1111 13.099C21.9647 13.8089 22.4132 14.6637 22.5145 15.7502C22.4711 15.7502 21.2269 15.9675 20.3009 15.9965Z" fill="currentColor"/>
<path d="M19.9537 25.2684C19.3027 25.8624 18.5503 26.6013 18.3767 26.9055L18.5793 34.6707C18.912 35.0619 19.5775 35.0909 19.6209 34.8301L19.9537 25.2684Z" fill="currentColor"/>
</svg>
