<svg width="127" height="35" viewBox="0 0 127 35" fill="none" xmlns="http://www.w3.org/2000/svg">
<path d="M62.7571 26.2907C62.6953 26.3007 62.6391 26.3324 62.5986 26.38C62.558 26.4277 62.5357 26.4882 62.5357 26.5508C62.5357 26.6134 62.558 26.6739 62.5986 26.7216C62.6391 26.7692 62.6953 26.8009 62.7571 26.8109H116.075C116.113 26.817 116.151 26.8148 116.188 26.8045C116.225 26.7943 116.259 26.7762 116.288 26.7514C116.317 26.7267 116.34 26.6959 116.356 26.6613C116.372 26.6267 116.38 26.589 116.38 26.5508C116.38 26.5127 116.372 26.475 116.356 26.4403C116.34 26.4057 116.317 26.3749 116.288 26.3502C116.259 26.3255 116.225 26.3074 116.188 26.2971C116.151 26.2868 116.113 26.2847 116.075 26.2907H62.7571Z" fill="currentColor"/>
<path d="M10.6485 26.2907C10.5867 26.3007 10.5305 26.3324 10.4899 26.38C10.4494 26.4277 10.4271 26.4882 10.4271 26.5508C10.4271 26.6134 10.4494 26.6739 10.4899 26.7216C10.5305 26.7692 10.5867 26.8009 10.6485 26.8109H45.2615C45.2991 26.817 45.3377 26.8148 45.3744 26.8045C45.4112 26.7943 45.4453 26.7762 45.4743 26.7514C45.5034 26.7267 45.5267 26.6959 45.5427 26.6613C45.5587 26.6267 45.567 26.589 45.567 26.5508C45.567 26.5127 45.5587 26.475 45.5427 26.4403C45.5267 26.4057 45.5034 26.3749 45.4743 26.3502C45.4453 26.3255 45.4112 26.3074 45.3744 26.2971C45.3377 26.2868 45.2991 26.2847 45.2615 26.2907H10.6485Z" fill="currentColor"/>
<path d="M10 2.15487H19.0721C20.4832 2.14224 21.8755 2.47872 23.1251 3.13435C24.35 3.78284 24.9625 4.96273 24.9625 6.67401C24.9723 7.15749 24.8729 7.63695 24.6717 8.07671C24.4706 8.51646 24.1728 8.90518 23.8006 9.21392C22.9484 9.91825 21.9593 10.4381 20.8959 10.7406C22.2633 11.0207 23.5316 11.6595 24.5707 12.5915C25.0514 13.0274 25.4319 13.5623 25.6862 14.1593C25.9404 14.7564 26.0622 15.4014 26.0433 16.0501C26.0692 16.8713 25.8863 17.6856 25.5118 18.4169C25.1373 19.1482 24.5834 19.7725 23.9019 20.2314C22.4744 21.2492 20.5154 21.7581 18.025 21.7581H10.7093V20.6975H12.1008C12.1662 20.7047 12.2323 20.6966 12.294 20.6739C12.3557 20.6513 12.4113 20.6146 12.4564 20.5668C12.5016 20.5191 12.5351 20.4615 12.5542 20.3986C12.5734 20.3357 12.5778 20.2693 12.5669 20.2044V7.36978C12.6234 6.17708 12.5555 4.98174 12.3643 3.80311C12.3024 3.59998 12.171 3.42508 11.9932 3.309C11.8154 3.19292 11.6024 3.14306 11.3915 3.16813H10V2.15487ZM19.6598 10.4569C20.2959 10.2294 20.8347 9.79071 21.1864 9.21392C21.5468 8.62456 21.734 7.94571 21.7268 7.25495C21.7506 6.22833 21.3697 5.23354 20.6663 4.48537C20.2319 4.07115 19.7149 3.75349 19.1491 3.55325C18.5833 3.35301 17.9815 3.27471 17.3833 3.3235H16.5322C16.4797 3.31803 16.4266 3.32447 16.3769 3.34233C16.3273 3.3602 16.2823 3.38902 16.2453 3.42666C16.2083 3.46431 16.1802 3.5098 16.1633 3.55977C16.1463 3.60974 16.1407 3.6629 16.1471 3.71529V10.2069C17.1334 10.2069 17.8449 10.2069 18.2817 10.2069C18.7467 10.2551 19.2074 10.3387 19.6598 10.4569ZM16.1404 15.5569C16.0825 16.9944 16.1503 18.4342 16.343 19.8599C16.4781 20.3103 16.9285 20.5354 17.694 20.5354C18.9995 20.6396 20.2933 20.2245 21.2945 19.3803C21.6879 18.9735 21.9935 18.4901 22.1922 17.9602C22.3909 17.4303 22.4785 16.8652 22.4496 16.3C22.4567 15.009 21.9739 13.7634 21.0986 12.8144C20.1979 11.7651 18.7411 11.2404 16.7281 11.2404H16.1404V15.5569Z" fill="currentColor"/>
<path d="M39.6278 19.9004C38.0043 21.4373 35.8443 22.2785 33.609 22.2445C32.7477 22.2927 31.8867 22.1459 31.0902 21.8149C30.2936 21.4838 29.5821 20.9772 29.0088 20.3328C27.8819 18.9533 27.3002 17.2083 27.3741 15.4286C27.3208 13.5493 27.9387 11.7125 29.1169 10.2474C29.6839 9.54795 30.4071 8.9911 31.2283 8.62157C32.0494 8.25204 32.9458 8.08012 33.8454 8.1196C35.0774 8.07572 36.2815 8.49235 37.2229 9.28823C38.2118 10.2001 38.9948 11.3124 39.5197 12.5509L30.7381 14.8679C30.6945 16.3002 31.0829 17.7124 31.8527 18.921C32.2429 19.4739 32.7696 19.9164 33.3817 20.2053C33.9937 20.4941 34.6701 20.6195 35.345 20.5692C36.0364 20.5781 36.7235 20.459 37.3716 20.2179C38.0303 19.957 38.6453 19.5971 39.1954 19.1506L39.6278 19.9004ZM30.9205 13.8209L36.0678 12.4293C35.7581 11.6024 35.3547 10.8137 34.8654 10.0786C34.6925 9.79247 34.4487 9.55577 34.1576 9.3913C33.8665 9.22683 33.538 9.14015 33.2037 9.13961C32.3435 9.13961 31.7131 9.67327 31.3123 10.7406C30.9214 11.763 30.72 12.8479 30.7178 13.9425L30.9205 13.8209Z" fill="currentColor"/>
<path d="M45.0656 16.5364C45.0258 17.7167 45.0823 18.8982 45.2345 20.0693C45.2483 20.276 45.3406 20.4695 45.4926 20.6102C45.6446 20.7509 45.8447 20.8281 46.0518 20.8259H47.4028V21.7581H40.1614V20.8259H41.276C41.4241 20.8387 41.573 20.8131 41.7083 20.7516C41.7598 20.6961 41.7976 20.6293 41.8187 20.5566C41.8398 20.4839 41.8436 20.4072 41.8299 20.3328V7.28197C41.8747 5.74136 41.8092 4.19952 41.634 2.66825C41.4989 1.95897 41.2287 1.60095 40.8166 1.60095H39.5129V0.675507C40.4361 0.594446 41.3368 0.502127 42.2149 0.398549C43.0863 0.297223 44.0456 0.162122 45.0723 0V16.5364H45.0656Z" fill="currentColor"/>
<path d="M53.7053 18.0833C53.0502 18.0879 52.397 18.0131 51.7599 17.8604C51.537 18.1132 51.3359 18.3844 51.1587 18.671C51.0611 18.8282 51.0031 19.0067 50.9898 19.1912C50.996 19.3978 51.0733 19.596 51.2087 19.7523C51.3441 19.9086 51.5292 20.0134 51.7328 20.0491C52.5413 20.2469 53.3737 20.3288 54.2052 20.2922C55.9334 20.2401 57.6573 20.4916 59.2985 21.0353C60.6135 21.5307 61.2733 22.6835 61.2778 24.4939C61.2619 25.2024 61.068 25.8956 60.7139 26.5095C60.3597 27.1233 59.8567 27.6382 59.2512 28.0065C57.9453 28.9883 55.984 29.4791 53.3676 29.4791C51.0213 29.4791 49.3956 29.0783 48.4904 28.2767C48.106 27.9946 47.7865 27.6334 47.5535 27.2174C47.3204 26.8014 47.1792 26.3403 47.1394 25.8652C47.1244 25.4723 47.1972 25.0811 47.3526 24.72C47.5081 24.3588 47.7422 24.037 48.0378 23.7779C48.7203 23.1988 49.5034 22.75 50.3481 22.4539C49.9143 22.2828 49.5158 22.0332 49.1727 21.7176C49.0337 21.5699 48.9262 21.3956 48.8565 21.2052C48.7868 21.0148 48.7565 20.8122 48.7674 20.6097C48.7767 20.0781 48.981 19.5685 49.3415 19.1777C49.7243 18.7273 50.2039 18.1869 50.7804 17.5564C49.977 17.2105 49.2883 16.6436 48.7944 15.9217C48.3295 15.1951 48.0941 14.3454 48.1189 13.4831C48.0966 12.7456 48.2369 12.0123 48.53 11.3352C48.823 10.6581 49.2615 10.0537 49.8144 9.56518C50.9467 8.54662 52.426 8.00033 53.9485 8.03854C54.2629 8.0331 54.5771 8.05571 54.8875 8.10609C55.1442 8.15337 55.563 8.24119 56.0764 8.36954C56.5897 8.49788 57.0761 8.59246 57.4679 8.6465C57.9696 8.7113 58.4752 8.74064 58.981 8.73431C59.1571 8.75271 59.3351 8.73063 59.5013 8.66975C59.6676 8.60887 59.8177 8.5108 59.9403 8.38304C60.0339 8.21478 60.1887 8.08901 60.3726 8.03178C60.4178 8.02573 60.4638 8.03123 60.5063 8.04777C60.5489 8.06431 60.5865 8.09134 60.6158 8.12635C60.6597 8.1923 60.6917 8.26547 60.7103 8.34251C60.6891 8.73551 60.6372 9.12625 60.555 9.51114C60.5517 9.66009 60.492 9.80224 60.3879 9.90883C60.2838 10.0154 60.1431 10.0785 59.9943 10.0853C59.8119 10.0853 59.5687 10.0853 59.285 10.0853L58.2515 9.96373C58.9683 10.8204 59.352 11.9069 59.3323 13.0238C59.3447 13.7146 59.2005 14.3993 58.9103 15.0265C58.6202 15.6536 58.1917 16.2068 57.657 16.6445C56.5617 17.594 55.1547 18.1063 53.7053 18.0833ZM54.7591 23.3996L53.3068 23.2712C52.8058 23.2235 52.3105 23.1285 51.8274 22.9875C51.2222 23.1511 50.6703 23.4701 50.2265 23.913C49.8296 24.3389 49.6182 24.9051 49.6388 25.4869C49.6389 25.9234 49.7546 26.3521 49.9741 26.7294C50.1936 27.1067 50.5091 27.4191 50.8885 27.635C51.8705 28.2201 53.0025 28.5043 54.1444 28.4524C55.2312 28.4677 56.3074 28.2367 57.2923 27.7769C57.733 27.607 58.1111 27.3062 58.3756 26.9148C58.6402 26.5235 58.7784 26.0605 58.7716 25.5882C58.7965 25.235 58.7103 24.8829 58.5249 24.5813C58.3396 24.2796 58.0644 24.0436 57.7381 23.9062C56.7913 23.5315 55.7766 23.3589 54.7591 23.3996ZM54.1984 17.0633C54.5225 17.0841 54.8456 17.0094 55.1278 16.8485C55.4099 16.6876 55.6387 16.4476 55.7859 16.1581C56.1033 15.4976 56.2541 14.7693 56.225 14.037C56.2338 12.9008 56.0037 11.7754 55.5495 10.7338C55.3877 10.2805 55.0872 9.88961 54.6907 9.61677C54.2942 9.34393 53.8218 9.20297 53.3406 9.21392C53.0016 9.17981 52.6602 9.24617 52.3587 9.40472C52.0572 9.56327 51.809 9.80701 51.645 10.1056C51.3138 10.8101 51.1563 11.5838 51.1857 12.3618C51.1847 13.4627 51.4439 14.5483 51.9423 15.5299C52.118 15.9845 52.428 16.3747 52.8311 16.6487C53.2341 16.9226 53.7111 17.0673 54.1984 17.0633Z" fill="currentColor"/>
<path d="M67.3236 10.8892C68.1657 9.9885 68.8412 9.30174 69.3501 8.82888C69.9014 8.35351 70.6161 8.11126 71.3428 8.15337C71.6279 8.15631 71.9092 8.21778 72.1695 8.33399C72.4298 8.45019 72.6635 8.61864 72.856 8.82888L72.4844 10.8554C72.4034 11.3891 72.248 11.6593 72.0183 11.6593C71.7887 11.5475 71.6032 11.362 71.4914 11.1324C71.3359 10.9438 71.136 10.7969 70.9096 10.7049C70.6831 10.613 70.4374 10.5788 70.1945 10.6055C69.6813 10.5951 69.1749 10.7234 68.7286 10.977C68.2213 11.291 67.752 11.6628 67.3303 12.0848V16.6175C67.2912 17.7955 67.3477 18.9747 67.4992 20.1436C67.513 20.3503 67.6054 20.5438 67.7574 20.6845C67.9094 20.8252 68.1094 20.9024 68.3165 20.9002H69.9175V21.8324H62.4194V20.8259H63.5272C63.6753 20.8387 63.8242 20.8131 63.9595 20.7516C64.0114 20.6964 64.0495 20.6296 64.0707 20.5568C64.0918 20.484 64.0954 20.4072 64.0811 20.3328V14.037C64.0811 12.4564 64.0563 11.3147 64.0068 10.6122C64.0226 10.4773 64.0089 10.3405 63.9666 10.2113C63.9244 10.0822 63.8546 9.96375 63.7621 9.8642C63.6696 9.76465 63.5566 9.68636 63.4309 9.63473C63.3052 9.58311 63.1698 9.55938 63.0341 9.56518H61.7371V8.63974C62.7332 8.62955 63.7278 8.56188 64.7161 8.43709L67.3236 8.1196V10.8892Z" fill="currentColor"/>
<path d="M80.8945 13.3886V12.4969C80.9481 11.6762 80.8332 10.8532 80.5567 10.0786C80.3316 9.62823 79.7461 9.40306 78.8004 9.40306C78.4304 9.40683 78.0625 9.45906 77.7061 9.55843C77.3473 9.65181 77.0085 9.80975 76.7063 10.0245C76.7395 10.8015 76.5522 11.572 76.1659 12.2469C76.0101 12.5187 75.7831 12.7429 75.5093 12.8952C75.2355 13.0476 74.9254 13.1224 74.6123 13.1116C74.3322 13.1152 74.0614 13.0112 73.8557 12.8211C73.7562 12.7385 73.6758 12.6354 73.6198 12.5188C73.5638 12.4022 73.5337 12.2749 73.5315 12.1456C73.5315 11.0153 74.2858 10.0696 75.7944 9.30849C77.2207 8.56924 78.8017 8.17804 80.4081 8.16688C82.0519 8.16688 83.0854 8.44384 83.5087 8.99776C83.932 9.55167 84.1414 10.7135 84.1369 12.4834V17.2119C84.0619 18.03 84.1992 18.8537 84.5355 19.6032C84.9887 20.1036 85.6182 20.4087 86.2918 20.4544L85.0894 22.2715C84.3255 22.2667 83.5702 22.1105 82.867 21.8121C82.4564 21.6092 82.0914 21.325 81.7941 20.9766C81.4968 20.6282 81.2735 20.223 81.1377 19.7856C80.331 20.4486 79.4752 21.0492 78.5775 21.5825C77.8635 22.0311 77.0426 22.2806 76.1997 22.3053C75.8063 22.3265 75.4129 22.2633 75.0459 22.12C74.6789 21.9767 74.3468 21.7566 74.0719 21.4744C73.541 20.8724 73.2648 20.0876 73.3018 19.2857C73.2757 18.6992 73.4058 18.1162 73.6788 17.5964C73.9517 17.0766 74.3578 16.6385 74.8555 16.327C76.2731 15.4561 77.765 14.7124 79.3138 14.1046L80.8945 13.3886ZM80.8945 14.4964L80.3406 14.7125C79.3597 15.0795 78.4466 15.6068 77.6385 16.273C77.3091 16.532 77.0425 16.8622 76.8588 17.2389C76.6751 17.6156 76.5791 18.029 76.578 18.4481C76.578 19.5379 77.0711 20.0828 78.0574 20.0828C78.5816 20.0855 79.0971 19.9479 79.5502 19.6843C80.0506 19.378 80.5054 19.0027 80.9012 18.5697V14.5167L80.8945 14.4964Z" fill="currentColor"/>
<path d="M91.912 10.342C92.7285 9.70365 93.6013 9.14068 94.5195 8.66C95.2129 8.3092 95.9783 8.1242 96.7554 8.1196C99.2413 8.1196 100.484 9.53816 100.484 12.3753V16.5364C100.443 17.7167 100.499 18.8984 100.653 20.0693C100.667 20.2784 100.761 20.4739 100.916 20.6149C101.071 20.756 101.275 20.8316 101.484 20.8259H102.653V21.7581H95.83V20.8259H96.6879C96.836 20.839 96.9849 20.8134 97.1202 20.7516C97.1721 20.6964 97.2102 20.6296 97.2313 20.5568C97.2525 20.484 97.256 20.4072 97.2418 20.3328V13.9425C97.2935 12.9465 97.1677 11.9492 96.8702 10.9973C96.6271 10.3893 95.9853 10.0921 94.9653 10.0921C94.4224 10.0984 93.8884 10.2301 93.4049 10.4771C92.8613 10.7473 92.3587 11.093 91.912 11.5039V16.5567C91.8714 17.7347 91.9279 18.9141 92.0809 20.0828C92.0947 20.2895 92.1871 20.483 92.3391 20.6237C92.4911 20.7644 92.6911 20.8416 92.8983 20.8394H93.9791V21.7716H87.0011V20.8259H88.1157C88.2638 20.839 88.4128 20.8134 88.548 20.7516C88.6016 20.6973 88.6412 20.6309 88.6636 20.5579C88.6859 20.485 88.6903 20.4078 88.6763 20.3328V14.037C88.6763 12.4564 88.6516 11.3147 88.602 10.6122C88.6178 10.4773 88.6041 10.3405 88.5618 10.2113C88.5196 10.0822 88.4498 9.96375 88.3573 9.8642C88.2648 9.76465 88.1518 9.68636 88.0261 9.63473C87.9005 9.58311 87.7651 9.55938 87.6293 9.56518H86.3323V8.63974C87.3284 8.62946 88.323 8.56179 89.3113 8.43709L91.9188 8.1196V10.342H91.912Z" fill="currentColor"/>
<path d="M116.345 14.8409C116.371 15.8128 116.202 16.7801 115.847 17.6853C115.491 18.5904 114.958 19.4149 114.278 20.1098C113.61 20.8058 112.804 21.3546 111.912 21.7211C111.02 22.0875 110.061 22.2635 109.097 22.2377C108.217 22.2831 107.338 22.145 106.515 21.8321C105.691 21.5193 104.942 21.0386 104.314 20.4206C103.712 19.7601 103.246 18.9865 102.944 18.1446C102.643 17.3027 102.512 16.4094 102.558 15.5164C102.531 14.5434 102.701 13.5749 103.056 12.6686C103.411 11.7623 103.945 10.9366 104.625 10.2407C105.293 9.5447 106.099 8.9959 106.991 8.62948C107.883 8.26305 108.842 8.08708 109.806 8.11284C110.686 8.06705 111.565 8.20497 112.389 8.51782C113.212 8.83067 113.961 9.31159 114.589 9.92995C115.192 10.5913 115.659 11.366 115.96 12.2091C116.262 13.0522 116.392 13.9468 116.345 14.8409ZM109.928 21.2177C110.361 21.2299 110.79 21.1353 111.178 20.942C111.565 20.7488 111.899 20.463 112.15 20.1098C112.695 19.3713 112.968 18.1081 112.968 16.3203C112.968 13.9605 112.587 12.1726 111.826 10.9567C111.555 10.425 111.146 9.97586 110.643 9.6562C110.139 9.33654 109.558 9.15812 108.962 9.13961C108.462 9.0949 107.961 9.20848 107.529 9.46427C107.098 9.72007 106.758 10.1051 106.557 10.5649C106.108 11.6753 105.894 12.8668 105.929 14.0641C105.929 16.4058 106.314 18.1824 107.084 19.3938C107.356 19.9207 107.762 20.3667 108.261 20.6869C108.761 21.007 109.335 21.1901 109.928 21.2177Z" fill="currentColor"/>
<path d="M51.3748 0.49312C51.3589 0.491989 51.3428 0.494416 51.3279 0.500227C51.313 0.506038 51.2996 0.515086 51.2886 0.52672C51.2776 0.538353 51.2694 0.552282 51.2644 0.567498C51.2595 0.582715 51.2579 0.598841 51.26 0.614712V3.20866C51.247 3.62871 51.3278 4.04638 51.4964 4.43133C51.6049 4.61087 51.7643 4.75419 51.9542 4.84317C52.1442 4.93215 52.3563 4.96279 52.5637 4.9312C52.7686 4.94135 52.9733 4.90673 53.1634 4.82973C53.3536 4.75273 53.5247 4.63522 53.6648 4.48537C53.9411 4.14535 54.0787 3.71341 54.0498 3.27621V1.78334C54.0563 1.4788 54.0428 1.17417 54.0093 0.871405C54.0069 0.754757 53.9743 0.64072 53.9147 0.540405C53.8483 0.505785 53.773 0.491678 53.6986 0.499874H53.3743V0.236427H54.8132V0.49312H54.4011C54.387 0.502425 54.3762 0.515885 54.3702 0.531626C54.3641 0.547367 54.3631 0.564605 54.3673 0.580937V3.28297C54.3877 3.55756 54.3447 3.83317 54.2416 4.0885C54.1385 4.34384 53.9782 4.57207 53.7729 4.75557C53.3726 5.08072 52.8699 5.2531 52.3543 5.24194C52.0828 5.27721 51.8069 5.25709 51.5433 5.18278C51.2798 5.10848 51.034 4.98153 50.8209 4.80961C50.5154 4.47994 50.3528 4.04286 50.3683 3.5937V1.56718C50.3835 1.26912 50.3677 0.970287 50.321 0.675507C50.3056 0.624454 50.2729 0.580353 50.2286 0.550772C50.1842 0.521191 50.1309 0.507973 50.0778 0.513384H49.7198V0.236427H51.7464V0.49312H51.3748Z" fill="currentColor"/>
<path d="M59.7714 3.74231V1.78334C59.7775 1.47881 59.764 1.17419 59.7308 0.871405C59.7284 0.754757 59.6959 0.64072 59.6363 0.540405C59.5698 0.505785 59.4946 0.491678 59.4201 0.499874H59.1094V0.236427H60.5482V0.49312H60.1294C60.116 0.503046 60.1057 0.516574 60.0998 0.532123C60.0938 0.547673 60.0923 0.564603 60.0956 0.580937V5.16088C60.0991 5.17275 60.0996 5.1853 60.097 5.1974C60.0944 5.20949 60.0888 5.22075 60.0807 5.23014C60.0727 5.23954 60.0624 5.24677 60.0509 5.25119C60.0393 5.25561 60.0268 5.25707 60.0146 5.25545C59.917 5.21055 59.8331 5.14063 59.7714 5.05279L56.3938 1.18214V3.3235C56.3938 3.55317 56.3938 3.78284 56.3938 3.999C56.3931 4.19562 56.4066 4.39204 56.4344 4.5867C56.4378 4.68842 56.4707 4.78696 56.5289 4.87041C56.5951 4.90583 56.6706 4.91999 56.7451 4.91094H57.0558V5.16088H55.6035V4.88392H55.8197C55.887 4.89128 55.955 4.89128 56.0223 4.88392C56.0364 4.87461 56.0472 4.86115 56.0532 4.84541C56.0593 4.82967 56.0603 4.81243 56.0561 4.7961V1.28346C56.0622 1.0908 56.018 0.899875 55.9277 0.729547C55.8972 0.663689 55.8486 0.607815 55.7877 0.568372C55.7267 0.528929 55.6558 0.507526 55.5832 0.506631H55.3603V0.236427H56.7113L59.7714 3.74231Z" fill="currentColor"/>
<path d="M62.8112 3.80986C62.798 4.10816 62.8162 4.407 62.8652 4.70153C62.8807 4.75206 62.9137 4.79542 62.9583 4.82387C63.0028 4.85233 63.056 4.86404 63.1084 4.8569H63.4596V5.16088H61.4331V4.88392H61.7776C61.7936 4.88505 61.8096 4.88262 61.8245 4.87681C61.8394 4.871 61.8529 4.86195 61.8638 4.85032C61.8748 4.83869 61.8831 4.82476 61.8881 4.80954C61.893 4.79432 61.8945 4.7782 61.8925 4.76233V1.54016C61.9075 1.2421 61.8917 0.943281 61.8452 0.648486C61.8298 0.597433 61.7971 0.553335 61.7527 0.523754C61.7083 0.494173 61.6551 0.480954 61.602 0.486366H61.2507V0.236427H63.2773V0.49312H62.9328C62.9168 0.491989 62.9008 0.494416 62.8859 0.500227C62.871 0.506038 62.8575 0.515086 62.8465 0.52672C62.8356 0.538353 62.8273 0.552282 62.8223 0.567498C62.8174 0.582715 62.8159 0.598841 62.8179 0.614712V3.80986H62.8112Z" fill="currentColor"/>
<path d="M68.8637 0.49312H68.5057C68.4973 0.488954 68.488 0.486786 68.4787 0.486786C68.4693 0.486786 68.46 0.488954 68.4516 0.49312C68.4237 0.550247 68.3988 0.60888 68.3773 0.668751L66.5467 5.16088C66.5401 5.19106 66.5261 5.21916 66.5061 5.24272C66.4861 5.26627 66.4606 5.28456 66.4319 5.29598C66.4091 5.2925 66.388 5.28227 66.3711 5.26661C66.3542 5.25095 66.3425 5.23059 66.3373 5.20816L64.7228 1.39154C64.6171 1.12867 64.493 0.873601 64.3513 0.628222C64.3271 0.582021 64.2913 0.542837 64.2476 0.514444C64.2038 0.48605 64.1535 0.4694 64.1014 0.466099H63.8582V0.236427H65.7631V0.49312H65.4389C65.3511 0.49312 65.3105 0.493119 65.3105 0.547159C65.3397 0.639816 65.3759 0.730141 65.4186 0.817363C65.4929 0.98624 65.5537 1.1281 65.6078 1.24969L66.7291 3.88417L67.6478 1.68877C67.7108 1.53565 67.7829 1.3375 67.864 1.09432C67.927 0.936316 67.9679 0.770381 67.9855 0.601201C67.9855 0.526895 67.9247 0.486366 67.7964 0.486366H67.3843V0.236427H68.8569V0.49312H68.8637Z" fill="currentColor"/>
<path d="M69.5392 4.88392H69.8905C69.9064 4.88505 69.9225 4.88262 69.9374 4.87681C69.9523 4.871 69.9657 4.86195 69.9767 4.85032C69.9877 4.83869 69.9959 4.82476 70.0009 4.80954C70.0058 4.79432 70.0074 4.7782 70.0053 4.76233V1.54016C70.0184 1.24186 70.0003 0.943019 69.9513 0.648486C69.9371 0.596706 69.9046 0.551797 69.86 0.522012C69.8153 0.492227 69.7614 0.47957 69.7081 0.486366H69.3568V0.236427H73.1126C73.0789 0.56067 73.0519 0.776833 73.0316 0.878159C73.0113 0.979485 72.9843 1.02677 72.937 1.02677C72.8897 1.02677 72.8154 0.965976 72.8154 0.857895C72.7838 0.794781 72.7358 0.741376 72.6763 0.703327C72.6168 0.665278 72.5482 0.643997 72.4777 0.641733C72.1664 0.564117 71.8459 0.530016 71.5252 0.540405H70.9713C70.9575 0.538047 70.9433 0.539039 70.9299 0.543297C70.9165 0.547554 70.9044 0.554955 70.8944 0.564878C70.8845 0.574801 70.8771 0.586956 70.8729 0.600328C70.8686 0.613699 70.8676 0.627899 70.87 0.641733V2.33725H71.586C71.8241 2.35365 72.0634 2.33314 72.2953 2.27646C72.3417 2.25304 72.3797 2.21573 72.4039 2.16972C72.4281 2.12371 72.4374 2.07129 72.4304 2.01977V1.74956H72.6668V3.10058H72.4371V2.82362C72.436 2.78253 72.4206 2.74313 72.3934 2.71227C72.3663 2.68141 72.3291 2.66105 72.2885 2.65474C72.0661 2.61201 71.8393 2.59613 71.613 2.60746H70.897V3.16813C70.8837 3.64812 70.8973 4.12848 70.9375 4.60696C70.941 4.67027 70.9691 4.72971 71.0158 4.77262C71.0625 4.81552 71.1241 4.83849 71.1875 4.83663H71.4577C71.8191 4.84043 72.1803 4.81785 72.5385 4.76908C72.6491 4.76666 72.7579 4.74 72.8571 4.69098C72.9563 4.64196 73.0435 4.57177 73.1126 4.48537C73.127 4.44429 73.1493 4.40644 73.1783 4.37399C73.2072 4.34153 73.2423 4.31511 73.2815 4.29623C73.294 4.295 73.3065 4.29666 73.3182 4.30109C73.3299 4.30552 73.3404 4.31258 73.3489 4.32174C73.3574 4.33089 73.3637 4.34189 73.3672 4.35387C73.3708 4.36585 73.3715 4.37849 73.3693 4.3908C73.3569 4.47803 73.3366 4.56395 73.3085 4.64749L73.1667 5.1271H69.5392V4.88392Z" fill="currentColor"/>
<path d="M74.234 5.16088V4.88392H74.5853C74.6012 4.88505 74.6172 4.88262 74.6321 4.87681C74.647 4.871 74.6605 4.86195 74.6715 4.85032C74.6825 4.83868 74.6907 4.82476 74.6957 4.80954C74.7006 4.79432 74.7021 4.7782 74.7001 4.76233V1.54016C74.7153 1.2421 74.6994 0.943265 74.6528 0.648486C74.6374 0.597433 74.6047 0.553334 74.5603 0.523753C74.516 0.494172 74.4627 0.480954 74.4096 0.486366H74.0584V0.236426H76.3146C76.7475 0.210362 77.1737 0.35323 77.5034 0.634976C77.6361 0.750146 77.7426 0.892253 77.816 1.05183C77.8894 1.2114 77.9279 1.38478 77.929 1.56042C77.9346 1.70894 77.9106 1.85708 77.8584 1.99624C77.8062 2.1354 77.7269 2.2628 77.625 2.37103C77.4084 2.58661 77.125 2.72235 76.8212 2.75607L77.571 3.88417C77.7192 4.12072 77.884 4.34646 78.0641 4.55967C78.1501 4.66511 78.2501 4.75829 78.3613 4.83663C78.4571 4.87787 78.5612 4.89637 78.6653 4.89067V5.16088H77.544C77.4684 5.14636 77.3983 5.1113 77.3413 5.05955C77.1534 4.85255 76.9881 4.6261 76.8482 4.38404C76.5915 3.97198 76.3281 3.49913 76.0579 2.97223H75.585V3.80986C75.5701 4.10792 75.586 4.40672 75.6323 4.70153C75.6478 4.75205 75.6808 4.79542 75.7253 4.82387C75.7699 4.85233 75.8231 4.86404 75.8755 4.8569H76.22V5.16088H74.1935H74.234ZM75.585 2.67501H75.862C76.1593 2.68779 76.4528 2.60493 76.6996 2.43858C76.8101 2.35357 76.8976 2.24232 76.9542 2.11492C77.0108 1.98753 77.0348 1.84801 77.0238 1.70903C77.031 1.41331 76.9301 1.12512 76.7401 0.898423C76.6555 0.789549 76.5468 0.701777 76.4226 0.642C76.2984 0.582223 76.1619 0.552072 76.0241 0.553915H75.6863C75.6725 0.551557 75.6583 0.552549 75.6449 0.556807C75.6316 0.561064 75.6194 0.568465 75.6095 0.578388C75.5996 0.588311 75.5922 0.600466 75.5879 0.613838C75.5836 0.62721 75.5826 0.641409 75.585 0.655243V2.68176V2.67501Z" fill="currentColor"/>
<path d="M79.2598 1.51989C79.2544 1.31266 79.3033 1.10764 79.4017 0.925156C79.5 0.742675 79.6444 0.589079 79.8204 0.47961C80.1975 0.226387 80.643 0.0944019 81.0972 0.101325C81.2659 0.0905806 81.4351 0.0905806 81.6038 0.101325C81.7544 0.1247 81.9017 0.165505 82.0429 0.222917L82.0834 0.857895C82.0857 0.872615 82.0845 0.887671 82.0799 0.901838C82.0753 0.916006 82.0674 0.928883 82.0568 0.939419C82.0463 0.949955 82.0334 0.957852 82.0193 0.962467C82.0051 0.967082 81.99 0.968285 81.9753 0.965976C81.9213 0.965976 81.8875 0.911934 81.8605 0.790343C81.8337 0.720146 81.7902 0.657576 81.7337 0.608113C81.6772 0.55865 81.6094 0.523806 81.5362 0.506631C81.3643 0.437679 81.1811 0.401039 80.9958 0.39855C80.7404 0.394038 80.49 0.46963 80.2798 0.614712C80.1787 0.679315 80.0966 0.769689 80.042 0.876541C79.9873 0.983393 79.9622 1.10286 79.969 1.22267C79.9822 1.39741 80.0489 1.56385 80.1601 1.69926C80.2713 1.83466 80.4217 1.93244 80.5905 1.97924L81.8267 2.51289C82.0379 2.63471 82.2123 2.81144 82.3312 3.02432C82.4501 3.2372 82.5092 3.4783 82.5022 3.72205C82.5054 3.9352 82.4581 4.14608 82.3642 4.33744C82.2702 4.52881 82.1324 4.69524 81.9618 4.82312C81.5586 5.13381 81.0585 5.29175 80.55 5.26896C80.1191 5.26985 79.6914 5.19438 79.2868 5.04604C79.2868 4.86365 79.226 4.70829 79.199 4.56643C79.1805 4.484 79.167 4.40054 79.1584 4.31649C79.1553 4.30012 79.1559 4.28323 79.1603 4.26715C79.1648 4.25107 79.1729 4.23624 79.184 4.22381C79.1951 4.21137 79.209 4.20169 79.2245 4.1955C79.2399 4.18931 79.2567 4.1868 79.2733 4.18815C79.287 4.18156 79.302 4.17814 79.3172 4.17814C79.3324 4.17814 79.3474 4.18156 79.3611 4.18815C79.3973 4.25954 79.4267 4.33417 79.4489 4.41106C79.4919 4.49698 79.5526 4.57276 79.6272 4.63333C79.7017 4.6939 79.7883 4.73788 79.8812 4.76233C80.1091 4.86273 80.355 4.9156 80.604 4.91769C80.9056 4.92409 81.2014 4.83417 81.4484 4.661C81.5636 4.58146 81.6568 4.47412 81.7193 4.34895C81.7819 4.22377 81.8119 4.08481 81.8064 3.94496C81.7989 3.76134 81.7343 3.58463 81.6217 3.43937C81.5091 3.29411 81.3541 3.18751 81.1782 3.13435L79.9488 2.6007C79.7475 2.49897 79.5773 2.34494 79.4561 2.15477C79.3349 1.9646 79.267 1.7453 79.2598 1.51989Z" fill="currentColor"/>
<path d="M84.8327 3.80986C84.8178 4.10792 84.8336 4.40672 84.88 4.70153C84.8955 4.75206 84.9285 4.79542 84.973 4.82387C85.0176 4.85233 85.0708 4.86404 85.1232 4.8569H85.4744V5.16088H83.4479V4.88392H83.7924C83.8084 4.88505 83.8244 4.88262 83.8393 4.87681C83.8542 4.871 83.8676 4.86195 83.8786 4.85032C83.8896 4.83869 83.8979 4.82476 83.9028 4.80954C83.9078 4.79432 83.9093 4.7782 83.9073 4.76233V1.54016C83.9222 1.2421 83.9064 0.943291 83.86 0.648486C83.8446 0.597433 83.8119 0.553335 83.7675 0.523754C83.7231 0.494173 83.6698 0.480954 83.6168 0.486366H83.2655V0.236427H85.292V0.49312H84.9408C84.9248 0.491989 84.9088 0.494416 84.8939 0.500227C84.879 0.506038 84.8656 0.515086 84.8546 0.52672C84.8436 0.538353 84.8353 0.552282 84.8304 0.567498C84.8254 0.582715 84.8239 0.598841 84.8259 0.614712V3.80986H84.8327Z" fill="currentColor"/>
<path d="M86.6228 4.88392C86.6388 4.88505 86.6548 4.88262 86.6697 4.87681C86.6846 4.871 86.698 4.86195 86.709 4.85032C86.72 4.83868 86.7283 4.82476 86.7332 4.80954C86.7382 4.79432 86.7397 4.7782 86.7376 4.76233V1.54016C86.7505 1.24186 86.7324 0.94304 86.6836 0.648486C86.6682 0.597433 86.6355 0.553334 86.5911 0.523753C86.5467 0.494172 86.4935 0.480954 86.4404 0.486365H86.0891V0.236426H88.4602C88.808 0.213321 89.1569 0.2613 89.4855 0.377437C89.8142 0.493574 90.1158 0.675435 90.3719 0.911933C90.5906 1.12771 90.7633 1.38565 90.8794 1.67013C90.9955 1.95461 91.0527 2.25971 91.0474 2.56693C91.0493 3.21184 90.8273 3.83742 90.4191 4.33676C90.1662 4.61756 89.8515 4.83574 89.4998 4.97408C89.1481 5.11241 88.7691 5.16711 88.3926 5.13385H86.2783V4.88392H86.6228ZM88.0616 0.533651H87.7914C87.7762 0.530727 87.7605 0.531115 87.7454 0.534792C87.7304 0.53847 87.7163 0.545348 87.7041 0.554961C87.6919 0.564574 87.6819 0.576697 87.6749 0.590504C87.6678 0.60431 87.6638 0.619477 87.6631 0.634975V3.16137C87.6499 3.64136 87.6634 4.12172 87.7036 4.6002C87.7071 4.66351 87.7352 4.72296 87.7819 4.76586C87.8286 4.80876 87.8902 4.83173 87.9535 4.82988C88.5202 4.85738 89.0774 4.67724 89.5207 4.32324C89.7216 4.145 89.8795 3.92353 89.9824 3.67548C90.0854 3.42744 90.1308 3.15928 90.1152 2.89117C90.1532 2.25799 89.9423 1.63501 89.5275 1.15512C89.3418 0.955068 89.1156 0.796804 88.864 0.690824C88.6125 0.584843 88.3413 0.533569 88.0684 0.540405L88.0616 0.533651Z" fill="currentColor"/>
<path d="M92.9928 3.36403C92.8532 3.7288 92.7451 4.02152 92.6686 4.24219C92.6079 4.39352 92.5693 4.55275 92.5537 4.71504C92.5502 4.7397 92.5527 4.76485 92.5609 4.78836C92.5691 4.81187 92.5829 4.83306 92.601 4.85014C92.653 4.87709 92.7116 4.8888 92.7699 4.88392H93.209V5.16088H91.6418V4.88392H91.8918C91.9367 4.88719 91.9814 4.87486 92.0183 4.84902C92.0552 4.82318 92.0821 4.78541 92.0944 4.74206L94.0061 0.209406L94.3438 0.135102C94.437 0.111812 94.5319 0.0960006 94.6276 0.0878167C94.6396 0.0884331 94.6513 0.0917148 94.6619 0.0974258C94.6725 0.103137 94.6817 0.111133 94.6888 0.120834C94.6959 0.130535 94.7007 0.141696 94.703 0.153511C94.7053 0.165326 94.7049 0.177497 94.7019 0.189141C94.6908 0.232878 94.6644 0.271211 94.6276 0.297222C94.6045 0.316073 94.5859 0.339767 94.5731 0.36662C94.5602 0.393472 94.5535 0.422824 94.5533 0.452589C94.5992 0.701995 94.6693 0.946333 94.7627 1.18214C94.9023 1.59195 95.0734 2.07156 95.276 2.62097L95.8029 4.04629C95.8807 4.29536 95.9849 4.5354 96.1137 4.76233C96.1479 4.80368 96.1915 4.83628 96.2408 4.85743C96.2902 4.87857 96.3438 4.88765 96.3974 4.88392H96.5798V5.16088H94.6343V4.88392H94.9788C95.0734 4.88392 95.1207 4.88392 95.1207 4.81637C95.1266 4.77832 95.1266 4.73958 95.1207 4.70153L94.6613 3.35052H93.0198L92.9928 3.36403ZM93.8777 1.22942C93.7517 1.49963 93.6458 1.74056 93.5603 1.95222L93.1144 3.06005H94.5127L93.8777 1.22942Z" fill="currentColor"/>
<path d="M97.2553 4.88392H97.6065C97.6225 4.88505 97.6385 4.88262 97.6534 4.87681C97.6683 4.871 97.6818 4.86195 97.6928 4.85032C97.7037 4.83868 97.712 4.82476 97.717 4.80954C97.7219 4.79432 97.7234 4.7782 97.7214 4.76233V1.54016C97.7359 1.2421 97.7201 0.94333 97.6741 0.648486C97.6587 0.597433 97.626 0.553334 97.5816 0.523753C97.5372 0.494172 97.484 0.480954 97.4309 0.486365H97.0796V0.236426H99.4574C99.8052 0.213321 100.154 0.2613 100.483 0.377437C100.811 0.493574 101.113 0.675435 101.369 0.911933C101.588 1.12771 101.761 1.38565 101.877 1.67013C101.993 1.95461 102.05 2.25971 102.045 2.56693C102.047 3.21184 101.825 3.83742 101.416 4.33676C101.163 4.61715 100.848 4.83504 100.497 4.97334C100.145 5.11164 99.7663 5.16658 99.3899 5.13385H97.2755V4.88392H97.2553ZM99.0184 0.533651H98.7481C98.7329 0.530727 98.7172 0.531115 98.7022 0.534792C98.6871 0.53847 98.673 0.545348 98.6608 0.554961C98.6486 0.564574 98.6387 0.576697 98.6316 0.590504C98.6245 0.60431 98.6205 0.619477 98.6198 0.634975V3.16137C98.6068 3.64136 98.6204 4.1217 98.6603 4.6002C98.6638 4.66351 98.6919 4.72296 98.7386 4.76586C98.7853 4.80876 98.8469 4.83173 98.9103 4.82988C99.4769 4.85738 100.034 4.67724 100.477 4.32324C100.678 4.145 100.836 3.92353 100.939 3.67548C101.042 3.42744 101.087 3.15928 101.072 2.89117C101.11 2.25799 100.899 1.63501 100.484 1.15512C100.297 0.954548 100.07 0.796006 99.8174 0.690022C99.5647 0.584038 99.2923 0.533037 99.0184 0.540405V0.533651Z" fill="currentColor"/>
<path d="M105.125 4.88392H105.476C105.492 4.88505 105.508 4.88262 105.523 4.87681C105.538 4.871 105.551 4.86195 105.562 4.85032C105.573 4.83868 105.582 4.82476 105.587 4.80954C105.592 4.79432 105.593 4.7782 105.591 4.76233V1.54016C105.605 1.24186 105.586 0.942967 105.537 0.648486C105.523 0.596705 105.49 0.551796 105.446 0.522011C105.401 0.492226 105.347 0.479569 105.294 0.486365H104.943V0.236426H107.314C107.661 0.213321 108.01 0.2613 108.339 0.377437C108.668 0.493574 108.969 0.675435 109.225 0.911933C109.444 1.12771 109.617 1.38565 109.733 1.67013C109.849 1.95461 109.906 2.25971 109.901 2.56693C109.903 3.21184 109.681 3.83742 109.273 4.33676C109.019 4.61715 108.705 4.83504 108.353 4.97334C108.001 5.11164 107.622 5.16658 107.246 5.13385H105.132V4.88392H105.125ZM106.888 0.540405H106.611C106.596 0.53748 106.58 0.537871 106.565 0.541549C106.55 0.545226 106.536 0.552105 106.524 0.561718C106.512 0.571331 106.502 0.583451 106.494 0.597258C106.487 0.611064 106.483 0.626234 106.483 0.641732V3.16813C106.47 3.64812 106.483 4.12846 106.523 4.60696C106.527 4.67027 106.555 4.72971 106.602 4.77262C106.648 4.81552 106.71 4.83849 106.773 4.83663C107.34 4.86413 107.897 4.684 108.34 4.33C108.541 4.15175 108.699 3.93028 108.802 3.68224C108.905 3.43419 108.95 3.16604 108.935 2.89793C108.973 2.26474 108.762 1.64176 108.347 1.16187C108.162 0.9606 107.936 0.801071 107.685 0.693913C107.433 0.586755 107.161 0.534424 106.888 0.540405Z" fill="currentColor"/>
<path d="M110.806 4.88392H111.157C111.173 4.88505 111.189 4.88262 111.204 4.87681C111.219 4.871 111.232 4.86195 111.243 4.85032C111.254 4.83869 111.263 4.82476 111.268 4.80954C111.273 4.79432 111.274 4.7782 111.272 4.76233V1.54016C111.286 1.2421 111.271 0.94335 111.225 0.648486C111.209 0.597433 111.177 0.553335 111.132 0.523754C111.088 0.494173 111.035 0.480954 110.982 0.486366H110.63V0.236427H114.406C114.373 0.56067 114.346 0.776833 114.332 0.878159C114.319 0.979485 114.285 1.02677 114.238 1.02677C114.19 1.02677 114.116 0.965976 114.116 0.857895C114.084 0.794781 114.036 0.741376 113.977 0.703327C113.917 0.665278 113.849 0.643997 113.778 0.641733C113.467 0.564202 113.146 0.530103 112.826 0.540405H112.292C112.278 0.538047 112.264 0.539039 112.251 0.543297C112.237 0.547554 112.225 0.554955 112.215 0.564878C112.205 0.574801 112.198 0.586956 112.194 0.600328C112.189 0.613699 112.188 0.627899 112.191 0.641733V2.33725H112.907C113.145 2.35376 113.384 2.33325 113.616 2.27646C113.662 2.25304 113.7 2.21573 113.725 2.16972C113.749 2.12371 113.758 2.07129 113.751 2.01977V1.74956H113.988V3.10058H113.751V2.82362C113.75 2.78253 113.735 2.74313 113.707 2.71227C113.68 2.68141 113.643 2.66105 113.603 2.65474C113.38 2.61194 113.153 2.59607 112.927 2.60746H112.211V3.16813C112.198 3.64812 112.211 4.12848 112.252 4.60696C112.255 4.67027 112.283 4.72971 112.33 4.77262C112.376 4.81552 112.438 4.83849 112.501 4.83663H112.772C113.133 4.84043 113.494 4.81785 113.852 4.76908C113.96 4.76861 114.067 4.74483 114.165 4.69936C114.263 4.65389 114.35 4.58781 114.42 4.50563C114.434 4.46455 114.457 4.42671 114.486 4.39425C114.515 4.3618 114.55 4.33537 114.589 4.31649C114.601 4.31527 114.614 4.31693 114.625 4.32135C114.637 4.32578 114.648 4.33285 114.656 4.342C114.665 4.35116 114.671 4.36216 114.674 4.37414C114.678 4.38612 114.679 4.39875 114.677 4.41106C114.665 4.49837 114.644 4.58432 114.616 4.66776L114.474 5.14737H110.806V4.88392Z" fill="currentColor"/>
<path d="M12.317 31.3706H13.945C14.1989 31.3678 14.4496 31.4281 14.6745 31.5462C14.7862 31.6086 14.8778 31.7014 14.9388 31.8138C14.9998 31.9262 15.0276 32.0536 15.019 32.1812C15.0214 32.2686 15.0038 32.3555 14.9675 32.4351C14.9312 32.5147 14.8772 32.585 14.8096 32.6405C14.6573 32.7679 14.4802 32.8622 14.2895 32.9175C14.5403 32.965 14.7737 33.0794 14.965 33.2485C15.051 33.3271 15.119 33.4232 15.1645 33.5305C15.2099 33.6377 15.2317 33.7535 15.2284 33.8699C15.2329 34.0173 15.1999 34.1634 15.1326 34.2945C15.0653 34.4256 14.9658 34.5375 14.8434 34.6198C14.5287 34.817 14.1604 34.9114 13.7896 34.89H12.4386V34.7076H12.6885C12.7001 34.7088 12.7118 34.7074 12.7226 34.7033C12.7335 34.6992 12.7433 34.6926 12.7512 34.6841C12.7591 34.6756 12.7649 34.6653 12.768 34.6541C12.7712 34.6429 12.7718 34.6312 12.7696 34.6198V32.3095C12.7804 32.095 12.7691 31.88 12.7358 31.6678C12.7249 31.6309 12.7012 31.5992 12.6691 31.5781C12.6369 31.5571 12.5983 31.5482 12.5602 31.5529H12.317V31.3706ZM14.0463 32.8567C14.1591 32.8154 14.2545 32.7367 14.3165 32.6338C14.3795 32.5275 14.4123 32.406 14.4111 32.2825C14.4134 32.1929 14.3978 32.1038 14.3654 32.0203C14.3329 31.9368 14.2841 31.8606 14.2219 31.7961C14.1445 31.7214 14.052 31.6641 13.9507 31.628C13.8493 31.5919 13.7414 31.5778 13.6342 31.5867H13.4856C13.4765 31.5856 13.4672 31.5866 13.4585 31.5896C13.4498 31.5927 13.442 31.5976 13.4354 31.6041C13.4289 31.6106 13.424 31.6185 13.421 31.6272C13.418 31.6359 13.417 31.6451 13.4181 31.6543V32.8567H13.8031C13.884 32.8499 13.9654 32.8499 14.0463 32.8567ZM13.4113 33.7686C13.3994 34.028 13.4107 34.288 13.4451 34.5454C13.4656 34.5905 13.5009 34.6271 13.5452 34.6493C13.5894 34.6714 13.6399 34.6777 13.6883 34.667C13.8092 34.6796 13.9314 34.6676 14.0475 34.6316C14.1636 34.5956 14.2712 34.5364 14.3638 34.4576C14.4369 34.3844 14.4938 34.2967 14.5311 34.2001C14.5683 34.1036 14.5849 34.0003 14.5799 33.897C14.5795 33.6634 14.4901 33.4388 14.33 33.2687C14.2269 33.1691 14.1036 33.0928 13.9684 33.045C13.8331 32.9972 13.6892 32.979 13.5464 32.9918H13.4181V33.7619L13.4113 33.7686Z" fill="currentColor"/>
<path d="M18.2885 31.5529H18.0385C18.027 31.5517 18.0153 31.5532 18.0044 31.5572C17.9935 31.5613 17.9837 31.5679 17.9759 31.5764C17.968 31.585 17.9622 31.5952 17.959 31.6064C17.9558 31.6176 17.9553 31.6293 17.9575 31.6408V33.5322C17.9498 33.8343 18.0098 34.1344 18.1331 34.4103C18.2105 34.539 18.3243 34.6418 18.4603 34.7055C18.5962 34.7693 18.748 34.7912 18.8964 34.7684C19.0423 34.7777 19.1885 34.7554 19.3249 34.7029C19.4613 34.6504 19.5848 34.5691 19.6868 34.4644C19.8842 34.2211 19.9831 33.9125 19.9637 33.5997V32.4987C19.9789 32.2737 19.9789 32.0481 19.9637 31.8232C19.9621 31.7398 19.9389 31.6583 19.8962 31.5867C19.8455 31.5715 19.7915 31.5715 19.7408 31.5867H19.4774V31.3706H20.5109V31.5529H20.2137C20.2083 31.5622 20.2055 31.5727 20.2055 31.5833C20.2055 31.594 20.2083 31.6045 20.2137 31.6137V33.5727C20.2289 33.7703 20.1985 33.9688 20.1247 34.1527C20.0509 34.3366 19.9357 34.501 19.7881 34.6333C19.5007 34.8679 19.139 34.9924 18.7681 34.9845C18.5697 35.0051 18.3692 34.9852 18.1788 34.926C17.9884 34.8667 17.812 34.7695 17.6603 34.64C17.441 34.404 17.3244 34.0906 17.336 33.7686V32.296C17.349 32.0703 17.3377 31.8438 17.3022 31.6205C17.2913 31.5836 17.2677 31.5519 17.2355 31.5308C17.2033 31.5098 17.1647 31.5009 17.1266 31.5057H16.8496V31.3706H18.2885V31.5529Z" fill="currentColor"/>
<path d="M22.2807 34.7076H22.5307C22.5422 34.7088 22.5539 34.7074 22.5648 34.7033C22.5757 34.6992 22.5855 34.6926 22.5933 34.6841C22.6012 34.6756 22.607 34.6653 22.6102 34.6541C22.6134 34.6429 22.6139 34.6312 22.6117 34.6198V32.3095C22.6223 32.095 22.611 31.88 22.5779 31.6678C22.567 31.6309 22.5434 31.5992 22.5112 31.5781C22.479 31.5571 22.4405 31.5482 22.4023 31.5529H22.1524V31.3706H24.8544C24.8274 31.6047 24.8094 31.7579 24.8004 31.8299C24.8004 31.9042 24.8004 31.938 24.7328 31.938C24.6653 31.938 24.645 31.8975 24.645 31.8164C24.6221 31.7711 24.5874 31.7328 24.5446 31.7055C24.5019 31.6782 24.4525 31.6628 24.4018 31.661C24.181 31.6058 23.9538 31.5808 23.7263 31.5867H23.3278C23.3177 31.5857 23.3076 31.5869 23.2981 31.5902C23.2886 31.5936 23.28 31.599 23.2729 31.6061C23.2657 31.6133 23.2603 31.6219 23.2569 31.6314C23.2536 31.6409 23.2524 31.651 23.2535 31.661V32.8567H23.8006C23.9731 32.8667 24.1462 32.8507 24.314 32.8094C24.3463 32.792 24.3725 32.7653 24.3894 32.7328C24.4063 32.7002 24.413 32.6634 24.4086 32.627V32.4514H24.5437V33.4309H24.3816V33.2282C24.3804 33.1986 24.3689 33.1703 24.3492 33.1481C24.3295 33.1259 24.3028 33.1113 24.2735 33.1066C24.1066 33.0749 23.9365 33.0635 23.7668 33.0728H23.2535V33.4781C23.2341 33.8224 23.2341 34.1674 23.2535 34.5117C23.2543 34.5347 23.2597 34.5574 23.2694 34.5784C23.279 34.5994 23.2927 34.6182 23.3096 34.6339C23.3266 34.6496 23.3464 34.6618 23.3681 34.6698C23.3898 34.6778 23.4128 34.6815 23.4358 34.6805H23.6317C23.8915 34.6839 24.1511 34.6681 24.4086 34.6333C24.4869 34.6335 24.5642 34.6167 24.6354 34.584C24.7065 34.5513 24.7697 34.5036 24.8206 34.4441C24.8302 34.4135 24.8459 34.3851 24.8668 34.3607C24.8877 34.3363 24.9134 34.3164 24.9422 34.3023C24.9511 34.3008 24.9603 34.3016 24.9688 34.3046C24.9774 34.3076 24.985 34.3127 24.991 34.3195C24.9971 34.3262 25.0014 34.3343 25.0035 34.3431C25.0055 34.3519 25.0054 34.3611 25.003 34.3698C24.9953 34.4318 24.9817 34.4928 24.9625 34.5522L24.8814 34.8832H22.2807V34.7008V34.7076Z" fill="currentColor"/>
<path d="M29.8194 33.8902V32.4784C29.8344 32.2535 29.8344 32.0278 29.8194 31.8029C29.8178 31.7195 29.7945 31.6381 29.7518 31.5665C29.7012 31.5512 29.6471 31.5512 29.5965 31.5665H29.3465V31.3706H30.3801V31.5529H30.0828C30.0775 31.5622 30.0747 31.5727 30.0747 31.5833C30.0747 31.594 30.0775 31.6045 30.0828 31.6137V34.8832C30.0852 34.8919 30.0854 34.9011 30.0833 34.9099C30.0812 34.9187 30.0769 34.9268 30.0709 34.9336C30.0648 34.9403 30.0572 34.9454 30.0486 34.9484C30.0401 34.9514 30.031 34.9522 30.022 34.9507C29.9526 34.9188 29.8922 34.8701 29.8464 34.8089L27.4078 32.0258V33.5322C27.4078 33.7011 27.4078 33.8632 27.4078 34.0321C27.3977 34.1715 27.3977 34.3115 27.4078 34.4509C27.4108 34.5234 27.4342 34.5937 27.4754 34.6535C27.526 34.6687 27.5801 34.6687 27.6307 34.6535H27.8537V34.8832H26.8269V34.7008H27.1309C27.1362 34.6916 27.139 34.6811 27.139 34.6704C27.139 34.6597 27.1362 34.6493 27.1309 34.64V32.1136C27.1346 31.9748 27.102 31.8374 27.0363 31.7151C27.0144 31.667 26.9793 31.6263 26.935 31.5975C26.8907 31.5688 26.8391 31.5533 26.7864 31.5529H26.6513V31.3706H27.6105L29.8194 33.8902Z" fill="currentColor"/>
<path d="M32.1161 33.2282C32.1001 32.7108 32.2895 32.2081 32.643 31.8299C32.8163 31.6469 33.0261 31.5025 33.2589 31.4059C33.4916 31.3093 33.7421 31.2627 33.994 31.2692C34.2313 31.258 34.4685 31.2947 34.6913 31.3771C34.9141 31.4595 35.1181 31.5859 35.291 31.7488C35.4559 31.9193 35.5841 32.1217 35.6678 32.3436C35.7514 32.5655 35.7887 32.8022 35.7774 33.0391C35.7934 33.5565 35.6039 34.0592 35.2505 34.4374C35.0772 34.6203 34.8673 34.7648 34.6346 34.8614C34.4018 34.958 34.1514 35.0045 33.8994 34.998C33.6621 35.0092 33.425 34.9725 33.2022 34.8901C32.9794 34.8077 32.7754 34.6813 32.6025 34.5184C32.4376 34.348 32.3094 34.1456 32.2257 33.9237C32.1421 33.7018 32.1048 33.4651 32.1161 33.2282ZM35.1559 33.343C35.1967 32.8357 35.0501 32.331 34.7438 31.9245C34.6367 31.7891 34.5015 31.6786 34.3476 31.6005C34.1937 31.5224 34.0247 31.4785 33.8522 31.4719C33.6999 31.4682 33.549 31.5005 33.4116 31.5663C33.2743 31.632 33.1544 31.7293 33.0618 31.8502C32.8436 32.1666 32.7388 32.5475 32.7646 32.931C32.7232 33.4384 32.8698 33.9433 33.1767 34.3495C33.2838 34.4849 33.419 34.5954 33.5729 34.6735C33.7268 34.7517 33.8958 34.7955 34.0683 34.8021C34.22 34.8066 34.3706 34.7753 34.5079 34.7108C34.6452 34.6462 34.7654 34.5503 34.8587 34.4306C35.0784 34.1124 35.1832 33.7288 35.1559 33.343Z" fill="currentColor"/>
<path d="M37.635 32.2893C37.6307 32.1404 37.6651 31.993 37.735 31.8616C37.8049 31.7301 37.9078 31.6191 38.0336 31.5394C38.305 31.3578 38.6256 31.2635 38.9522 31.2692C39.0737 31.2618 39.1955 31.2618 39.317 31.2692C39.426 31.2855 39.5327 31.3149 39.6345 31.3571V31.8096C39.6358 31.8203 39.6346 31.8312 39.6308 31.8412C39.6271 31.8513 39.621 31.8604 39.6131 31.8677C39.6052 31.8749 39.5956 31.8802 39.5852 31.883C39.5749 31.8859 39.564 31.8862 39.5534 31.8839C39.5197 31.8839 39.4859 31.8434 39.4724 31.7556C39.4526 31.705 39.4207 31.6601 39.3795 31.6247C39.3383 31.5894 39.289 31.5647 39.236 31.553C39.1116 31.5015 38.9787 31.474 38.8442 31.4719C38.661 31.4689 38.4815 31.5232 38.3308 31.6273C38.2593 31.6754 38.2014 31.7411 38.1624 31.8179C38.1234 31.8947 38.1046 31.9802 38.1079 32.0663C38.1174 32.1932 38.1661 32.3139 38.2472 32.4119C38.3282 32.5099 38.4377 32.5803 38.5604 32.6135L39.4454 32.9985C39.5956 33.0875 39.7189 33.2155 39.8021 33.3689C39.8854 33.5224 39.9255 33.6955 39.9182 33.8699C39.9201 34.0226 39.8862 34.1735 39.8194 34.3107C39.7525 34.448 39.6545 34.5677 39.5332 34.6603C39.2437 34.8829 38.8846 34.9954 38.5199 34.9778C38.2087 34.9783 37.8999 34.9234 37.608 34.8157C37.608 34.6873 37.5675 34.5725 37.5472 34.4711C37.5438 34.4126 37.5438 34.354 37.5472 34.2955C37.5452 34.2838 37.5458 34.2718 37.549 34.2603C37.5522 34.2489 37.5578 34.2383 37.5656 34.2292C37.5733 34.2202 37.5829 34.213 37.5938 34.2081C37.6046 34.2032 37.6164 34.2008 37.6282 34.2009C37.6378 34.1967 37.6482 34.1944 37.6586 34.1944C37.6691 34.1944 37.6795 34.1967 37.689 34.2009C37.7148 34.2528 37.7352 34.3071 37.7498 34.3631C37.782 34.4236 37.8262 34.4769 37.8796 34.5199C37.933 34.5629 37.9946 34.5945 38.0606 34.613C38.2246 34.6854 38.4014 34.7245 38.5807 34.7278C38.7975 34.7328 39.0104 34.6689 39.1887 34.5454C39.2709 34.4881 39.3374 34.411 39.3822 34.3214C39.4271 34.2317 39.4488 34.1323 39.4454 34.0321C39.4397 33.9002 39.393 33.7734 39.3119 33.6693C39.2308 33.5652 39.1192 33.4889 38.9928 33.4511L38.1079 33.0661C37.9671 32.9904 37.849 32.8785 37.7659 32.7419C37.6828 32.6054 37.6376 32.4491 37.635 32.2893Z" fill="currentColor"/>
<path d="M45.3358 33.62C45.2367 33.8812 45.1602 34.0906 45.1061 34.2482C45.0625 34.3585 45.0352 34.4746 45.0251 34.5927C45.0226 34.6101 45.0244 34.6277 45.0303 34.6442C45.0362 34.6606 45.046 34.6754 45.0588 34.6873C45.0985 34.6989 45.1407 34.6989 45.1804 34.6873H45.4979V34.8832H44.3698V34.7008H44.5454C44.577 34.7021 44.6081 34.6929 44.6338 34.6745C44.6595 34.6562 44.6783 34.6298 44.6873 34.5995L46.0383 31.3435L46.2815 31.2895H46.4842C46.5179 31.2895 46.5382 31.2895 46.5382 31.3638C46.5294 31.3941 46.5103 31.4204 46.4842 31.4381C46.4672 31.4521 46.4536 31.4696 46.4443 31.4895C46.4349 31.5093 46.4301 31.531 46.4301 31.5529C46.4631 31.7306 46.5128 31.9048 46.5787 32.0731C46.68 32.3636 46.8016 32.7081 46.9502 33.1066L47.3285 34.1266C47.3843 34.3052 47.459 34.4773 47.5515 34.64C47.5759 34.6696 47.607 34.693 47.6422 34.7083C47.6775 34.7235 47.7158 34.7302 47.7541 34.7278H47.8892V34.8832H46.5112V34.7008H46.7679C46.8354 34.7008 46.8692 34.7008 46.8692 34.6535C46.8733 34.6267 46.8733 34.5993 46.8692 34.5725L46.5382 33.6132H45.3358V33.62ZM45.9708 32.0866C45.8762 32.2802 45.7996 32.4536 45.7411 32.6067L45.4168 33.3971H46.4234L45.9708 32.0866Z" fill="currentColor"/>
<path d="M50.5575 33.9578C50.5469 34.1723 50.5583 34.3873 50.5912 34.5995C50.6021 34.6363 50.6258 34.6681 50.658 34.6892C50.6901 34.7102 50.7287 34.7191 50.7669 34.7143H51.0168V34.8832H49.5847V34.7008H49.8347C49.8462 34.7021 49.8579 34.7006 49.8688 34.6965C49.8797 34.6925 49.8895 34.6859 49.8973 34.6773C49.9052 34.6688 49.911 34.6585 49.9142 34.6474C49.9174 34.6362 49.9179 34.6244 49.9157 34.613V32.3028C49.9266 32.0883 49.9153 31.8732 49.882 31.661C49.871 31.6242 49.8474 31.5924 49.8152 31.5714C49.7831 31.5503 49.7445 31.5414 49.7063 31.5462H49.4699V31.3706H50.8885V31.5529H50.6385C50.627 31.5517 50.6153 31.5532 50.6044 31.5572C50.5935 31.5613 50.5837 31.5679 50.5758 31.5764C50.568 31.585 50.5622 31.5952 50.559 31.6064C50.5558 31.6176 50.5553 31.6293 50.5575 31.6408V33.9578Z" fill="currentColor"/>
<path d="M52.8069 34.8832V34.7008H53.0568C53.0684 34.7021 53.0801 34.7006 53.091 34.6965C53.1019 34.6925 53.1116 34.6859 53.1195 34.6773C53.1274 34.6688 53.1332 34.6585 53.1364 34.6474C53.1396 34.6362 53.1401 34.6244 53.1379 34.613V32.3028C53.1484 32.0883 53.1371 31.8732 53.1041 31.661C53.0932 31.6242 53.0696 31.5924 53.0374 31.5714C53.0052 31.5503 52.9666 31.5414 52.9285 31.5462H52.6786V31.3706H54.2998C54.6127 31.3519 54.9205 31.4561 55.1577 31.661C55.2541 31.745 55.3313 31.8488 55.3837 31.9654C55.4362 32.0821 55.4628 32.2087 55.4616 32.3365C55.4662 32.4429 55.4495 32.5491 55.4123 32.6489C55.3752 32.7487 55.3185 32.84 55.2455 32.9175C55.0909 33.0721 54.8885 33.1697 54.6713 33.1944L55.2049 34.005C55.3134 34.1728 55.433 34.333 55.563 34.4847C55.626 34.5593 55.6987 34.6252 55.7791 34.6805C55.8471 34.7106 55.9211 34.7245 55.9953 34.7211V34.8832H55.1914C55.1381 34.8722 55.089 34.8465 55.0496 34.8089C54.9149 34.653 54.7971 34.4831 54.6983 34.3023C54.5137 34.005 54.3245 33.6673 54.1309 33.289H53.7796V33.9645C53.7688 34.179 53.7801 34.3941 53.8134 34.6062C53.8243 34.6431 53.848 34.6749 53.8801 34.6959C53.9123 34.7169 53.9509 34.7259 53.989 34.7211H54.239V34.8832H52.8069ZM53.7796 33.0999H53.9823C54.1977 33.1092 54.4105 33.0501 54.5902 32.931C54.6697 32.8707 54.7329 32.7916 54.7742 32.7008C54.8155 32.61 54.8335 32.5103 54.8267 32.4108C54.8295 32.1982 54.7551 31.9918 54.6173 31.8299C54.5544 31.7524 54.4752 31.6898 54.3852 31.6466C54.2953 31.6034 54.1969 31.5806 54.0971 31.58H53.8539C53.8439 31.5789 53.8338 31.5801 53.8243 31.5835C53.8148 31.5868 53.8062 31.5923 53.799 31.5994C53.7919 31.6065 53.7865 31.6151 53.7831 31.6246C53.7798 31.6341 53.7786 31.6443 53.7796 31.6543V33.0999Z" fill="currentColor"/>
<path d="M57.576 34.7076H57.8259C57.8375 34.7088 57.8492 34.7074 57.86 34.7033C57.8709 34.6992 57.8807 34.6926 57.8886 34.6841C57.8965 34.6756 57.9022 34.6653 57.9054 34.6541C57.9086 34.6429 57.9092 34.6312 57.907 34.6198V32.3095C57.9182 32.095 57.9069 31.8799 57.8732 31.6678C57.8623 31.6309 57.8386 31.5992 57.8065 31.5781C57.7743 31.5571 57.7357 31.5482 57.6976 31.5529H57.4476V31.3706H60.1497C60.1226 31.6047 60.1046 31.7579 60.0956 31.8299C60.0956 31.9042 60.0956 31.938 60.0281 31.938C59.9605 31.938 59.9403 31.8975 59.9403 31.8164C59.9173 31.7711 59.8827 31.7328 59.8399 31.7055C59.7971 31.6782 59.7478 31.6628 59.6971 31.661C59.4763 31.6059 59.2491 31.5809 59.0216 31.5867H58.623C58.613 31.5857 58.6029 31.5869 58.5934 31.5902C58.5839 31.5936 58.5752 31.599 58.5681 31.6061C58.561 31.6133 58.5556 31.6219 58.5522 31.6314C58.5488 31.6409 58.5476 31.651 58.5487 31.661V32.8567H59.0621C59.2411 32.8849 59.4235 32.8849 59.6025 32.8567C59.6348 32.8393 59.661 32.8126 59.6779 32.7801C59.6948 32.7475 59.7015 32.7107 59.6971 32.6743V32.4514H59.8659V33.4309H59.6971V33.2282C59.6959 33.1986 59.6845 33.1703 59.6648 33.1481C59.6451 33.1259 59.6183 33.1113 59.589 33.1066C59.4221 33.0749 59.252 33.0636 59.0824 33.0728H58.5487V33.4781C58.5291 33.8224 58.5291 34.1674 58.5487 34.5117C58.5486 34.535 58.5534 34.5582 58.5627 34.5796C58.572 34.601 58.5857 34.6203 58.6029 34.6361C58.62 34.652 58.6402 34.6641 58.6623 34.6718C58.6844 34.6794 58.7078 34.6824 58.7311 34.6805H58.927C59.1867 34.6839 59.4464 34.6681 59.7038 34.6333C59.7821 34.6335 59.8595 34.6167 59.9307 34.584C60.0018 34.5513 60.065 34.5036 60.1159 34.4441C60.1255 34.4135 60.1412 34.3851 60.1621 34.3607C60.183 34.3363 60.2086 34.3164 60.2375 34.3023C60.2464 34.3008 60.2556 34.3016 60.2641 34.3046C60.2726 34.3076 60.2803 34.3127 60.2863 34.3195C60.2924 34.3262 60.2966 34.3343 60.2987 34.3431C60.3008 34.3519 60.3007 34.3611 60.2983 34.3698C60.2882 34.432 60.2724 34.493 60.251 34.5522L60.1497 34.8967H57.576V34.7076Z" fill="currentColor"/>
<path d="M62.1694 32.2893C62.1658 32.1398 62.2013 31.992 62.2724 31.8604C62.3435 31.7289 62.4477 31.6183 62.5747 31.5394C62.8462 31.3578 63.1668 31.2635 63.4934 31.2692C63.6149 31.2619 63.7367 31.2619 63.8582 31.2692C63.9672 31.2854 64.0738 31.3149 64.1757 31.3571V31.8096C64.177 31.8203 64.1757 31.8312 64.172 31.8412C64.1683 31.8513 64.1622 31.8604 64.1543 31.8677C64.1464 31.8749 64.1368 31.8802 64.1264 31.883C64.1161 31.8859 64.1051 31.8862 64.0946 31.8839C64.0609 31.8839 64.0271 31.8434 64.0136 31.7556C63.9938 31.705 63.9619 31.6601 63.9207 31.6247C63.8794 31.5894 63.8301 31.5647 63.7771 31.5529C63.6528 31.5016 63.5199 31.4741 63.3853 31.4719C63.2022 31.4689 63.0227 31.5232 62.872 31.6273C62.8005 31.6754 62.7426 31.7411 62.7036 31.8179C62.6646 31.8947 62.6458 31.9802 62.649 32.0663C62.6586 32.1932 62.7073 32.3139 62.7883 32.4119C62.8694 32.5099 62.9789 32.5803 63.1016 32.6135L63.9865 32.9985C64.1238 33.0862 64.2381 33.2055 64.3198 33.3464C64.4016 33.4873 64.4484 33.6458 64.4563 33.8085C64.4642 33.9712 64.4331 34.1334 64.3655 34.2816C64.2978 34.4298 64.1957 34.5597 64.0676 34.6603C63.7784 34.8834 63.4191 34.996 63.0543 34.9778C62.7432 34.9783 62.4344 34.9234 62.1424 34.8157C62.1424 34.6873 62.1019 34.5725 62.0816 34.4711C62.0778 34.4127 62.0778 34.354 62.0816 34.2955C62.0796 34.2838 62.0803 34.2718 62.0834 34.2603C62.0866 34.2489 62.0923 34.2383 62.1 34.2292C62.1077 34.2202 62.1174 34.213 62.1282 34.2081C62.139 34.2032 62.1508 34.2008 62.1627 34.2009C62.1722 34.1966 62.1826 34.1944 62.1931 34.1944C62.2035 34.1944 62.2139 34.1966 62.2235 34.2009C62.2496 34.2526 62.27 34.307 62.2843 34.3631C62.3165 34.4236 62.3606 34.4769 62.414 34.5199C62.4674 34.5628 62.529 34.5945 62.595 34.613C62.759 34.6854 62.9359 34.7244 63.1151 34.7278C63.332 34.7328 63.5448 34.6689 63.7231 34.5454C63.8057 34.4885 63.8726 34.4116 63.9175 34.3218C63.9624 34.232 63.9838 34.1323 63.9798 34.0321C63.9741 33.9002 63.9274 33.7734 63.8463 33.6693C63.7652 33.5652 63.6537 33.4889 63.5272 33.4511L62.6423 33.0661C62.5019 32.9898 62.3843 32.8778 62.3012 32.7414C62.2182 32.6049 62.1727 32.4489 62.1694 32.2893Z" fill="currentColor"/>
<path d="M68.7759 33.4511H69.4311V33.4984L69.2623 33.8699H68.634C68.4352 33.8578 68.2357 33.8691 68.0396 33.9037H67.972V33.8091L68.1409 33.4714H68.7556L68.7759 33.4511Z" fill="currentColor"/>
<path d="M73.6598 33.62C73.5607 33.8812 73.4842 34.0906 73.4301 34.2482C73.3866 34.3585 73.3593 34.4746 73.3491 34.5927C73.3466 34.6101 73.3484 34.6277 73.3543 34.6442C73.3602 34.6606 73.37 34.6754 73.3829 34.6873C73.4226 34.6986 73.4647 34.6986 73.5044 34.6873H73.7882V34.8832H72.6668V34.7008H72.8424C72.874 34.7021 72.9051 34.6929 72.9308 34.6745C72.9565 34.6562 72.9753 34.6298 72.9843 34.5995L74.3353 31.3435L74.5785 31.2895H74.7812C74.7898 31.2902 74.7983 31.2928 74.8058 31.2971C74.8134 31.3014 74.82 31.3073 74.8251 31.3143C74.8303 31.3214 74.8338 31.3294 74.8355 31.338C74.8373 31.3465 74.8372 31.3553 74.8352 31.3638C74.8264 31.3941 74.8073 31.4204 74.7812 31.4381C74.7642 31.4521 74.7506 31.4696 74.7413 31.4895C74.7319 31.5093 74.7271 31.531 74.7271 31.5529C74.7604 31.7306 74.8101 31.9047 74.8757 32.0731C74.977 32.3636 75.0986 32.7081 75.2473 33.1066L75.6255 34.1266C75.6819 34.305 75.7566 34.4771 75.8485 34.64C75.8729 34.6696 75.904 34.693 75.9392 34.7083C75.9745 34.7235 76.0128 34.7302 76.0511 34.7278H76.1862V34.8832H74.7879V34.7008H75.0378C75.1054 34.7008 75.1392 34.7008 75.1392 34.6535C75.1432 34.6267 75.1432 34.5993 75.1392 34.5725L74.8082 33.6132H73.626L73.6598 33.62ZM74.2948 32.0866C74.2002 32.2802 74.1237 32.4536 74.0651 32.6067L73.7476 33.4038H74.7474L74.2948 32.0866Z" fill="currentColor"/>
<path d="M77.9088 34.8832V34.7008H78.1587C78.1702 34.7021 78.1819 34.7006 78.1928 34.6965C78.2037 34.6925 78.2135 34.6859 78.2214 34.6773C78.2293 34.6688 78.235 34.6585 78.2382 34.6474C78.2414 34.6362 78.2419 34.6244 78.2397 34.613V32.3028C78.2505 32.0883 78.2391 31.8732 78.206 31.661C78.1951 31.6242 78.1714 31.5924 78.1392 31.5714C78.1071 31.5503 78.0685 31.5414 78.0303 31.5462H77.7804V31.3706H79.4016C79.7145 31.3519 80.0223 31.4561 80.2595 31.661C80.356 31.745 80.4331 31.8488 80.4856 31.9654C80.5381 32.0821 80.5646 32.2087 80.5635 32.3365C80.5677 32.4429 80.5508 32.549 80.5137 32.6487C80.4765 32.7484 80.42 32.8398 80.3473 32.9175C80.1928 33.0721 79.9904 33.1697 79.7732 33.1944L80.3136 34.005C80.4221 34.1727 80.5417 34.3329 80.6716 34.4847C80.7327 34.5587 80.803 34.6245 80.881 34.6805C80.9511 34.7114 81.0274 34.7253 81.1039 34.7211V34.8832H80.3C80.2467 34.8722 80.1976 34.8465 80.1582 34.8089C80.0235 34.6529 79.9058 34.4831 79.8069 34.3023C79.6223 34.005 79.4331 33.6673 79.2395 33.289H78.895V33.9645C78.8848 34.179 78.8962 34.394 78.9288 34.6062C78.9397 34.6431 78.9633 34.6749 78.9955 34.6959C79.0277 34.7169 79.0663 34.7259 79.1044 34.7211H79.3543V34.8832H77.9088ZM78.8815 33.0999H79.0841C79.2996 33.1097 79.5126 33.0505 79.6921 32.931C79.7716 32.8707 79.8348 32.7916 79.876 32.7008C79.9173 32.61 79.9353 32.5103 79.9285 32.4108C79.932 32.1981 79.8575 31.9915 79.7191 31.8299C79.6563 31.7524 79.577 31.6898 79.4871 31.6466C79.3971 31.6034 79.2987 31.5806 79.199 31.58H78.9558C78.9458 31.5789 78.9356 31.5801 78.9261 31.5835C78.9166 31.5868 78.908 31.5923 78.9009 31.5994C78.8938 31.6065 78.8883 31.6151 78.885 31.6246C78.8816 31.6341 78.8804 31.6443 78.8815 31.6543V33.0999Z" fill="currentColor"/>
<path d="M86.2107 33.262V33.4444H85.9473C85.8865 33.4444 85.8527 33.4444 85.8595 33.5254V34.3023C85.8542 34.3788 85.8681 34.4554 85.9 34.5252C85.9167 34.5481 85.9303 34.5731 85.9405 34.5995C85.924 34.6394 85.8972 34.6743 85.8627 34.7004C85.8283 34.7265 85.7875 34.743 85.7446 34.7481C85.5901 34.8032 85.4321 34.8483 85.2718 34.8832C85.0894 34.9237 84.934 34.9575 84.8057 34.971C84.682 34.9795 84.5578 34.9795 84.4341 34.971C84.1948 34.9825 83.9555 34.946 83.7304 34.8636C83.5054 34.7813 83.2991 34.6547 83.1237 34.4914C82.9569 34.3181 82.8276 34.1123 82.7439 33.8868C82.6602 33.6614 82.6239 33.4211 82.6373 33.1809C82.6299 32.9079 82.6872 32.6371 82.8046 32.3905C82.9221 32.1439 83.0962 31.9287 83.3128 31.7624C83.7583 31.411 84.3128 31.2269 84.88 31.2422C85.0634 31.2418 85.2465 31.2576 85.4271 31.2895C85.5974 31.3166 85.7633 31.3666 85.9203 31.4381C85.9037 31.5791 85.8789 31.7189 85.846 31.8569C85.8453 31.8786 85.8377 31.8994 85.8244 31.9164C85.811 31.9334 85.7925 31.9457 85.7717 31.9515C85.7176 31.9515 85.6906 31.911 85.6906 31.8299C85.6721 31.7727 85.6396 31.721 85.5959 31.6797C85.5522 31.6384 85.4988 31.6087 85.4407 31.5935C85.2293 31.4962 84.9974 31.4521 84.7651 31.4651C84.5688 31.4718 84.3748 31.5106 84.191 31.58C83.94 31.6764 83.7219 31.8429 83.5627 32.0596C83.3509 32.3634 83.2484 32.7302 83.2723 33.0999C83.2639 33.5103 83.387 33.9127 83.6235 34.2482C83.7372 34.4092 83.8897 34.5388 84.0668 34.625C84.244 34.7112 84.44 34.7512 84.6368 34.7413C84.8444 34.7453 85.0501 34.7014 85.238 34.613V34.2077C85.2487 33.9932 85.2374 33.7782 85.2042 33.566C85.1933 33.5291 85.1697 33.4973 85.1375 33.4763C85.1053 33.4553 85.0667 33.4463 85.0286 33.4511H84.7314V33.262H86.2107Z" fill="currentColor"/>
<path d="M88.0549 34.7076H88.3048C88.3164 34.7088 88.3281 34.7074 88.3389 34.7033C88.3498 34.6992 88.3596 34.6926 88.3675 34.6841C88.3754 34.6756 88.3811 34.6653 88.3843 34.6541C88.3875 34.6429 88.3881 34.6312 88.3859 34.6198V32.3095C88.3965 32.095 88.3852 31.88 88.3521 31.6678C88.3412 31.6309 88.3175 31.5992 88.2854 31.5781C88.2532 31.5571 88.2146 31.5482 88.1765 31.5529H87.9265V31.3706H90.6285C90.6015 31.6047 90.5835 31.7579 90.5745 31.8299C90.5745 31.9042 90.5745 31.938 90.507 31.938C90.4394 31.938 90.4191 31.8975 90.4191 31.8164C90.3962 31.7711 90.3616 31.7328 90.3188 31.7055C90.276 31.6782 90.2267 31.6628 90.176 31.661C89.9552 31.6059 89.7279 31.5809 89.5005 31.5867H89.1019C89.0919 31.5857 89.0818 31.5869 89.0723 31.5902C89.0628 31.5936 89.0541 31.599 89.047 31.6061C89.0399 31.6133 89.0344 31.6219 89.0311 31.6314C89.0277 31.6409 89.0265 31.651 89.0276 31.661V32.8567H89.541C89.7135 32.8666 89.8866 32.8506 90.0544 32.8094C90.0866 32.792 90.1129 32.7653 90.1298 32.7328C90.1467 32.7002 90.1533 32.6634 90.1489 32.627V32.4514H90.3178V33.4309H90.1489V33.2282C90.1478 33.1986 90.1363 33.1703 90.1166 33.1481C90.0969 33.1259 90.0701 33.1113 90.0409 33.1066C89.874 33.0749 89.7039 33.0636 89.5342 33.0728H89.0208V33.4781C89.0015 33.8224 89.0015 34.1674 89.0208 34.5117C89.0217 34.5347 89.0271 34.5574 89.0368 34.5784C89.0464 34.5994 89.0601 34.6182 89.077 34.6339C89.094 34.6496 89.1138 34.6618 89.1355 34.6698C89.1571 34.6778 89.1802 34.6815 89.2032 34.6805H89.3991C89.6589 34.6839 89.9185 34.6681 90.176 34.6333C90.2542 34.6335 90.3316 34.6167 90.4028 34.584C90.4739 34.5513 90.5371 34.5036 90.588 34.4441C90.5976 34.4135 90.6133 34.3851 90.6342 34.3607C90.6551 34.3363 90.6808 34.3164 90.7096 34.3023C90.7185 34.3008 90.7277 34.3016 90.7362 34.3046C90.7447 34.3076 90.7524 34.3127 90.7584 34.3195C90.7645 34.3262 90.7687 34.3343 90.7708 34.3431C90.7729 34.3519 90.7728 34.3611 90.7704 34.3698C90.7625 34.4317 90.7489 34.4928 90.7299 34.5522L90.6758 34.8832H88.0684V34.7008L88.0549 34.7076Z" fill="currentColor"/>
<path d="M95.6003 33.8902V32.4784C95.6161 32.2535 95.6161 32.0278 95.6003 31.8029C95.599 31.7195 95.5757 31.6379 95.5327 31.5665C95.4821 31.5512 95.428 31.5512 95.3774 31.5665H95.1545V31.3706H96.188V31.5529H95.884C95.8787 31.5622 95.8759 31.5727 95.8759 31.5833C95.8759 31.594 95.8787 31.6045 95.884 31.6137V34.8832C95.8864 34.8919 95.8865 34.9011 95.8844 34.9099C95.8823 34.9187 95.8781 34.9268 95.872 34.9336C95.866 34.9403 95.8583 34.9454 95.8498 34.9484C95.8413 34.9514 95.8321 34.9522 95.8232 34.9507C95.7533 34.9196 95.6928 34.8707 95.6476 34.8089L93.209 32.0258V33.5322C93.209 33.7011 93.209 33.8632 93.209 34.0321C93.1991 34.1715 93.1991 34.3114 93.209 34.4509C93.2123 34.5234 93.2357 34.5935 93.2765 34.6535C93.3272 34.6687 93.3812 34.6687 93.4319 34.6535H93.6548V34.8832H92.6213V34.7008H92.9185C92.9246 34.6919 92.9279 34.6813 92.9279 34.6704C92.9279 34.6596 92.9246 34.649 92.9185 34.64V32.1136C92.924 31.9754 92.8938 31.8382 92.8307 31.7151C92.8088 31.667 92.7737 31.6263 92.7294 31.5975C92.6851 31.5688 92.6336 31.5533 92.5808 31.5529H92.4322V31.3706H93.3779L95.6003 33.8902Z" fill="currentColor"/>
<path d="M100.322 34.8832H98.5995V34.7008H99.0184C99.0299 34.7021 99.0416 34.7006 99.0525 34.6965C99.0634 34.6925 99.0731 34.6859 99.081 34.6773C99.0889 34.6688 99.0947 34.6585 99.0979 34.6474C99.1011 34.6362 99.1016 34.6244 99.0994 34.613V31.58H98.9913C98.783 31.5792 98.575 31.5973 98.3699 31.634C98.2992 31.6374 98.2303 31.6568 98.1683 31.6907C98.1062 31.7246 98.0528 31.7722 98.0118 31.8299C98.003 31.8609 97.9876 31.8897 97.9666 31.9142C97.9456 31.9387 97.9196 31.9583 97.8902 31.9718C97.8806 31.9741 97.8706 31.974 97.861 31.9715C97.8514 31.969 97.8426 31.9643 97.8353 31.9576C97.8279 31.951 97.8224 31.9426 97.819 31.9333C97.8156 31.924 97.8146 31.914 97.8159 31.9042L97.9848 31.3638H100.842L101.011 31.9042C101.012 31.914 101.011 31.924 101.008 31.9333C101.005 31.9426 100.999 31.951 100.992 31.9576C100.984 31.9643 100.976 31.969 100.966 31.9715C100.956 31.974 100.946 31.9741 100.937 31.9718C100.919 31.9779 100.9 31.9779 100.883 31.9718C100.85 31.9283 100.822 31.8806 100.802 31.8299C100.761 31.7791 100.71 31.7377 100.651 31.7086C100.593 31.6794 100.529 31.6632 100.464 31.661C100.259 31.6243 100.051 31.6062 99.8425 31.607H99.7344V33.9713C99.724 34.1858 99.7353 34.4008 99.7682 34.613C99.7791 34.6498 99.8027 34.6816 99.8349 34.7027C99.8671 34.7237 99.9057 34.7326 99.9438 34.7278H100.315V34.8832H100.322Z" fill="currentColor"/>
<path d="M103.74 33.9578C103.729 34.1723 103.741 34.3873 103.774 34.5995C103.785 34.6363 103.808 34.6681 103.841 34.6892C103.873 34.7102 103.911 34.7191 103.95 34.7143H104.186V34.8832H102.754V34.7008H103.004C103.015 34.7021 103.027 34.7006 103.038 34.6965C103.049 34.6925 103.059 34.6859 103.067 34.6773C103.074 34.6688 103.08 34.6585 103.083 34.6474C103.087 34.6362 103.087 34.6244 103.085 34.613V32.3028C103.096 32.0883 103.084 31.8732 103.051 31.661C103.04 31.6242 103.017 31.5924 102.984 31.5714C102.952 31.5503 102.914 31.5414 102.875 31.5462H102.626V31.3706H104.058V31.5529H103.808C103.796 31.5517 103.784 31.5532 103.774 31.5572C103.763 31.5613 103.753 31.5679 103.745 31.5764C103.737 31.585 103.731 31.5952 103.728 31.6064C103.725 31.6176 103.724 31.6293 103.727 31.6408V33.951L103.74 33.9578Z" fill="currentColor"/>
<path d="M108.969 33.8902V32.4784C108.984 32.2535 108.984 32.0278 108.969 31.8029C108.967 31.7195 108.944 31.6381 108.901 31.5665C108.85 31.5512 108.796 31.5512 108.746 31.5665H108.523V31.3706H109.556V31.5529H109.252C109.247 31.5622 109.244 31.5727 109.244 31.5833C109.244 31.594 109.247 31.6045 109.252 31.6137V34.8832C109.255 34.8919 109.255 34.9011 109.253 34.9099C109.251 34.9187 109.246 34.9268 109.24 34.9336C109.234 34.9403 109.227 34.9454 109.218 34.9484C109.21 34.9514 109.2 34.9522 109.191 34.9507C109.122 34.9191 109.061 34.8703 109.016 34.8089L106.577 32.0258V33.5322C106.577 33.7011 106.577 33.8632 106.577 34.0321C106.567 34.1715 106.567 34.3115 106.577 34.4509C106.58 34.5234 106.604 34.5937 106.645 34.6535C106.695 34.6691 106.75 34.6691 106.8 34.6535H107.023V34.8832H105.99V34.7008H106.294C106.3 34.6919 106.303 34.6813 106.303 34.6704C106.303 34.6596 106.3 34.649 106.294 34.64V32.1136C106.299 31.9755 106.269 31.8383 106.206 31.7151C106.184 31.667 106.149 31.6263 106.104 31.5975C106.06 31.5688 106.009 31.5533 105.956 31.5529H105.807V31.3706H106.766L108.969 33.8902Z" fill="currentColor"/>
<path d="M112.089 33.62C111.988 33.8834 111.914 34.0929 111.86 34.2482C111.816 34.3585 111.789 34.4745 111.779 34.5927C111.776 34.6101 111.778 34.6277 111.784 34.6442C111.79 34.6606 111.8 34.6754 111.812 34.6873C111.852 34.6989 111.894 34.6989 111.934 34.6873H112.252V34.8832H111.123V34.7008H111.299C111.331 34.7021 111.362 34.6929 111.387 34.6745C111.413 34.6562 111.432 34.6298 111.441 34.5995L112.792 31.3435L113.035 31.2895H113.238C113.246 31.2902 113.255 31.2928 113.262 31.2971C113.27 31.3014 113.277 31.3073 113.282 31.3143C113.287 31.3214 113.29 31.3294 113.292 31.338C113.294 31.3465 113.294 31.3553 113.292 31.3638C113.283 31.3941 113.264 31.4204 113.238 31.4381C113.221 31.4524 113.208 31.47 113.198 31.4898C113.189 31.5095 113.184 31.5311 113.184 31.5529C113.217 31.7306 113.266 31.9048 113.332 32.0731C113.434 32.3636 113.555 32.7081 113.697 33.1066L114.075 34.1266C114.132 34.305 114.206 34.4771 114.298 34.64C114.323 34.6696 114.354 34.693 114.389 34.7083C114.424 34.7235 114.463 34.7302 114.501 34.7278H114.636V34.8832H113.238V34.7008H113.488C113.555 34.7008 113.589 34.7008 113.589 34.6535C113.593 34.6267 113.593 34.5993 113.589 34.5725L113.258 33.6132H112.089V33.62ZM112.724 32.0866C112.63 32.2802 112.553 32.4536 112.495 32.6067L112.177 33.4038H113.177L112.724 32.0866Z" fill="currentColor"/>
</svg>
