<svg width="55" height="35" viewBox="0 0 55 35" fill="none" xmlns="http://www.w3.org/2000/svg">
<path fill-rule="evenodd" clip-rule="evenodd" d="M10.3924 0.392465C21.7975 0.392194 33.2029 0.392465 44.6081 0.392194C44.6076 11.7977 44.6084 23.2031 44.6076 34.6086C33.2026 34.6086 21.7974 34.6086 10.3922 34.6086C10.3922 23.2031 10.3921 11.7979 10.3924 0.392465Z" fill="currentColor"/>
<path fill-rule="evenodd" clip-rule="evenodd" d="M45 35H10V0H45V35ZM10.3924 0.392465C10.3921 11.7979 10.3922 23.2031 10.3922 34.6086C21.7974 34.6086 33.2026 34.6086 44.6076 34.6086C44.6084 23.2031 44.6076 11.7977 44.6081 0.392194C33.2029 0.392465 21.7975 0.392194 10.3924 0.392465ZM17.347 6.19396C18.3735 6.19492 19.4 6.19157 20.4264 6.19563C20.4239 8.4315 20.426 10.6674 20.4254 12.9032C20.4265 13.2406 20.4169 13.5795 20.4613 13.915C20.5032 14.2429 20.589 14.5721 20.7648 14.8552C20.9282 15.1207 21.1812 15.3264 21.4697 15.442C21.8422 15.5916 22.2504 15.6227 22.648 15.6097C23.0393 15.5944 23.4428 15.5219 23.7775 15.3077C24.0446 15.1396 24.2439 14.8777 24.3598 14.5863C24.5318 14.159 24.564 13.6913 24.5623 13.2353C24.5623 10.8882 24.5619 8.54106 24.5624 6.19373C25.5891 6.19516 26.6159 6.19157 27.6426 6.19563C27.6407 8.50334 27.6426 10.8115 27.6416 13.1194C27.6404 13.9095 27.5639 14.7092 27.3124 15.4621C27.1212 16.0358 26.8159 16.5783 26.3845 17.0057C25.9422 17.4503 25.3787 17.7597 24.7848 17.9502C24.0485 18.1864 23.2707 18.2612 22.5007 18.2631C21.7195 18.2621 20.93 18.1865 20.1841 17.9439C19.6181 17.7593 19.0803 17.4677 18.6507 17.0517C18.3376 16.7519 18.0845 16.3921 17.8955 16.0025C17.5627 15.3161 17.4194 14.5539 17.3681 13.7974C17.3382 13.3727 17.3488 12.9469 17.3468 12.5216C17.347 10.4122 17.3469 8.30308 17.347 6.19396ZM29.278 6.1954C31.1416 6.19182 33.0054 6.19492 34.8689 6.19373C35.6204 6.19253 36.3822 6.30353 37.0763 6.60094C37.6355 6.83988 38.1437 7.21438 38.4999 7.71111C38.8566 8.20115 39.0544 8.79312 39.1248 9.39201C39.1792 9.85961 39.1677 10.3337 39.114 10.8008C39.0362 11.4461 38.842 12.0913 38.4615 12.6248C38.1287 13.098 37.651 13.4595 37.1202 13.6834C36.4266 13.9784 35.6651 14.0708 34.9169 14.0743C34.0642 14.0742 33.2113 14.0738 32.3585 14.0744C32.358 15.3877 32.3584 16.7009 32.3584 18.0141C31.3317 18.0149 30.3052 18.0141 29.2787 18.0145C29.2786 14.0748 29.2797 10.1353 29.278 6.1954ZM32.3582 11.6897C32.9795 11.6904 33.6009 11.6899 34.2224 11.6901C34.5502 11.6947 34.8854 11.6849 35.1986 11.5771C35.4534 11.4925 35.6894 11.3358 35.8414 11.1116C36.017 10.8566 36.0783 10.5406 36.0802 10.2358C36.0821 9.96871 36.0435 9.69683 35.9311 9.45264C35.824 9.21705 35.6412 9.01726 35.416 8.89003C35.1204 8.72057 34.774 8.66328 34.4371 8.66137C33.7445 8.65993 33.0517 8.66208 32.3592 8.66017C32.357 9.66985 32.359 10.6798 32.3582 11.6897ZM14.0388 20.2206C14.3296 20.2199 14.6205 20.2213 14.9114 20.2199C14.9133 20.8838 14.911 21.5479 14.9126 22.2119C14.9154 22.3782 14.9363 22.5616 15.0538 22.6895C15.1663 22.8102 15.3408 22.8374 15.498 22.8374C15.6543 22.8371 15.8273 22.8069 15.9369 22.6853C16.0555 22.553 16.0729 22.365 16.0748 22.1952C16.0753 21.5369 16.0753 20.8787 16.0748 20.2204C16.3621 20.2204 16.6494 20.2207 16.9368 20.2203C16.9375 20.879 16.9372 21.5379 16.9369 22.1967C16.9316 22.5012 16.8808 22.8187 16.7086 23.0766C16.5742 23.2803 16.3604 23.4219 16.129 23.4923C15.8612 23.5755 15.5768 23.5876 15.2987 23.5712C15.0088 23.5513 14.7096 23.4806 14.4773 23.2972C14.2851 23.1477 14.1612 22.9249 14.1018 22.6913C14.0521 22.503 14.0387 22.3072 14.0389 22.1132C14.0386 21.4823 14.0388 20.8515 14.0388 20.2206ZM20.4038 20.8255C20.4032 20.6238 20.4034 20.422 20.4038 20.2204C20.6646 20.22 20.9255 20.2219 21.1865 20.2193C21.1902 20.421 21.1868 20.6229 21.1881 20.8249C20.9267 20.8259 20.6653 20.8244 20.4038 20.8255ZM31.5794 20.8255C31.5787 20.6238 31.5789 20.422 31.5794 20.2203C31.8406 20.221 32.102 20.2202 32.3635 20.2208C32.3633 20.4222 32.3638 20.6236 32.3633 20.8252C32.1019 20.8253 31.8406 20.8245 31.5794 20.8255ZM34.4974 20.2204C34.7618 20.2203 35.0264 20.2211 35.291 20.22C35.2934 21.313 35.2912 22.4063 35.2922 23.4995C35.0419 23.499 34.7918 23.4995 34.5416 23.4994C34.5361 23.4313 34.5549 23.3589 34.5287 23.2945C34.5425 23.2736 34.5463 23.2499 34.5404 23.2236C34.4342 23.3639 34.2944 23.4846 34.1233 23.5358C33.8193 23.6286 33.4681 23.5625 33.2214 23.3607C32.9996 23.1794 32.8744 22.905 32.8206 22.6286C32.757 22.2923 32.7738 21.9314 32.9211 21.6183C33.0211 21.4042 33.1916 21.2175 33.412 21.1252C33.6807 21.0134 34.0031 21.021 34.2581 21.166C34.3495 21.219 34.4278 21.2914 34.4972 21.3707C34.4972 20.9872 34.4968 20.6038 34.4974 20.2204ZM33.9649 21.6607C33.8395 21.6794 33.7299 21.7644 33.6724 21.8765C33.5785 22.0546 33.5691 22.2646 33.5928 22.4611C33.614 22.6143 33.6643 22.7758 33.785 22.8805C33.8986 22.978 34.0625 22.9905 34.2026 22.9534C34.3121 22.9241 34.4025 22.8411 34.45 22.7392C34.5251 22.5814 34.5349 22.4018 34.5273 22.2298C34.5163 22.0639 34.4769 21.8855 34.3548 21.7642C34.2541 21.6637 34.1012 21.6382 33.9649 21.6607ZM40.1464 20.2204C40.4114 20.2204 40.6765 20.2208 40.9416 20.2203C40.942 21.3134 40.942 22.4063 40.9416 23.4993C40.691 23.4989 40.4405 23.5003 40.19 23.4985C40.19 23.4074 40.1917 23.3163 40.1891 23.2252C40.0924 23.3481 39.9743 23.4594 39.8262 23.5161C39.5578 23.6194 39.2438 23.5895 38.9933 23.4511C38.738 23.309 38.576 23.0425 38.5009 22.7664C38.4271 22.4907 38.4121 22.1967 38.4703 21.9166C38.5261 21.6541 38.6574 21.398 38.8745 21.2337C39.1417 21.0304 39.5194 20.9948 39.8264 21.1247C39.9538 21.1789 40.0574 21.2743 40.1452 21.3796C40.1473 20.9932 40.1447 20.6069 40.1464 20.2204ZM39.6115 21.6609C39.474 21.6816 39.3576 21.7801 39.3001 21.9045C39.2142 22.0806 39.2052 22.2847 39.2331 22.476C39.2572 22.6257 39.3123 22.7811 39.432 22.8813C39.5463 22.9771 39.71 22.991 39.8498 22.9531C39.9662 22.9207 40.0578 22.8277 40.1053 22.7185C40.1771 22.555 40.1869 22.3713 40.1738 22.1954C40.159 22.0359 40.1151 21.8654 39.9927 21.7538C39.8916 21.6602 39.7434 21.6395 39.6115 21.6609ZM18.2341 21.4503C18.3801 21.2136 18.6532 21.0765 18.9249 21.0518C19.1071 21.0412 19.2959 21.0619 19.4625 21.1406C19.6005 21.2052 19.7123 21.3215 19.775 21.4603C19.852 21.6272 19.8672 21.8144 19.8674 21.9961C19.8675 22.4975 19.8679 22.9989 19.8673 23.5005C19.6025 23.5005 19.3378 23.5 19.0732 23.5006C19.0699 23.0382 19.0734 22.5757 19.0717 22.1132C19.0683 21.992 19.0522 21.8513 18.9504 21.7707C18.8482 21.6953 18.7111 21.688 18.5898 21.7064C18.466 21.7264 18.3605 21.8159 18.3116 21.9303C18.24 22.0801 18.2605 22.2502 18.2575 22.411C18.2574 22.7739 18.258 23.1371 18.2572 23.5C17.9916 23.4998 17.7259 23.5019 17.4603 23.499C17.464 22.7042 17.4603 21.9096 17.462 21.1149C17.7196 21.1152 17.9772 21.115 18.235 21.115C18.234 21.2267 18.2358 21.3385 18.2342 21.4503L18.2341 21.4503ZM24.3985 21.4765C24.6229 21.2272 24.9482 21.0775 25.2812 21.0531C25.5724 21.0318 25.8775 21.0879 26.1219 21.2541C26.3658 21.4172 26.53 21.6809 26.6024 21.9625C26.6452 22.1384 26.6717 22.3231 26.648 22.5037C26.0583 22.5033 25.4688 22.5033 24.879 22.5037C24.885 22.6488 24.93 22.8001 25.0378 22.9027C25.163 23.0215 25.3479 23.0582 25.5146 23.0321C25.6636 23.0118 25.811 22.9259 25.8731 22.7841C26.1198 22.7809 26.3666 22.7834 26.6135 22.7829C26.5544 23.0118 26.4116 23.2176 26.2154 23.3501C25.9818 23.5103 25.6944 23.577 25.4141 23.5769C25.3088 23.5585 25.201 23.5631 25.0962 23.5416C24.8106 23.4939 24.5331 23.3565 24.3497 23.1283C24.156 22.8921 24.0783 22.5795 24.0843 22.2785C24.0875 21.9847 24.1999 21.6932 24.3985 21.4765ZM25.082 21.6832C24.9661 21.7775 24.9042 21.9221 24.8787 22.0664C25.2068 22.0664 25.535 22.0662 25.863 22.0665C25.8482 21.9153 25.7808 21.765 25.6598 21.6698C25.4964 21.5351 25.2414 21.5497 25.082 21.6832ZM29.2863 21.183C29.5294 21.0722 29.8019 21.0434 30.0664 21.05C30.2645 21.0566 30.4655 21.0838 30.6491 21.1623C30.785 21.2203 30.9103 21.3124 30.9891 21.4394C31.062 21.5527 31.0928 21.6877 31.0987 21.8211C30.8562 21.8214 30.6136 21.8204 30.3711 21.8215C30.3671 21.7576 30.3564 21.6865 30.3039 21.6435C30.191 21.5532 30.0368 21.5403 29.8984 21.56C29.8342 21.5693 29.7664 21.5862 29.7183 21.6324C29.6635 21.6842 29.6661 21.7791 29.7184 21.832C29.7785 21.8957 29.8646 21.9247 29.946 21.9507C30.1676 22.0145 30.398 22.037 30.6222 22.089C30.7576 22.1225 30.8888 22.1836 30.9907 22.2804C31.0961 22.3792 31.1651 22.5153 31.1838 22.6585C31.2063 22.8752 31.1379 23.1049 30.9813 23.26C30.776 23.4647 30.481 23.5452 30.1997 23.57C29.922 23.5899 29.6351 23.5715 29.3735 23.4697C29.2141 23.4064 29.0669 23.3029 28.9719 23.1581C28.8848 23.0277 28.846 22.8712 28.8368 22.7162C29.0906 22.7147 29.3444 22.7163 29.5982 22.7153C29.5992 22.8093 29.6302 22.9096 29.7091 22.9671C29.8071 23.0496 29.9416 23.0675 30.0656 23.0602C30.1609 23.0532 30.2619 23.0279 30.3331 22.9602C30.4045 22.8927 30.4137 22.7669 30.3454 22.6941C30.2898 22.636 30.2103 22.6102 30.1346 22.5903C29.9556 22.5477 29.7755 22.5099 29.5957 22.4715C29.4248 22.4314 29.2493 22.3839 29.1066 22.2771C29.0018 22.1997 28.9286 22.0829 28.9014 21.956C28.8684 21.7985 28.8745 21.6264 28.9509 21.482C29.0219 21.3456 29.1486 21.2463 29.2863 21.183ZM36.5397 21.0863C36.7795 21.0406 37.0262 21.0392 37.2679 21.0679C37.4382 21.0891 37.6107 21.1311 37.756 21.2261C37.8684 21.2981 37.9569 21.4066 38.0029 21.5322C38.048 21.6483 38.0576 21.7744 38.0569 21.8979C38.0566 22.2234 38.0569 22.549 38.0569 22.8747C38.0569 23.085 38.053 23.3059 38.1454 23.5005C37.8803 23.5005 37.615 23.4998 37.3497 23.5008C37.3165 23.4309 37.3063 23.3538 37.3046 23.2774C37.1051 23.4808 36.8162 23.5653 36.5383 23.5772C36.3281 23.5825 36.106 23.5421 35.9356 23.4117C35.7991 23.3099 35.714 23.1489 35.692 22.9814C35.6705 22.8179 35.6839 22.6432 35.7648 22.4965C35.8345 22.3697 35.9557 22.2792 36.0869 22.2231C36.3763 22.1012 36.695 22.0906 37.0007 22.0356C37.077 22.0195 37.1605 22.017 37.2275 21.973C37.2927 21.9276 37.3015 21.837 37.2886 21.7649C37.2679 21.6688 37.177 21.6089 37.0892 21.5804C36.9563 21.5385 36.8026 21.5383 36.6793 21.6084C36.5905 21.6592 36.5404 21.7563 36.5225 21.8544C36.2758 21.8544 36.0296 21.854 35.7832 21.8545C35.7884 21.6676 35.8516 21.4772 35.9864 21.3438C36.132 21.1933 36.3383 21.1234 36.5397 21.0863ZM36.7888 22.5197C36.6867 22.5464 36.5731 22.583 36.5144 22.6777C36.4514 22.7862 36.4686 22.9469 36.575 23.0226C36.6705 23.0905 36.7938 23.0882 36.9057 23.0818C37.0245 23.0726 37.1424 23.0117 37.2018 22.9057C37.2889 22.7509 37.2867 22.5669 37.2841 22.3947C37.13 22.4747 36.9515 22.4677 36.7888 22.5197ZM28.0307 21.2489C28.2226 21.0854 28.4952 21.04 28.7376 21.0926C28.7376 21.3317 28.7381 21.5711 28.7375 21.8106C28.5342 21.7359 28.2939 21.7261 28.1027 21.8386C27.9376 21.9338 27.8449 22.1248 27.8439 22.312C27.8432 22.7081 27.8439 23.1041 27.8436 23.5001C27.5782 23.5005 27.313 23.5001 27.0476 23.5003C27.0479 22.7052 27.0477 21.91 27.0477 21.1149C27.3053 21.1154 27.5631 21.115 27.8209 21.115C27.822 21.259 27.8181 21.4029 27.823 21.5469C27.8745 21.4367 27.9345 21.3268 28.0307 21.2489ZM20.4035 23.4992C20.4042 22.7043 20.402 21.9093 20.4045 21.1144C20.6649 21.1149 20.9253 21.1171 21.1858 21.1133C21.1909 21.9085 21.1868 22.7039 21.188 23.4993C20.9264 23.4992 20.6649 23.4994 20.4035 23.4992ZM21.4432 21.1151C21.7192 21.1149 21.9952 21.1155 22.2714 21.1146C22.4199 21.6415 22.5625 22.1701 22.7106 22.6971C22.7489 22.6208 22.76 22.533 22.7873 22.4523C22.9143 22.0066 23.0398 21.5605 23.1674 21.1151C23.4353 21.1139 23.7032 21.1176 23.9711 21.1131C23.8788 21.4096 23.7731 21.7021 23.6757 21.9973C23.507 22.4977 23.3365 22.9978 23.1692 23.4987C22.8616 23.499 22.5538 23.5013 22.2464 23.4975C21.9817 22.7024 21.7105 21.9093 21.4432 21.1151ZM31.579 23.499C31.5797 22.7041 31.578 21.9092 31.5799 21.1144C31.8409 21.1161 32.102 21.1148 32.3633 21.1151C32.3636 21.9099 32.3636 22.7046 32.3633 23.4994C32.1019 23.499 31.8405 23.4998 31.579 23.499ZM16.1848 25.4138C16.4504 25.4105 16.7161 25.4133 16.9818 25.4123C16.9813 26.5056 16.9817 27.5988 16.9817 28.692C16.7282 28.692 16.4747 28.6919 16.2214 28.692C16.2207 28.5988 16.2209 28.5055 16.2213 28.4124C16.1191 28.5504 15.9771 28.6607 15.8132 28.7145C15.6408 28.7715 15.4531 28.7669 15.2776 28.7263C15.043 28.6732 14.8359 28.5216 14.7062 28.32C14.5259 28.0439 14.4666 27.7046 14.4764 27.3793C14.4891 27.0616 14.5906 26.7328 14.8201 26.5041C15.0006 26.3217 15.2605 26.2331 15.5145 26.2404C15.7016 26.2317 15.8925 26.2896 16.0363 26.4113C16.0931 26.4567 16.137 26.5152 16.185 26.5692C16.1865 26.1841 16.1868 25.7989 16.1849 25.4138H16.1848ZM15.6363 26.8438C15.5359 26.8635 15.4462 26.9246 15.3871 27.0074C15.3 27.1299 15.2667 27.2824 15.2604 27.4303C15.2556 27.6005 15.28 27.7764 15.3616 27.9278C15.4169 28.0313 15.5113 28.1164 15.626 28.1474C15.7598 28.1835 15.9148 28.1641 16.0234 28.0734C16.1051 28.0053 16.1533 27.9059 16.1816 27.8053C16.2227 27.6561 16.2283 27.4986 16.2114 27.3454C16.1924 27.1913 16.1407 27.0295 16.0192 26.9255C15.9153 26.8357 15.7672 26.8176 15.6363 26.8438ZM21.7911 25.4122C22.2207 25.4126 22.6504 25.4122 23.08 25.4123C23.3181 25.4134 23.56 25.4007 23.7928 25.4612C24.0476 25.5208 24.2939 25.6632 24.4312 25.892C24.5908 26.1527 24.5989 26.4755 24.5509 26.7692C24.5095 27.0198 24.3787 27.2638 24.1606 27.4023C23.8863 27.5815 23.5459 27.6006 23.2278 27.5948C23.0396 27.595 22.8514 27.5944 22.6633 27.595C22.664 27.9607 22.664 28.3265 22.6632 28.6922C22.3724 28.6917 22.0817 28.6922 21.791 28.692C21.7911 27.5988 21.791 26.5056 21.7911 25.4122ZM22.6624 26.0971C22.6651 26.3757 22.6631 26.6545 22.6635 26.9333C22.8737 26.9323 23.0838 26.9354 23.2941 26.9316C23.4368 26.9275 23.5956 26.8693 23.6593 26.7318C23.7202 26.595 23.7192 26.4277 23.6514 26.2939C23.5807 26.1585 23.4216 26.1002 23.2767 26.0967C23.0719 26.0953 22.8671 26.0944 22.6624 26.0971ZM27.684 25.4122C27.9497 25.4128 28.2153 25.4118 28.481 25.4126C28.4809 26.5059 28.481 27.5989 28.481 28.6922C28.2153 28.6918 27.9496 28.692 27.6838 28.692C27.6845 27.5987 27.6842 26.5055 27.684 25.4121L27.684 25.4122ZM18.3588 26.2768C18.6263 26.217 18.9121 26.2298 19.1714 26.3205C19.4177 26.4065 19.6292 26.5847 19.757 26.8123C19.9078 27.075 19.9563 27.3846 19.9446 27.6843C19.3524 27.6829 18.7601 27.6849 18.1679 27.6833C18.1788 27.8418 18.2325 28.0074 18.3565 28.1136C18.4886 28.2266 18.6763 28.2529 18.8426 28.2171C18.9812 28.1881 19.1048 28.0937 19.1626 27.9635C19.409 27.9627 19.6552 27.9631 19.9015 27.9634C19.8442 28.1865 19.711 28.3904 19.5217 28.5231C19.2547 28.7134 18.9149 28.7717 18.5931 28.7543C18.2797 28.7355 17.96 28.6303 17.732 28.4071C17.5129 28.1979 17.4017 27.8958 17.3865 27.5972C17.3659 27.3164 17.4321 27.0264 17.5922 26.793C17.7687 26.5301 18.0514 26.3464 18.3588 26.2768ZM18.3401 26.897C18.2421 26.9877 18.1901 27.117 18.1671 27.2465C18.4951 27.2473 18.8229 27.2468 19.1508 27.2468C19.1437 27.1115 19.0904 26.976 18.9886 26.8846C18.8124 26.7206 18.5116 26.7322 18.3401 26.897ZM25.728 26.2569C25.9087 26.2347 26.0916 26.2372 26.2731 26.2487C26.4838 26.2652 26.703 26.304 26.8808 26.426C27.0093 26.5124 27.0992 26.6502 27.1343 26.8006C27.1683 26.9304 27.1596 27.0656 27.1606 27.1986C27.161 27.513 27.1602 27.8275 27.161 28.1421C27.162 28.3288 27.1744 28.5231 27.2613 28.6922C26.9962 28.692 26.7312 28.6915 26.4661 28.6925C26.4378 28.6221 26.4212 28.5479 26.411 28.4732C26.3065 28.5625 26.1896 28.6392 26.0582 28.6824C25.8562 28.7478 25.6393 28.7763 25.4284 28.743C25.2587 28.7175 25.0899 28.647 24.9724 28.5188C24.865 28.404 24.81 28.2476 24.8017 28.0921C24.7919 27.9309 24.8174 27.7598 24.9136 27.6261C25.004 27.4984 25.1464 27.4192 25.2923 27.3712C25.5679 27.2799 25.861 27.2743 26.1446 27.2225C26.2141 27.211 26.2865 27.1951 26.3439 27.1519C26.4087 27.1014 26.4208 27.0078 26.401 26.9329C26.3704 26.838 26.2731 26.788 26.183 26.764C26.0504 26.7313 25.9004 26.733 25.7802 26.8042C25.6971 26.8534 25.6505 26.9437 25.627 27.0346C25.3808 27.0346 25.1345 27.0346 24.8881 27.0346C24.9017 26.8471 24.9674 26.6573 25.1037 26.5234C25.2669 26.3561 25.502 26.2864 25.728 26.2569ZM26.0285 27.6771C25.9032 27.6946 25.7714 27.7215 25.6725 27.8062C25.5545 27.9047 25.5514 28.1153 25.6779 28.2082C25.7769 28.2799 25.909 28.2887 26.0254 28.2622C26.1431 28.2509 26.2618 28.1939 26.3206 28.0871C26.4068 27.9319 26.404 27.7469 26.4 27.5746C26.284 27.6331 26.1537 27.6491 26.0285 27.6771ZM29.8827 26.2761C30.1338 26.22 30.4002 26.2294 30.6464 26.3045C30.9035 26.3832 31.1292 26.5592 31.2656 26.7913C31.426 27.058 31.4767 27.3765 31.4663 27.6841C30.8736 27.6838 30.2808 27.6839 29.6881 27.6839C29.6997 27.8356 29.7484 27.9925 29.8615 28.0997C29.9883 28.2202 30.1774 28.2519 30.3451 28.2211C30.4906 28.1954 30.6236 28.0998 30.6837 27.9633C30.93 27.9631 31.1766 27.9624 31.4231 27.9638C31.3628 28.1984 31.2173 28.411 31.0135 28.5432C30.7363 28.7264 30.3909 28.7771 30.065 28.7504C29.7532 28.7238 29.438 28.6067 29.2209 28.3744C29.0186 28.1622 28.9194 27.8689 28.9075 27.5794C28.8909 27.3117 28.9539 27.0367 29.1017 26.8114C29.2774 26.5381 29.5673 26.3469 29.8827 26.2761ZM29.8716 26.8874C29.7676 26.9788 29.7105 27.1123 29.6883 27.2468C30.0163 27.2468 30.3444 27.2471 30.6724 27.2468C30.6653 27.1118 30.6116 26.9768 30.5108 26.885C30.3383 26.7234 30.0449 26.7313 29.8716 26.8874ZM34.7666 26.4171C34.9071 26.305 35.0851 26.2405 35.2652 26.2405C35.4413 26.2397 35.6266 26.269 35.7736 26.3732C35.8619 26.4337 35.9282 26.5218 35.9743 26.6179C36.0368 26.5367 36.1067 26.4602 36.1904 26.4002C36.3329 26.2937 36.5113 26.2448 36.6876 26.2412C36.8761 26.2367 37.0746 26.2632 37.2359 26.3677C37.3631 26.4477 37.4528 26.5771 37.5017 26.7177C37.5892 26.9674 37.573 27.2362 37.5747 27.4968C37.574 27.8953 37.5759 28.2938 37.5737 28.6924C37.3127 28.6915 37.0515 28.6922 36.7905 28.692C36.7897 28.2826 36.7903 27.8729 36.7903 27.4636C36.7881 27.3328 36.8031 27.1955 36.7483 27.0726C36.7077 26.9733 36.6149 26.8953 36.5073 26.8832C36.4142 26.872 36.3129 26.8834 36.2353 26.9392C36.1542 26.9988 36.122 27.1005 36.1058 27.1956C36.0833 27.3336 36.0876 27.4739 36.0867 27.613C36.0874 27.9725 36.0855 28.3319 36.0876 28.6914C35.8218 28.693 35.5565 28.6915 35.291 28.692C35.2905 28.2991 35.2907 27.9062 35.2907 27.5133C35.2879 27.3553 35.3062 27.1895 35.2428 27.0401C35.2099 26.9599 35.1368 26.896 35.05 26.8841C34.9546 26.8716 34.8515 26.8819 34.7687 26.9334C34.6873 26.9854 34.6458 27.0785 34.6232 27.1688C34.5836 27.3298 34.5886 27.4969 34.5883 27.6616C34.5886 28.005 34.5879 28.3485 34.5886 28.6919C34.3233 28.6923 34.0578 28.6915 33.7927 28.6923C33.792 27.8971 33.7928 27.102 33.7923 26.3069C34.0499 26.3063 34.3076 26.3073 34.5652 26.3065C34.5667 26.4163 34.5638 26.5261 34.5667 26.6361C34.6287 26.5592 34.6859 26.4766 34.7666 26.4171ZM39.0653 26.2506C39.3435 26.2187 39.6341 26.2611 39.8825 26.3936C40.1414 26.5297 40.3449 26.7666 40.441 27.0431C40.6047 27.503 40.505 28.0619 40.1485 28.406C39.809 28.7412 39.2791 28.8332 38.8306 28.6978C38.5569 28.616 38.3131 28.4351 38.1611 28.1928C37.877 27.7419 37.8996 27.1092 38.2372 26.6921C38.4386 26.44 38.7468 26.2851 39.0653 26.2506ZM39.1737 26.8375C39.0496 26.8511 38.9367 26.9264 38.8728 27.033C38.7762 27.1907 38.7533 27.3821 38.7621 27.5637C38.7721 27.7278 38.8103 27.9006 38.9205 28.0281C39.0601 28.1903 39.3252 28.2067 39.4938 28.0816C39.5886 28.0119 39.647 27.9036 39.6799 27.7927C39.7255 27.6357 39.7305 27.4684 39.7059 27.3074C39.6821 27.1686 39.6308 27.0258 39.522 26.9311C39.4278 26.8483 39.2953 26.8213 39.1737 26.8375ZM32.856 26.4266C33.0506 26.2675 33.3175 26.2419 33.5585 26.2725C33.5589 26.5119 33.5587 26.7512 33.5585 26.9906C33.4049 26.9428 33.2375 26.9303 33.0802 26.9664C32.9249 27.0015 32.7845 27.1042 32.7138 27.2481C32.6691 27.3343 32.6512 27.4322 32.6532 27.5287C32.6531 27.9165 32.6536 28.3043 32.6529 28.692C32.3914 28.692 32.13 28.6919 31.8684 28.6922C31.8693 27.8971 31.8691 27.1021 31.8686 26.3072C32.1224 26.3062 32.3764 26.3072 32.6303 26.3068C32.6316 26.447 32.6278 26.5871 32.6323 26.7272C32.6893 26.6156 32.7539 26.5036 32.856 26.4266Z" fill="white"/>
</svg>
