<svg width="97" height="35" viewBox="0 0 97 35" fill="none" xmlns="http://www.w3.org/2000/svg">
<path d="M65.3885 19.4265C65.3285 20.05 65.2335 20.7341 65.0831 21.4101C64.9134 22.2045 64.4388 23.6446 64.0937 24.323C63.5813 25.3285 63.0405 26.3749 61.7835 27.1251C60.4882 27.8947 59.5111 28.2178 57.7587 28.2178C57.2231 28.2178 56.7423 28.1256 56.4213 28.0226L56.4189 6.93132C56.7385 6.82566 57.1667 6.78903 57.7042 6.78903C64.3503 6.78903 65.3799 11.7262 65.4858 17.0706C65.4943 17.4857 65.4909 18.3716 65.3875 19.4265H65.3885ZM69.913 17.0706C69.9091 6.77603 63.915 5.05955 56.2564 5.00731L49.749 5.01486V5.44859C52.2767 5.65588 51.9101 6.73559 51.9368 8.7428V22.7188H51.9689V29.9972L56.2564 30C62.5266 29.9567 67.5985 28.7936 69.263 22.7259H69.2715C69.7031 21.1848 69.913 19.3199 69.913 17.0706Z" fill="currentColor"/>
<path d="M80.5003 27.8559C77.8558 27.8559 77.5353 26.7916 77.5353 24.7522L77.4729 17.1241H84.2069V17.0361C84.213 17.0361 84.2169 17.0361 84.2169 17.0361V15.6534C84.2169 15.6534 84.213 15.6508 84.2069 15.648V15.0944H77.4942L77.4729 15.0894L77.4782 9.16259C77.4782 7.26623 77.6574 6.86772 79.7213 6.86772H82.0816C85.091 6.86772 86.3301 6.86772 86.3301 6.86772L86.339 5.00541H70.8529V5.44339C73.3777 5.6495 73.0114 6.72827 73.0402 8.73287V29.9882H86.339V27.8559C86.339 27.8559 85.4385 27.8559 82.9746 27.8559L80.5003 27.8559Z" fill="currentColor"/>
<path d="M36.236 17.1352L38.6829 10.3212L41.2243 17.1352H36.236ZM40.4958 5.0073L35.4017 5.00536V5.44547C37.1579 5.59675 37.4881 6.368 37.2968 7.36735C37.2628 7.64366 36.9886 8.43595 36.6927 9.23203C36.3216 10.2288 28.9957 29.9896 28.9957 29.9896H31.8028L35.8146 18.9095H41.7939L45.7464 29.9896H49.8844L40.4958 5.0073Z" fill="currentColor"/>
<path d="M28.3861 22.598H28.382V5H25.3887L25.3931 22.598C25.3931 22.598 25.3996 23.1622 25.3567 23.7862C25.2945 24.7461 25.1643 25.9974 24.3847 26.9268C23.7891 27.6392 22.8687 27.9489 22.1913 28.0678C21.5408 28.1878 20.281 28.1344 19.8016 28.0472C19.0954 27.9167 18.2426 27.6064 17.6096 26.8512C16.8317 25.9208 16.6528 24.5759 16.606 23.6402C16.5755 23.0131 16.596 22.5697 16.596 22.5697H16.5931V5.00732C16.5638 5.00732 16.5364 5.00732 16.506 5.00732L10 5.01487V5.4486C12.5258 5.65589 12.159 6.7356 12.1883 8.74281V22.5697C12.1883 22.5697 12.1948 23.1081 12.2866 23.8479C12.5386 25.8842 13.5147 29.9305 20.93 29.9655C23.3792 29.9149 25.3576 29.4091 26.4732 28.2672C28.4166 26.5949 28.3871 22.598 28.3871 22.598L28.3861 22.598Z" fill="currentColor"/>
</svg>
