<svg width="99" height="35" viewBox="0 0 99 35" fill="none" xmlns="http://www.w3.org/2000/svg">
<path fill-rule="evenodd" clip-rule="evenodd" d="M43.3026 29.3803C43.2452 29.3228 43.2021 23.8139 43.2021 17.1398V5L50.2282 5.05766C57.6666 5.11507 57.7396 5.11563 59.5051 5.8774C60.4962 6.30891 61.6597 7.48838 62.0044 8.40893C63.1104 11.3432 62.3635 14.2343 60.1371 15.6727L59.4333 16.133L60.2664 16.5357C62.1624 17.4563 63.2971 19.0816 63.6131 21.3542C63.7568 22.3323 63.7424 22.6919 63.5413 23.7276C63.2397 25.2091 62.78 26.0865 61.7602 27.0933C60.8266 28.0139 59.7493 28.618 58.2123 29.0495C57.1063 29.366 56.8334 29.3803 50.2404 29.4379C46.477 29.4666 43.3601 29.4379 43.3026 29.3803ZM55.9572 24.9933C57.5803 24.6625 58.4852 23.1234 58.1405 21.2967C57.8963 19.9878 57.5229 19.4844 56.4168 18.9809C55.8279 18.7076 55.4832 18.6789 52.2226 18.6789H48.6604V21.8864C48.6604 23.6556 48.6891 25.1372 48.7178 25.1659C48.8471 25.2954 55.239 25.1515 55.9572 24.9933ZM55.2103 14.7234C55.4688 14.6802 55.9285 14.4501 56.2445 14.2199C56.7041 13.8891 56.8909 13.6302 57.0776 13.0261C57.5516 11.5302 57.0632 10.2788 55.7992 9.68908C55.081 9.34387 54.9374 9.32949 51.8635 9.32949H48.6604V12.0336C48.6604 13.5295 48.6891 14.7809 48.7178 14.8097C48.804 14.896 54.6645 14.8097 55.2103 14.7234Z" fill="currentColor"/>
<path d="M20.5072 27.3091C21.9866 28.805 23.4374 29.481 26.0804 29.8981C27.488 30.1139 30.6193 29.9701 31.9839 29.6249C34.986 28.8338 37.1693 26.9926 38.0455 24.4899C38.7206 22.5625 38.7493 22.0303 38.7493 13.2706V5.01438L36.0632 5.04315L33.3628 5.0863L33.291 13.7165C33.2192 20.5775 33.1617 22.4618 33.0037 22.8933C32.7165 23.6988 31.8259 24.6337 31.0359 24.9789C29.6713 25.5687 26.8416 25.5255 25.6063 24.907C24.9887 24.5906 24.2561 23.8714 23.9545 23.2673C23.4518 22.2892 23.3799 21.0953 23.3799 12.9686V5.01438H17.9073L17.9504 13.7597L17.951 13.8552C18.0079 22.3336 18.009 22.5089 18.3239 23.5549C18.8697 25.3098 19.3437 26.144 20.5072 27.3091Z" fill="currentColor"/>
<path d="M10.237 27.7837C10.553 28.4598 11.4579 29.3084 12.1187 29.5529C12.7794 29.7975 14.1296 29.7255 14.7329 29.4091C15.7671 28.8625 16.4853 27.6543 16.4853 26.4461C16.4853 23.6412 13.2247 22.1597 11.1276 24.0008C10.7685 24.3173 10.3806 24.8495 10.237 25.1803C9.921 25.957 9.921 27.1365 10.237 27.7837Z" fill="currentColor"/>
<path fill-rule="evenodd" clip-rule="evenodd" d="M67.0605 22.8501C65.3081 27.4673 64.6042 29.3372 64.6042 29.4091C64.6042 29.4379 65.8395 29.4523 67.3477 29.4379L70.1056 29.3947L70.7233 27.6687C70.8121 27.4134 70.9082 27.1394 71.0046 26.8646C71.2667 26.1174 71.5309 25.3642 71.6569 24.9645L71.9873 24.0008L76.4832 24.0296L80.9934 24.0728L81.8696 26.6618C82.358 28.0858 82.8176 29.294 82.9038 29.3516C83.0762 29.481 88.4483 29.5098 88.4483 29.3947C88.4483 29.3516 88.2615 28.8194 88.0317 28.2009C87.9324 27.9398 87.5622 26.9483 87.0255 25.5107C86.3201 23.6211 85.3269 20.9609 84.2827 18.1754C82.4585 13.2706 80.6918 8.58153 80.3758 7.74728C80.1652 7.19127 79.9418 6.58416 79.778 6.13883C79.696 5.91597 79.6289 5.73363 79.5858 5.61849L79.3703 5.01438L76.5693 5.04315L73.7684 5.0863L72.9784 7.17193C72.5475 8.32263 72.0447 9.67469 71.858 10.1925C71.6713 10.7103 71.3122 11.6453 71.068 12.2781C70.8329 12.8834 70.5341 13.6753 70.0511 14.9554C69.7076 15.8656 69.271 17.0227 68.6979 18.535C68.5796 18.8444 68.3621 19.4187 68.099 20.1134C67.7871 20.9369 67.4111 21.9295 67.0605 22.8501ZM78.0057 15.4138C78.7527 17.6433 79.4134 19.585 79.4709 19.7289C79.5714 19.959 79.3703 19.9734 76.5406 19.9734C74.6446 19.9734 73.5098 19.9159 73.5098 19.8296C73.5098 19.7001 73.9264 18.4919 75.3771 14.4357C75.5637 13.9221 75.8164 13.2001 76.0048 12.6617C76.0486 12.5367 76.0889 12.4216 76.1241 12.3213C76.3108 11.7747 76.4975 11.3432 76.5406 11.3432C76.5981 11.3432 77.2588 13.1699 78.0057 15.4138Z" fill="currentColor"/>
</svg>
