<svg width="124" height="35" viewBox="0 0 124 35" fill="none" xmlns="http://www.w3.org/2000/svg">
<path d="M23.4035 0C16.1646 0.00112976 10.2536 5.83705 10.2505 13.0153C10.2535 20.1979 16.1645 26.0321 23.4034 26.0321V26.0331C30.6467 26.0321 36.5598 20.198 36.5621 13.0153C36.5599 5.83705 30.6467 0.00112976 23.4035 0ZM23.4035 25.3764C16.5247 25.3764 10.9076 19.829 10.9076 13.0164C10.9076 6.20884 16.5247 0.657519 23.4035 0.657519C30.2885 0.657519 35.9049 6.20884 35.9049 13.0164C35.9049 19.829 30.2885 25.3764 23.4035 25.3764Z" fill="currentColor"/>
<path fill-rule="evenodd" clip-rule="evenodd" d="M23.4035 4.07442C28.3219 4.07442 32.3341 8.05004 32.3341 12.9281C32.3341 17.8053 28.3219 21.7805 23.4035 21.7805C19.4397 21.7805 16.1032 19.1728 14.9061 15.6244C14.8562 15.4801 14.8887 15.3158 15.0509 15.3158C15.1486 15.3158 15.2314 15.3997 15.2314 15.5058H15.2362C16.3418 18.9352 19.5906 21.4284 23.4035 21.4284C28.1268 21.4284 31.9778 17.6103 31.9778 12.9281C31.9778 8.24415 28.1268 4.42218 23.4035 4.42218C18.6874 4.42218 14.8344 8.24415 14.8344 12.9281C14.8344 13.4346 14.8722 13.9349 14.9656 14.4216C14.9913 14.5528 14.9738 14.6758 14.8049 14.6758C14.7028 14.6758 14.6196 14.5993 14.6196 14.5033V14.4883C14.53 13.9813 14.4787 13.4608 14.4787 12.9281C14.4787 8.05004 18.4913 4.07442 23.4035 4.07442Z" fill="currentColor"/>
<path fill-rule="evenodd" clip-rule="evenodd" d="M23.4035 0.518662C30.3655 0.518662 36.0457 6.13243 36.0457 13.0163C36.0457 19.9045 30.3655 25.515 23.4035 25.515V25.0186C30.0906 25.0186 35.5472 19.6305 35.5472 13.0163C35.5472 6.40788 30.0906 1.0136 23.4035 1.0136V0.518662ZM23.4035 25.515C16.4468 25.515 10.7675 19.9045 10.7675 13.0163C10.7675 6.13232 16.4467 0.518662 23.4035 0.518662V1.0136C16.7218 1.0136 11.2718 6.40788 11.2718 13.0163C11.2718 19.6305 16.7218 25.0186 23.4035 25.0186V25.515Z" fill="currentColor"/>
<path fill-rule="evenodd" clip-rule="evenodd" d="M23.4804 6.32223C23.629 6.32223 23.7509 6.43695 23.7509 6.57683V17.034C23.7509 17.174 23.629 17.2878 23.4804 17.2878C23.3318 17.2878 23.2089 17.174 23.2089 17.034V6.57683C23.2089 6.43695 23.3317 6.32223 23.4804 6.32223Z" fill="currentColor"/>
<path fill-rule="evenodd" clip-rule="evenodd" d="M20.9382 8.76517C20.9382 8.6179 21.051 8.49547 21.1905 8.49547H25.7738C25.9137 8.49547 26.0295 8.6179 26.0295 8.76517C26.0295 8.91862 25.9137 9.03724 25.7738 9.03724H21.1905C21.051 9.03724 20.9382 8.91862 20.9382 8.76517Z" fill="currentColor"/>
<path fill-rule="evenodd" clip-rule="evenodd" d="M14.7245 14.8927H16.3292C16.4047 14.8927 16.4729 14.9605 16.4729 15.0481C16.4729 15.1338 16.4047 15.2007 16.3292 15.2007H14.7245C14.6441 15.2007 14.5804 15.1338 14.5804 15.0481C14.5804 14.9606 14.644 14.8927 14.7245 14.8927Z" fill="currentColor"/>
<path fill-rule="evenodd" clip-rule="evenodd" d="M23.9301 19.4935C24.2457 19.6435 24.4625 19.9516 24.4625 20.3119V20.3327C24.75 20.3952 24.9859 20.5773 25.1174 20.8236H25.1127C25.1252 20.8528 25.1359 20.8832 25.1359 20.9171C25.1359 21.0309 25.0463 21.1233 24.9359 21.1233C24.843 21.1233 24.767 21.059 24.74 20.9713L24.737 20.9762C24.6456 20.8024 24.4568 20.688 24.2457 20.688C23.9538 20.688 23.7137 20.9041 23.6877 21.1784H23.4935V20.6449C23.6334 20.4842 23.828 20.3699 24.0535 20.3273V20.3119C24.0535 20.0141 23.8029 19.7738 23.4935 19.7738V19.108C23.5438 19.113 23.5902 19.1211 23.6334 19.131C23.8061 19.155 23.9839 19.1773 24.1484 19.202C24.2752 19.3115 24.4113 19.3759 24.5898 19.4001C24.9577 19.4297 25.3004 19.4437 25.6649 19.3367C25.8416 19.2451 25.9573 19.0505 26.375 19.0737C26.8242 19.1003 26.8329 19.342 27.2763 19.4092C27.6065 19.3663 27.7638 19.1167 28.1147 19.1251C28.3509 19.1415 28.4235 19.3293 28.6776 19.3367C28.8517 19.3455 28.9197 19.218 29.1263 19.3022V19.4001C28.7014 19.3963 28.6268 19.587 28.4288 19.54C28.2449 19.4979 28.2622 19.4049 28.0396 19.4258C27.7294 19.5028 27.5561 19.7401 27.2085 19.7527C26.7173 19.7111 26.6587 19.4349 26.303 19.4137C26.0076 19.388 25.8968 19.7009 25.1905 19.7527C24.8764 19.7241 24.543 19.7265 24.3348 19.558C24.175 19.5224 24.0433 19.5027 23.9301 19.4935ZM23.4935 21.1784H23.1803C23.1803 20.8832 22.9349 20.6415 22.6251 20.6415C22.4005 20.6415 22.2108 20.7679 22.1187 20.95C22.0872 21.0269 22.0172 21.0768 21.932 21.0768C21.822 21.0768 21.7324 20.9839 21.7324 20.8695C21.7324 20.8312 21.7461 20.794 21.7616 20.7591C21.9096 20.4928 22.1944 20.3039 22.5278 20.2691C22.5413 19.965 22.7142 19.6968 22.9687 19.5398C22.7233 19.5954 22.4953 19.6841 22.2437 19.6725C22.0849 19.6632 21.9688 19.5775 21.8753 19.4731C21.7698 19.3579 21.6571 19.3801 21.5467 19.4731C21.4992 19.5151 21.4692 19.5868 21.4159 19.6172C21.2108 19.7263 20.9701 19.7306 20.7373 19.6261C20.6496 19.5868 20.5907 19.4977 20.5099 19.4435C20.3278 19.3292 20.1593 19.2948 19.9082 19.4511C19.76 19.5452 19.714 19.5775 19.553 19.6434C19.3423 19.7238 19.0025 19.7349 18.792 19.5775C18.5799 19.4256 18.3423 19.1165 18.0722 19.1307C17.9967 19.1307 17.9619 19.0657 18.0127 19.0327C18.2354 18.8803 18.441 18.9694 18.6312 19.0948C19.0025 19.3334 19.2517 19.3661 19.4615 19.2856C19.671 19.2105 19.8195 19.0831 19.9851 19.0367C20.1879 18.9829 20.3821 18.9694 20.5515 19.0695C20.7296 19.177 20.8985 19.3019 21.0974 19.3199C21.3008 19.3363 21.4203 19.0366 21.7659 19.0225C21.9648 19.0191 22.0041 19.1935 22.1392 19.2641C22.3004 19.3483 22.4271 19.3925 22.596 19.3363C22.6981 19.298 22.7399 19.1373 22.7399 19.0448L22.9223 19.1855C23.0114 19.1338 23.1677 19.0999 23.3536 19.0999V19.0878C23.3793 19.0907 23.4035 19.0945 23.4344 19.0999C23.4543 19.1049 23.4717 19.1049 23.4935 19.1076V19.7734C23.1852 19.7734 22.9383 20.0137 22.9383 20.3115V20.3152C23.1503 20.3825 23.3318 20.5231 23.4508 20.7009C23.4636 20.6833 23.4769 20.6658 23.4935 20.6445V21.1784Z" fill="currentColor"/>
<path fill-rule="evenodd" clip-rule="evenodd" d="M23.9247 16.9542C25.3812 16.8525 26.2525 16.2723 26.3754 15.3566V12.6183L31.7875 12.6221V12.8468C31.7755 14.2346 31.4298 15.485 30.518 16.6321C29.1858 18.3663 26.5187 19.1377 23.9247 19.2179V18.6896C26.4631 18.5787 28.5633 17.7648 29.6253 16.6995C30.8708 15.5319 31.2411 14.1547 31.2237 13.211L26.9932 13.2071L27.0056 15.006C26.9838 16.7338 25.2955 17.4709 23.9247 17.5753V16.9542ZM15.7027 15.3623H20.005C20.8018 16.2549 21.7369 16.9797 23.4867 16.9701C23.6373 16.9676 23.7848 16.9619 23.9247 16.9542V17.5753C23.7645 17.5837 23.6092 17.589 23.459 17.5837C21.1584 17.5125 20.2891 16.4341 19.76 15.8365H16.6249C17.8466 17.7367 20.7592 18.651 23.0607 18.6983C23.3535 18.7013 23.6421 18.7013 23.9247 18.6896V19.2179C23.7384 19.2228 23.5568 19.2277 23.3753 19.2277C19.9962 19.2699 17.6263 17.9497 15.8247 15.9203C15.7304 15.7465 15.7106 15.5474 15.7027 15.3623Z" fill="currentColor"/>
<path fill-rule="evenodd" clip-rule="evenodd" d="M20.002 2.32145C20.0726 2.29238 20.1163 2.21196 20.1836 2.16605C20.294 2.08132 20.4071 2.09632 20.5098 2.20272C20.6797 2.60902 20.8308 3.00475 20.9202 3.43179C20.9464 3.55483 20.8264 3.82064 21.0122 3.82557C21.2083 3.78715 21.3011 3.74022 21.491 3.70201C21.6314 3.60526 21.3941 3.46035 21.3442 3.33484C21.1905 2.93162 21.0378 2.53785 20.9794 2.11419C20.9533 1.91946 21.1905 1.88628 21.4406 1.96259C21.5248 1.98694 21.6391 2.01261 21.6677 1.94914C21.7572 1.77177 21.6177 1.5225 21.3011 1.56841C20.8099 1.64452 20.322 1.73356 19.8671 1.93702C19.7271 1.99649 19.7102 2.15332 19.7688 2.24976C19.8253 2.34332 19.9255 2.35534 20.002 2.32145Z" fill="currentColor"/>
<path fill-rule="evenodd" clip-rule="evenodd" d="M32.1948 19.918C32.1511 19.984 32.1511 20.0742 32.1264 20.1468C32.0766 20.277 31.9695 20.3239 31.8255 20.2897C31.4705 20.0316 31.1332 19.7811 30.8268 19.465C30.7436 19.3716 30.7 19.0888 30.5388 19.1811C30.396 19.3163 30.3442 19.4049 30.1999 19.5409C30.1328 19.6926 30.4119 19.6926 30.5228 19.7739C30.8661 20.0317 31.2006 20.2853 31.4736 20.6125C31.6023 20.7652 31.416 20.9207 31.1618 20.9878C31.0805 21.0102 30.9687 21.0478 30.9749 21.1196C30.9972 21.3133 31.2499 21.4538 31.4914 21.248C31.8689 20.9246 32.2315 20.5869 32.5156 20.1754C32.6012 20.0485 32.5336 19.909 32.4315 19.8588C32.334 19.811 32.2408 19.8493 32.1948 19.918Z" fill="currentColor"/>
<path fill-rule="evenodd" clip-rule="evenodd" d="M26.129 3.59982C26.0158 3.90876 25.9264 4.00376 25.7578 3.98589C25.3043 3.95682 25.143 3.79496 24.708 3.75295C24.6156 3.74453 24.4915 3.6638 24.5463 3.56213C24.585 3.49485 24.6575 3.46045 24.708 3.4017C24.7714 3.3258 24.8101 3.22741 24.8308 3.12624C24.9074 2.74572 24.9959 2.43237 25.0642 2.04692C25.072 1.99115 25.0288 1.95787 24.9863 1.9022C24.9272 1.82363 24.9611 1.67019 25.1174 1.63137C25.2907 1.64061 25.4267 1.67502 25.6345 1.74229C25.7322 1.77629 25.7578 1.98344 25.6253 2.03829C25.525 2.08481 25.5037 2.1069 25.4895 2.16123C25.4069 2.53353 25.3004 2.87688 25.1997 3.24384C25.1558 3.41053 25.1949 3.50831 25.2956 3.55771C25.4529 3.65497 25.6121 3.72728 25.7738 3.64244C25.8541 3.59982 25.9225 3.53306 26.0158 3.48315C26.1252 3.45603 26.1544 3.48315 26.129 3.59982Z" fill="currentColor"/>
<path fill-rule="evenodd" clip-rule="evenodd" d="M26.9171 3.20656C26.9975 2.9954 27.0783 2.78722 27.148 2.55541C27.166 2.50015 27.1301 2.46092 27.0957 2.39796C27.0435 2.31323 27.0982 2.16605 27.2612 2.14798C27.4297 2.17807 27.56 2.2285 27.7556 2.32576C27.8508 2.36941 27.8469 2.57564 27.7095 2.61878C27.6064 2.64784 27.5822 2.66571 27.56 2.71943C27.4931 2.91087 27.4166 3.08845 27.3397 3.27106C27.2612 3.48304 27.1833 3.68548 27.1073 3.92272C27.0913 3.97223 27.1301 4.01198 27.1659 4.07442C27.2133 4.15905 27.1581 4.30777 26.9975 4.32471C26.8291 4.29565 26.6974 4.24337 26.5027 4.15032C26.4093 4.10492 26.4132 3.89664 26.5496 3.85494C26.6548 3.82546 26.6759 3.80913 26.6974 3.75285C26.7696 3.56593 26.8426 3.38486 26.9171 3.20656Z" fill="currentColor"/>
<path fill-rule="evenodd" clip-rule="evenodd" d="M12.8832 13.6632C13.1074 13.6515 13.3275 13.638 13.5724 13.6139C13.6281 13.609 13.6485 13.5663 13.6867 13.517C13.7469 13.4477 13.9069 13.4395 13.9873 13.5582C14.0304 13.698 14.0376 13.8156 14.0304 13.9982C14.0304 14.0879 13.8397 14.1562 13.7469 14.0661C13.6741 13.9958 13.6485 13.9813 13.5904 13.9866C13.3914 13.9982 13.1978 14.0036 13.0012 14.0076C12.7739 14.0225 12.5574 14.0322 12.3116 14.0578C12.2564 14.0622 12.2366 14.1103 12.1934 14.1562C12.1382 14.2234 11.9765 14.2311 11.8956 14.1164C11.854 13.9775 11.8472 13.8588 11.854 13.6719C11.854 13.5882 12.0444 13.517 12.1382 13.609C12.2104 13.6758 12.2366 13.6899 12.2907 13.6855C12.4945 13.6719 12.6891 13.669 12.8832 13.6632Z" fill="currentColor"/>
<path fill-rule="evenodd" clip-rule="evenodd" d="M17.0779 21.2801C17.2086 21.0941 17.336 20.9171 17.4662 20.7051C17.4957 20.6583 17.4662 20.6123 17.4507 20.544C17.4206 20.4475 17.5135 20.3151 17.6695 20.3408C17.8316 20.413 17.9411 20.4929 18.1095 20.6366C18.1922 20.7012 18.1357 20.904 17.9918 20.9074C17.8816 20.9128 17.8553 20.9205 17.8209 20.967C17.7072 21.1374 17.5891 21.2885 17.4706 21.4454C17.3399 21.6323 17.2173 21.8089 17.0843 22.0211C17.0557 22.0686 17.0822 22.1145 17.1022 22.1823C17.1278 22.2795 17.0393 22.4109 16.8767 22.3853C16.7217 22.3136 16.6066 22.2292 16.4424 22.0884C16.3616 22.0211 16.4172 21.8234 16.562 21.8176C16.6665 21.8138 16.6961 21.8056 16.726 21.7533C16.8457 21.5892 16.9589 21.4319 17.0779 21.2801Z" fill="currentColor"/>
<path fill-rule="evenodd" clip-rule="evenodd" d="M30.1539 20.9588C30.2938 21.1373 30.4249 21.3097 30.5867 21.4957C30.6239 21.5388 30.6801 21.5249 30.7479 21.5249C30.8485 21.5306 30.9448 21.6536 30.8746 21.8004C30.7633 21.9287 30.6496 22.012 30.4657 22.1316C30.379 22.1853 30.2042 22.078 30.2391 21.9365C30.2687 21.8353 30.2687 21.8058 30.2294 21.7596C30.1066 21.6023 29.9937 21.4426 29.8795 21.2857C29.7401 21.1017 29.6045 20.9298 29.4434 20.7425C29.409 20.7013 29.3543 20.7138 29.2822 20.7138C29.1864 20.71 29.0875 20.587 29.1552 20.4418C29.2697 20.3119 29.3843 20.2271 29.5661 20.1076C29.6539 20.0534 29.8282 20.1623 29.7894 20.3032C29.7653 20.4087 29.7653 20.4381 29.8039 20.4799C29.9264 20.6416 30.0407 20.7989 30.1539 20.9588Z" fill="currentColor"/>
<path fill-rule="evenodd" clip-rule="evenodd" d="M29.0204 21.67C29.1719 21.9751 29.2904 22.1863 29.4642 22.4585C29.6182 22.5131 29.697 22.5664 29.7053 22.6264C29.7318 22.7446 29.4594 22.9325 29.3209 22.8928L27.5043 22.136C27.5644 22.2599 27.6186 22.3805 27.6753 22.504C27.7763 22.7108 27.8689 22.9059 27.9874 23.1262C28.013 23.1736 28.059 23.1753 28.1181 23.1973C28.2034 23.2279 28.271 23.3716 28.1994 23.487C28.0891 23.5746 27.9845 23.6177 27.8185 23.6778C27.7371 23.7029 27.6021 23.5542 27.6499 23.4391C27.683 23.3508 27.683 23.3214 27.6578 23.27C27.5681 23.0883 27.4884 22.9108 27.408 22.733C27.3108 22.5293 27.2134 22.3301 27.0988 22.1146C27.0988 22.1109 27.0957 22.1109 27.0957 22.1064H27.0988L26.9013 21.7877C26.8204 21.5601 26.938 21.4453 27.1743 21.5349L28.9197 22.2498C28.8644 22.1316 28.8084 22.012 28.7585 21.8943C28.6573 21.6909 28.5634 21.4914 28.4443 21.2759C28.4196 21.2246 28.3732 21.2246 28.3126 21.2048C28.2295 21.1747 28.1622 21.0311 28.2342 20.9172C28.3427 20.8281 28.4236 20.799 28.5875 20.7386C28.728 20.6837 28.8296 20.846 28.7826 20.9631C28.7491 21.0518 28.7491 21.0817 28.7735 21.1321C28.8644 21.3132 28.9442 21.4914 29.0204 21.67Z" fill="currentColor"/>
<path fill-rule="evenodd" clip-rule="evenodd" d="M19.7992 22.5833C19.6493 22.8885 19.5572 23.1131 19.446 23.4181C19.4977 23.5717 19.5063 23.6628 19.4648 23.7096C19.3835 23.7993 19.0746 23.6982 19.0194 23.5755L18.4996 21.6734C18.4342 21.7963 18.3727 21.915 18.3122 22.0347C18.2111 22.2367 18.1139 22.4351 18.0161 22.6612C17.9918 22.7107 18.0161 22.7499 18.0373 22.8105C18.0678 22.8928 17.9977 23.0365 17.8602 23.0492C17.7246 23.0196 17.6216 22.9649 17.4758 22.8685C17.4027 22.822 17.442 22.6216 17.5586 22.5887C17.652 22.5595 17.6733 22.5427 17.6994 22.4908C17.7881 22.3092 17.8776 22.1359 17.9715 21.9667C18.0678 21.7639 18.1656 21.5639 18.2657 21.3398C18.2657 21.3359 18.2657 21.3359 18.2707 21.3305V21.3359L18.3975 20.9839C18.5325 20.7819 18.6904 20.8018 18.7658 21.0439L19.2774 22.8594C19.338 22.7403 19.3961 22.6263 19.4614 22.5131C19.5572 22.3093 19.655 22.1146 19.7518 21.8856C19.7779 21.8352 19.747 21.7964 19.7316 21.7375C19.701 21.6537 19.7736 21.5085 19.9082 21.4957C20.0436 21.5306 20.1163 21.5722 20.2683 21.67C20.3956 21.746 20.3278 21.9233 20.2092 21.9627C20.1163 21.9877 20.0944 22.0033 20.0704 22.055C19.9802 22.2367 19.8911 22.4109 19.7992 22.5833Z" fill="currentColor"/>
<path fill-rule="evenodd" clip-rule="evenodd" d="M32.9 17.3298C33.1855 17.5124 33.3956 17.6358 33.6879 17.7783C33.8443 17.7491 33.9436 17.7491 33.9794 17.7961C34.0602 17.8901 33.9247 18.1868 33.7886 18.2227L31.8423 18.5074C31.9536 18.583 32.067 18.66 32.1734 18.7403C32.3622 18.864 32.5505 18.9825 32.762 19.1079C32.808 19.1376 32.8501 19.1166 32.9081 19.1051C32.9982 19.0881 33.1343 19.1729 33.1249 19.3115C33.0795 19.4436 33.0153 19.537 32.9 19.6727C32.8457 19.735 32.6507 19.6771 32.6299 19.5531C32.6115 19.4597 32.6012 19.4349 32.5553 19.4001C32.3844 19.295 32.2228 19.1808 32.0631 19.0698C31.8723 18.9478 31.6912 18.8248 31.4778 18.6984C31.4778 18.6984 31.4735 18.6984 31.4705 18.6941H31.4735L31.1409 18.5231C30.9589 18.3668 30.9972 18.2118 31.2459 18.1639L33.1076 17.8807C33.002 17.809 32.8974 17.7319 32.7911 17.6612C32.6012 17.5338 32.4179 17.4152 32.2068 17.2879C32.157 17.2589 32.1178 17.2807 32.0548 17.2928C31.9657 17.3092 31.834 17.225 31.8385 17.0888C31.886 16.9586 31.9372 16.8893 32.05 16.7552C32.1434 16.6361 32.3127 16.7217 32.3341 16.8478C32.3515 16.9422 32.3622 16.962 32.4091 16.9959C32.581 17.1056 32.7401 17.2162 32.9 17.3298Z" fill="currentColor"/>
<path fill-rule="evenodd" clip-rule="evenodd" d="M18.185 9.81061C18.122 9.73019 18.1139 9.6925 18.1525 9.62513C18.1695 9.53988 18.3737 9.52735 18.4318 9.59606L19.0069 10.6793H19.0611L19.5287 9.59606C19.5882 9.52735 19.778 9.53988 19.7998 9.62513C19.8366 9.6925 19.8695 9.73019 19.8108 9.81061V10.8696C19.8278 10.95 19.8501 10.9709 19.8911 11.0144C19.9683 11.0734 19.9508 11.1659 19.8412 11.1796L19.446 11.1742C19.3539 11.1364 19.3709 11.0603 19.4261 11.0105C19.4512 10.9751 19.5063 10.95 19.5063 10.8787L19.5112 10.3737L19.4721 10.3787L19.0669 11.1994L18.972 11.1965L18.884 11.1994L18.4192 10.3787L18.38 10.3737V10.874C18.3858 10.9461 18.4439 10.9751 18.4695 11.0105C18.5194 11.0603 18.5417 11.1364 18.4439 11.1742L18.1095 11.1796C18 11.1659 17.9836 11.0734 18.0596 11.0144C18.0979 10.9709 18.1656 10.95 18.185 10.8696V9.81061Z" fill="currentColor"/>
<path fill-rule="evenodd" clip-rule="evenodd" d="M34.4028 15.8577C34.5733 15.9125 34.6051 15.7977 34.6541 15.832C34.7504 15.9042 34.6575 16.1411 34.5902 16.2597C34.4503 16.4921 34.5098 16.7123 34.4209 16.8359C34.3767 16.894 34.3017 16.9409 34.141 16.9409C33.9851 16.9459 33.9508 16.7928 34.052 16.7419C34.138 16.6901 34.2059 16.6111 34.2592 16.5251C34.3694 16.3618 34.3694 16.2509 34.2592 16.204L33.7669 16.0601C33.7237 16.0433 33.6623 16.0394 33.6535 16.0766L33.579 16.3773C33.5485 16.4877 33.6342 16.5425 33.5733 16.5759C33.5451 16.5996 33.5311 16.6059 33.3878 16.5517C33.265 16.4921 33.2731 16.5008 33.2479 16.4839C33.2184 16.4664 33.201 16.4553 33.1961 16.4364C33.173 16.3647 33.2822 16.3739 33.3065 16.2931L33.3912 15.9894C33.4009 15.9623 33.3833 15.9333 33.3587 15.9255L32.8583 15.7396C32.8079 15.7087 32.6875 15.7354 32.6587 15.8282L32.5964 16.0305C32.5629 16.1411 32.5238 16.3526 32.6468 16.4664C32.7444 16.6059 32.6347 16.7807 32.4739 16.6273C32.397 16.4364 32.169 16.4083 32.2488 16.204C32.3543 16.018 32.4356 15.586 32.5711 15.311C32.6724 15.0994 32.8642 15.3493 32.9778 15.3914L34.4028 15.8577Z" fill="currentColor"/>
<path fill-rule="evenodd" clip-rule="evenodd" d="M14.3151 19.4978C14.1693 19.5955 14.2381 19.692 14.1819 19.7109C14.0682 19.7423 13.937 19.5292 13.8812 19.3962C13.7811 19.1466 13.5692 19.063 13.526 18.9129C13.5057 18.8421 13.5125 18.7571 13.6108 18.6253C13.7041 18.4978 13.8425 18.566 13.8223 18.6765C13.8093 18.7743 13.8359 18.877 13.8688 18.9767C13.937 19.1656 14.0218 19.2266 14.1268 19.1729L14.5382 18.8717C14.5765 18.8421 14.6196 18.7952 14.5938 18.7647L14.4023 18.523C14.3301 18.431 14.2381 18.4702 14.2473 18.3981C14.2502 18.3642 14.2473 18.3463 14.3779 18.2655C14.5 18.2069 14.4742 18.1895 14.5043 18.1768C14.5334 18.1638 14.559 18.1603 14.572 18.1638C14.6448 18.1895 14.5851 18.2907 14.6316 18.3546L14.8228 18.6121C14.8397 18.63 14.8722 18.6368 14.8983 18.6213L15.3412 18.3371C15.4022 18.3177 15.4521 18.2069 15.3978 18.1255L15.2735 17.9522C15.2057 17.8587 15.059 17.6989 14.8983 17.7288C14.725 17.7196 14.6553 17.5288 14.8761 17.4921C15.0677 17.5464 15.2314 17.3859 15.3461 17.5701C15.4264 17.7706 15.723 18.0974 15.8631 18.3715C15.9637 18.5787 15.6515 18.5787 15.5489 18.6466L14.3151 19.4978Z" fill="currentColor"/>
<path fill-rule="evenodd" clip-rule="evenodd" d="M23.2181 1.38539C23.8948 1.39946 24.445 1.8982 24.445 2.50447C24.445 3.11413 23.8948 3.60845 23.2181 3.62591V3.25689C23.5356 3.31697 23.8324 3.16722 23.9248 2.86712C24.0352 2.51258 23.8061 2.07249 23.4171 1.88937C23.3493 1.8604 23.2834 1.83904 23.2181 1.82548V1.38539ZM23.1852 1.38252C23.1934 1.38252 23.205 1.38252 23.2181 1.38539V1.82548C22.9001 1.76745 22.6044 1.91956 22.5108 2.21597C22.4015 2.57626 22.629 3.01296 23.0196 3.19352C23.0826 3.22402 23.1503 3.24374 23.2181 3.25689V3.62591L23.1852 3.62601C22.4954 3.62601 21.9276 3.12193 21.9276 2.50457C21.9276 1.88628 22.4953 1.38252 23.1852 1.38252Z" fill="currentColor"/>
<path fill-rule="evenodd" clip-rule="evenodd" d="M30.0659 4.23176C30.0881 4.11797 30.1157 4.01198 30.1801 3.91841C30.2977 3.76589 30.2169 3.6977 30.1066 3.68938C29.9462 3.60855 29.8283 3.37705 29.6926 3.29088C29.3674 3.08845 28.6641 3.00803 28.2076 3.38876C27.6786 3.89705 27.8049 4.59103 28.0978 4.90048C28.4332 5.29312 28.7537 5.41678 29.1442 5.39634C29.5755 5.27289 29.4177 5.0835 29.2023 5.11256C28.847 5.18477 28.4361 5.04478 28.3166 4.47292C28.2076 3.95672 28.6051 3.57127 29.0195 3.46528C29.4304 3.41875 29.6254 3.5423 29.8156 3.83707C29.7947 3.93834 29.8414 4.09568 29.8247 4.19346C29.8834 4.29904 29.9647 4.29904 30.0659 4.23176Z" fill="currentColor"/>
<path fill-rule="evenodd" clip-rule="evenodd" d="M34.5423 15.1116C34.6541 15.0744 34.6996 15.0482 34.8149 15.0525C35.0032 15.0744 35.021 14.9765 34.9745 14.8801C34.9625 14.7097 35.0713 14.4216 35.0776 14.2734C35.0815 13.9058 34.7916 13.2875 34.2316 13.0968C33.5229 12.9107 33.0413 13.3717 32.8584 13.7397C32.6012 14.2821 32.7522 14.7097 32.9697 14.943C33.0413 15.0109 33.1249 15.0317 33.2184 15.0394C33.2775 15.0448 33.3457 15.0394 33.3913 15.0394C33.4329 15.0394 33.4523 15.0525 33.4968 15.1213C33.5602 15.2142 33.7059 15.1794 33.7141 15.0394C33.7301 14.8763 33.7339 14.7959 33.7141 14.6643C33.6623 14.5493 33.5452 14.5493 33.4968 14.6042C33.4653 14.6462 33.4474 14.6855 33.4092 14.6855C33.3283 14.6894 33.2527 14.6894 33.1774 14.6855C32.854 14.5154 32.9256 13.9393 33.3172 13.6632C33.7408 13.3683 34.2756 13.4686 34.582 13.7577C34.8308 14.0742 34.8521 14.4089 34.6958 14.7145C34.6619 14.7697 34.6478 14.8971 34.492 14.9049C34.4343 15.006 34.4343 15.0622 34.5423 15.1116Z" fill="currentColor"/>
<path fill-rule="evenodd" clip-rule="evenodd" d="M17.1327 3.59253C17.0277 3.54169 16.9327 3.4851 16.8573 3.4017C16.7473 3.24908 16.6583 3.30834 16.6216 3.41043C16.501 3.54559 16.2429 3.59972 16.1297 3.70632C15.8505 3.96874 15.5919 4.62441 15.8369 5.16823C16.1913 5.81137 16.896 5.86899 17.2678 5.66604C17.7372 5.44677 17.9406 5.16823 18.0162 4.78514C18.0128 4.33683 17.7881 4.438 17.7591 4.65019C17.7372 5.0191 17.4957 5.37888 16.9116 5.34499C16.3872 5.315 16.1207 4.83269 16.1207 4.40503C16.1882 3.99493 16.3548 3.8419 16.6869 3.73149C16.7808 3.77801 16.9464 3.7737 17.0344 3.81725C17.1521 3.78726 17.1694 3.70632 17.1327 3.59253Z" fill="currentColor"/>
<path fill-rule="evenodd" clip-rule="evenodd" d="M12.0445 15.1634C11.9766 15.1969 11.9684 15.3071 12.029 15.3493C12.117 15.4555 12.1315 15.6631 12.2023 15.7595C12.2196 15.789 12.2457 15.8157 12.27 15.8446C12.3164 15.9042 12.376 15.9556 12.4467 15.9924C12.4593 16.0011 12.4723 16.0098 12.4902 16.018H12.51C12.5624 16.034 12.6166 16.0433 12.6766 16.0433C12.8402 16.0433 12.9888 15.9623 13.0779 15.8446C13.268 15.697 13.3179 15.3318 13.3833 15.0961C13.3959 15.0748 13.4124 14.8108 13.7337 14.8211C13.7966 14.8211 13.8558 14.837 13.9041 14.8583C13.9583 14.9048 14.0004 14.9512 14.0348 14.9983C14.0894 15.1251 14.1151 15.205 14.0807 15.3532C14.0639 15.4346 14.0081 15.5105 13.9583 15.5696C13.832 15.8408 14.1355 15.6375 14.2473 15.6243C14.3214 15.6118 14.3601 15.5057 14.3185 15.451C14.2627 15.3227 14.3151 15.2017 14.2711 15.006C14.1787 14.7305 13.9627 14.3804 13.6282 14.3954C13.467 14.4084 13.2353 14.5222 13.1166 14.7009C13.1201 14.7053 13.1127 14.697 13.1166 14.7009C12.9511 14.9983 13.0062 15.375 12.8487 15.5996H12.846C12.8402 15.6036 12.8402 15.6036 12.8402 15.6083C12.8319 15.6172 12.8276 15.6209 12.8228 15.6288H12.8276C12.782 15.7087 12.6941 15.7595 12.5957 15.7595C12.4854 15.7595 12.392 15.6883 12.3543 15.5914H12.3378C12.3073 15.5319 12.2914 15.4627 12.2821 15.375C12.2738 15.2902 12.2956 15.205 12.3421 15.1416C12.3034 14.8331 12.1505 15.1217 12.0445 15.1634Z" fill="currentColor"/>
<path fill-rule="evenodd" clip-rule="evenodd" d="M17.5338 9.59267C17.53 9.537 17.4585 9.5027 17.4158 9.53218C17.3229 9.5671 17.1872 9.52735 17.1021 9.54871C17.0813 9.55785 17.0556 9.5671 17.03 9.5787C16.9798 9.59267 16.9333 9.62071 16.89 9.66251C16.8809 9.66836 16.8732 9.67596 16.8655 9.68428L16.8611 9.69692C16.8355 9.7303 16.8199 9.7647 16.8069 9.8024C16.7639 9.91732 16.7812 10.0348 16.8412 10.1249C16.896 10.2901 17.1229 10.4121 17.2633 10.5186C17.2722 10.5307 17.4444 10.6038 17.3616 10.8198C17.3436 10.8654 17.3229 10.8993 17.2972 10.9254C17.2508 10.95 17.213 10.9709 17.1738 10.9791C17.0779 10.9887 17.0194 10.9849 16.9249 10.9254C16.8771 10.891 16.8412 10.8411 16.8092 10.7884C16.6665 10.6364 16.7309 10.891 16.7086 10.9709C16.6999 11.0276 16.7599 11.077 16.8069 11.0595C16.9032 11.0566 16.9709 11.1195 17.1104 11.1408C17.3185 11.1453 17.6017 11.0813 17.6651 10.8542C17.6994 10.7395 17.6733 10.552 17.5891 10.4291C17.5891 10.4291 17.5847 10.4334 17.5847 10.4291C17.4318 10.246 17.1694 10.1884 17.0556 10.027H17.0605C17.0556 10.0228 17.0556 10.0228 17.0522 10.0228C17.0479 10.015 17.0479 10.0102 17.045 10.0062H17.0392C17.001 9.95543 16.9885 9.88374 17.0092 9.81985C17.0392 9.74437 17.106 9.69692 17.1776 9.69692L17.1825 9.68428C17.2293 9.68038 17.2813 9.68428 17.3398 9.70164C17.3949 9.71818 17.4444 9.75166 17.4792 9.79808C17.6912 9.84553 17.5393 9.67165 17.5338 9.59267Z" fill="currentColor"/>
<path fill-rule="evenodd" clip-rule="evenodd" d="M22.1847 23.3799C22.1187 23.6138 22.08 23.851 22.0297 24.0962C22.0253 24.1507 22.0713 24.1814 22.1135 24.2357C22.1812 24.3126 22.1517 24.4689 21.9998 24.5112C21.8264 24.5154 21.6865 24.4866 21.4774 24.4306C21.3767 24.4051 21.3442 24.1979 21.4692 24.1339C21.567 24.0837 21.5888 24.0623 21.597 24.008C21.6783 23.5368 22.1014 22.5504 21.4246 22.3567C20.8265 22.1901 20.6018 22.5428 20.5046 23.0616C20.4677 23.2874 20.4029 23.4946 20.3568 23.7324C20.3452 23.7861 20.37 23.8205 20.3956 23.8762C20.4242 23.9565 20.3956 24.1261 20.2897 24.1377C20.1802 24.1506 20.0993 24.0961 19.9725 24.0244C19.9131 23.9897 19.9173 23.7826 20.002 23.728C20.0704 23.6892 20.0859 23.6679 20.0993 23.6137C20.14 23.4209 20.2141 23.2402 20.2383 23.0491C20.3303 22.4108 20.6496 21.8899 21.1584 21.9149C21.4024 21.9111 21.6174 21.9782 21.8512 22.0844C22.3551 22.3135 22.2746 23.0492 22.1847 23.3799Z" fill="currentColor"/>
<path fill-rule="evenodd" clip-rule="evenodd" d="M18.8801 3.14709L19.1177 3.35004L18.8801 3.45162V3.79938C19.0126 3.74032 19.1681 3.67253 19.2731 3.62611L19.2774 3.63813C19.3206 3.6217 19.3534 3.60855 19.3835 3.59705C19.4672 3.68948 19.8108 3.97326 19.7271 4.09568C19.6676 4.18431 19.6798 4.31999 19.8108 4.27007L20.4619 3.98589C20.6014 3.93063 20.6966 3.80431 20.3744 3.74864C20.2857 3.73693 20.2343 3.71516 20.1593 3.63186L18.8801 2.62607V3.14709ZM18.8801 4.66744V4.49027C18.9658 4.52334 19.0156 4.60458 18.9062 4.65491L18.8801 4.66744ZM18.6641 3.5499L18.6487 2.94415L18.8801 3.14709V2.62607L18.6985 2.48362C18.5325 2.31323 18.2876 2.43227 18.2963 2.69036C18.3215 3.2613 18.2996 3.83697 18.3554 4.40503C18.3684 4.51883 18.3476 4.57459 18.2963 4.64618C18.2488 4.72228 18.2243 4.77846 18.2199 4.81955V4.85395C18.2329 4.92133 18.3243 4.91691 18.4149 4.87912L18.8801 4.66744V4.49027C18.8674 4.48103 18.8515 4.47672 18.8336 4.47281C18.6904 4.45104 18.7165 4.01198 18.7029 3.88452C18.7489 3.85894 18.8123 3.82895 18.8801 3.79938V3.45162L18.6641 3.5499Z" fill="currentColor"/>
<path fill-rule="evenodd" clip-rule="evenodd" d="M31.0184 5.41668L31.2969 5.29805L31.0896 5.88244L31.0184 5.81137V7.40248C31.1152 7.48239 31.2343 7.48239 31.1695 7.19913C31.1539 7.11388 31.1539 7.05534 31.2053 6.95315L31.7449 5.17881C31.7576 5.14985 31.7663 5.12551 31.7707 5.09562V5.03564C31.7508 4.89123 31.5891 4.8026 31.4071 4.87922C31.2793 4.93437 31.148 4.98911 31.0184 5.04468V5.41668ZM30.7387 5.53181L31.0184 5.41668V5.04468C30.619 5.205 30.2125 5.36193 29.833 5.55564C29.726 5.6113 29.6723 5.6074 29.5837 5.59045C29.4065 5.54927 29.3394 5.58172 29.334 5.63749V5.64961C29.3394 5.69121 29.3717 5.73814 29.4147 5.78025L29.7991 6.15759C29.9002 6.25876 29.9646 6.13243 29.9376 6.02592C29.909 5.88244 30.3267 5.74697 30.4424 5.69121C30.5528 5.78569 30.7632 6.00117 30.8862 6.1275L30.8771 6.13674C30.9124 6.17063 30.9381 6.20001 30.9589 6.2263C30.8988 6.33527 30.7585 6.75503 30.6162 6.72504C30.5096 6.69844 30.3872 6.75934 30.486 6.864L30.9845 7.3692C30.9928 7.38225 31.0053 7.39334 31.0184 7.40248V5.81137L30.7387 5.53181Z" fill="currentColor"/>
<path fill-rule="evenodd" clip-rule="evenodd" d="M33.6037 9.04998L33.9092 9.06199L33.6037 9.3622V9.9772L34.3612 9.14672C34.5472 8.9976 34.4465 8.74432 34.188 8.73179C33.9924 8.72409 33.7975 8.71577 33.6037 8.70273V9.04998ZM33.3038 9.03303L33.6037 9.04998V8.70273C33.2271 8.67705 32.8501 8.65477 32.474 8.66452C32.3543 8.66452 32.3089 8.63792 32.2364 8.58318C31.9777 8.38455 31.9454 8.54097 31.9995 8.68486L32.1815 9.18935C32.2315 9.32451 32.3424 9.23926 32.3685 9.13368C32.4019 8.99082 32.838 9.04998 32.9649 9.04515C33.0238 9.17682 33.1206 9.46819 33.1797 9.63396L33.168 9.63745C33.1797 9.68038 33.1928 9.71818 33.2011 9.74868C33.1007 9.82807 32.7944 10.1463 32.6769 10.0529C32.5911 9.98542 32.457 9.98983 32.4997 10.1249L32.731 10.7932C32.7754 10.9374 32.8974 11.0387 32.9735 10.7263C32.9943 10.6364 33.0153 10.5864 33.1076 10.5143L33.6037 9.9772V9.3622L33.4682 9.49736L33.3038 9.03303Z" fill="currentColor"/>
<path fill-rule="evenodd" clip-rule="evenodd" d="M13.1283 10.1413L12.9864 10.015V10.4852C13.162 10.6503 13.3445 10.8062 13.5343 10.9544C13.6287 11.0276 13.6485 11.078 13.6709 11.166C13.7419 11.4838 13.8649 11.3821 13.9152 11.2382L14.0939 10.7306C14.1397 10.5947 14.0004 10.5903 13.9152 10.6576C13.7966 10.7463 13.497 10.4252 13.3969 10.3452C13.4341 10.2053 13.5386 9.92164 13.602 9.7569L13.6156 9.7608C13.6321 9.71818 13.6441 9.68038 13.6587 9.6508C13.7855 9.65563 14.225 9.60335 14.255 9.74868C14.2798 9.85375 14.3847 9.93797 14.4404 9.80732L14.6858 9.14241C14.7425 9.00253 14.712 8.84703 14.453 9.04125C14.3829 9.09537 14.3301 9.12064 14.2167 9.11663L12.9864 9.29483V9.70452L13.2924 9.67586L13.1283 10.1413ZM12.9864 10.015L12.6765 9.73512L12.9864 9.70452V9.29483L12.3793 9.38356C12.1426 9.38356 12.0575 9.64258 12.25 9.81595C12.498 10.0324 12.7395 10.2638 12.9864 10.4852V10.015Z" fill="currentColor"/>
<path fill-rule="evenodd" clip-rule="evenodd" d="M16.2261 19.7655C15.7866 19.9467 15.2904 20.1708 14.8983 20.3829C14.7792 20.4475 14.8562 20.688 14.7072 20.5277L14.4148 20.1884C14.3185 20.0866 14.2971 19.9344 14.5977 20.0106C14.6816 20.0275 14.7377 20.0315 14.8398 19.9811L16.455 19.3021C16.6926 19.2049 16.7981 19.358 16.6956 19.5869L16.1254 21.3276C16.0906 21.4319 16.0708 21.4872 16.0833 21.5722C16.1167 21.8773 15.973 21.8396 15.8843 21.7302L15.5667 21.3906C15.3635 21.2002 15.6177 21.2502 15.6646 21.1486C15.8893 20.7012 16.0406 20.2269 16.2261 19.7655Z" fill="currentColor"/>
<path fill-rule="evenodd" clip-rule="evenodd" d="M18.9193 11.7548L19.0712 12.0764H18.9193V12.271H19.0921V12.2803C19.121 12.2803 19.1424 12.285 19.1636 12.285C19.1884 12.3611 19.3122 12.6056 19.2357 12.6526C19.1811 12.6899 19.1507 12.7708 19.2401 12.7751H19.6797C19.7363 12.7785 19.7852 12.7626 19.7905 12.7286V12.7205C19.7852 12.6938 19.7552 12.6618 19.6927 12.6182C19.6463 12.5902 19.6202 12.5636 19.5964 12.4947L19.05 11.4744C19.0233 11.4086 18.9696 11.3772 18.9193 11.3772V11.7548ZM18.7614 12.0764L18.9062 11.7243L18.9193 11.7548V11.3772C18.8583 11.3772 18.7987 11.4153 18.7663 11.4919C18.6384 11.826 18.4836 12.152 18.3775 12.4925C18.3515 12.5597 18.3249 12.5844 18.2793 12.6144C18.2115 12.6565 18.185 12.6898 18.1829 12.7161V12.7243C18.185 12.7577 18.2352 12.7751 18.2875 12.7751L18.6264 12.7708C18.716 12.7665 18.6904 12.6861 18.6312 12.6473C18.5543 12.6022 18.6787 12.3519 18.7029 12.2803C18.7532 12.2758 18.8336 12.271 18.9193 12.271V12.0764H18.7614Z" fill="currentColor"/>
<path fill-rule="evenodd" clip-rule="evenodd" d="M26.1077 23.0167L25.9689 23.6094L25.8638 23.453V24.1086C25.9945 24.222 26.1935 24.1561 26.2434 23.9393C26.3663 23.3853 26.5318 22.8304 26.6195 22.2662C26.6383 22.1528 26.6717 22.1063 26.7395 22.0462C26.98 21.8308 26.8324 21.7669 26.6833 21.792L26.1513 21.8855C26.01 21.9111 26.0749 22.0346 26.1712 22.0777C26.3078 22.1358 26.1712 22.5594 26.1513 22.681C26.0821 22.698 25.9777 22.7198 25.8638 22.7367V23.0534L26.1077 23.0167ZM25.8638 23.453L25.617 23.0962L25.8638 23.0534V22.7367C25.7476 22.7575 25.6257 22.7751 25.5376 22.7876L25.5333 22.7751C25.4895 22.7818 25.4529 22.7876 25.418 22.7876C25.3595 22.6772 25.1054 22.3174 25.2147 22.2201C25.2956 22.1486 25.3149 22.012 25.177 22.03L24.479 22.1414C24.3982 22.1485 24.3318 22.178 24.3232 22.2241V22.2498C24.3318 22.288 24.3826 22.3389 24.5003 22.3891C24.585 22.4277 24.6315 22.4585 24.6814 22.5644L25.8024 24.0371C25.8203 24.0665 25.8416 24.0878 25.8638 24.1086V23.453Z" fill="currentColor"/>
<path fill-rule="evenodd" clip-rule="evenodd" d="M14.1065 6.55958C14.2889 6.55557 14.4907 6.6021 14.7164 6.73284C15.1215 6.93189 15.2797 7.18618 15.2947 7.46688V7.56814C15.2706 7.99581 14.9656 8.46168 14.7711 8.85864C14.5881 9.13029 14.5218 8.73662 14.4104 8.65867C14.3151 8.61409 14.2082 8.56192 14.1065 8.51201V8.08917C14.26 8.16322 14.4148 8.23645 14.5721 8.31676C14.6733 8.34583 14.7425 8.33042 14.7711 8.26541C14.8398 8.10961 14.9351 7.96572 14.97 7.80108C15.0422 7.47366 14.8297 7.25048 14.5169 7.1183C14.3688 7.04281 14.2338 6.99967 14.1065 6.99187V6.55958ZM13.8222 8.3676C13.6107 8.26541 13.3914 8.14833 13.1543 8.0447C13.043 8.003 12.8019 8.1358 12.7937 7.91005V7.86835C12.8357 7.73278 12.9345 7.5894 13.0012 7.45383C13.0405 7.37722 13.4298 6.58567 14.1065 6.55958V6.99187C13.9327 6.97892 13.7729 7.01703 13.6199 7.09652C13.434 7.20744 13.3484 7.36037 13.2598 7.48773C13.2095 7.55541 13.2177 7.62176 13.2855 7.68574C13.5691 7.82902 13.8359 7.95606 14.1065 8.08917V8.51201C14.0092 8.46517 13.9118 8.41515 13.8222 8.3676Z" fill="currentColor"/>
<path fill-rule="evenodd" clip-rule="evenodd" d="M12.9254 12.9785C12.8997 12.9785 12.874 12.9818 12.8537 12.9818V12.6056C13.0817 12.5925 13.3117 12.5844 13.5566 12.5717C13.6587 12.5504 13.7091 12.4996 13.7041 12.4328C13.6868 12.2637 13.6998 12.0885 13.6533 11.9277C13.5604 11.6049 13.268 11.5133 12.9254 11.551C12.8997 11.551 12.874 11.551 12.8537 11.5568V11.1157C12.874 11.1157 12.8964 11.1157 12.9186 11.1195C14.1064 11.0595 13.949 12.1786 13.9873 12.9543C13.9627 13.2753 13.7091 12.9649 13.5778 12.9475C13.3697 12.9649 13.1243 12.9742 12.9254 12.9785ZM12.8537 12.9818C12.6379 12.9955 12.4143 12.9955 12.1847 13.0207C12.0575 13.0342 11.8968 13.2922 11.7787 13.0376C11.7497 12.9015 11.7661 12.7252 11.7621 12.5717C11.7578 12.4686 11.6935 11.1234 12.8537 11.1157V11.5568C12.51 11.5766 12.2864 11.7282 12.131 11.967C12.0188 12.1481 12.0188 12.3268 12.0033 12.4822C11.9935 12.5645 12.0333 12.6182 12.1219 12.6445C12.376 12.6304 12.6122 12.6182 12.8537 12.6056V12.9818Z" fill="currentColor"/>
<path fill-rule="evenodd" clip-rule="evenodd" d="M34.7374 10.9453C34.7984 10.904 34.8433 10.8871 34.8846 10.8871C35.021 10.8914 34.9998 11.226 34.9954 11.3306L34.992 11.9794C34.9706 12.1315 34.8682 12.2503 34.7374 12.3219V11.8657C34.7713 11.8135 34.7892 11.7548 34.7892 11.692V11.4207L34.7374 11.4265V10.9453ZM34.7374 12.5378H34.7413V12.5412H34.7374V12.5378ZM34.6362 11.0349C34.6735 10.9971 34.7089 10.9671 34.7374 10.9453V11.4265L34.0985 11.4798V11.692C34.0985 11.8735 34.2476 12.0212 34.4257 12.0212H34.4624C34.5772 12.0212 34.6833 11.9578 34.7374 11.8657V12.3219C34.6701 12.3607 34.5969 12.3852 34.5225 12.3941C34.2892 12.4163 34.112 12.3131 33.944 12.1315C33.6711 12.3649 33.2823 12.381 33.0922 12.8215C33.0621 12.885 33.1425 12.9151 33.0074 12.9281C32.7658 12.9107 32.9513 12.3852 33.0873 12.2637C33.2871 12.0845 33.5486 11.9625 33.7804 11.8135C33.9092 11.7118 33.8448 11.4798 33.7843 11.4798C33.5602 11.4919 33.4131 11.4967 33.168 11.5215C33.1125 11.5263 33.0922 11.5642 33.0489 11.6105C32.9915 11.67 32.8303 11.6788 32.7523 11.5728C32.7141 11.4459 32.7141 11.3684 32.7233 11.1994C32.7276 11.0595 32.9178 11.0309 33.0074 11.1166C33.0751 11.1747 33.1008 11.1873 33.1589 11.1819C33.6516 11.1535 34.1536 11.1166 34.6362 11.0349Z" fill="currentColor"/>
<path fill-rule="evenodd" clip-rule="evenodd" d="M17.2678 11.2798L17.4039 11.289C17.5591 11.3274 17.6569 11.4798 17.6603 11.627C17.6603 11.7379 17.6439 11.8308 17.5732 11.9069L17.5674 11.919C17.7247 12.0299 17.8055 12.166 17.8055 12.3447C17.8012 12.5127 17.6835 12.7665 17.4957 12.7665L17.2678 12.7708V12.4925C17.3729 12.4925 17.4624 12.4667 17.4507 12.3267C17.4375 12.1999 17.3729 12.1185 17.2678 12.0885V11.8479C17.3273 11.826 17.3529 11.7724 17.3616 11.6836C17.3729 11.5766 17.3312 11.5345 17.2678 11.5171V11.2798ZM16.7392 11.475C16.67 11.3995 16.682 11.3447 16.6869 11.306C16.7 11.2129 16.896 11.2507 16.9672 11.2552L17.2678 11.2798V11.5171C17.2174 11.5055 17.1521 11.5055 17.0911 11.4992V11.857C17.1675 11.8691 17.2246 11.8657 17.2678 11.8479V12.0885C17.2174 12.073 17.1583 12.073 17.0844 12.0807L17.0911 12.4871C17.1439 12.4871 17.2082 12.4925 17.2678 12.4925V12.7708H16.9929C16.8874 12.7785 16.6583 12.8129 16.6449 12.7113C16.6409 12.7068 16.6409 12.7034 16.6409 12.6986V12.6778C16.6496 12.5717 16.7392 12.4585 16.7446 12.2459L16.7392 11.475Z" fill="currentColor"/>
<path fill-rule="evenodd" clip-rule="evenodd" d="M13.4714 17.9599C13.467 17.9788 13.4588 17.9952 13.4505 18.0078V17.5589L13.8189 17.3764L13.7419 17.191C13.6959 17.0737 13.5778 17.0045 13.4505 17.0084V16.6801C13.5435 16.6878 13.6369 16.7124 13.7337 16.7551C13.9036 16.4505 14.2622 16.2894 14.2846 15.8365C14.2846 15.7711 14.2033 15.7711 14.3214 15.7141C14.5512 15.6379 14.5628 16.1576 14.4787 16.3178C14.3567 16.5426 14.1572 16.7498 13.9961 16.9672C13.9128 17.1012 14.0562 17.2805 14.1064 17.2591C14.3103 17.1613 14.4448 17.1012 14.665 16.987C14.7164 16.9619 14.7201 16.9202 14.746 16.8699C14.7791 16.7929 14.922 16.7254 15.0285 16.7847C15.1141 16.8824 15.1398 16.9502 15.1863 17.0979C15.2314 17.22 15.0676 17.3173 14.9559 17.2805C14.8673 17.251 14.8416 17.251 14.7908 17.2741C14.347 17.4863 13.8906 17.7124 13.4714 17.9599ZM13.4505 18.0078C13.4007 18.1133 13.3484 18.1652 13.2967 18.1869C13.1679 18.233 13.0736 17.9352 13.0348 17.8416L12.8537 17.3816V17.0045C12.9093 16.8998 12.9975 16.8045 13.1074 16.7463C13.222 16.6878 13.3354 16.666 13.4505 16.6801V17.0084C13.4089 17.0084 13.3697 17.0171 13.3276 17.034L13.2924 17.047C13.1243 17.1149 13.0405 17.296 13.1036 17.4534L13.2003 17.6862L13.4505 17.5589V18.0078ZM12.8537 16.7042L12.8577 16.6988H12.8537V16.7042ZM12.8537 17.3816L12.8151 17.2844C12.7938 17.1875 12.8116 17.0887 12.8537 17.0045V17.3816Z" fill="currentColor"/>
<path d="M40.492 6.29953C40.492 2.4716 40.1674 2.36315 38.4703 2.11028L37.8566 2.00234C37.6039 1.74958 37.6396 1.13551 37.9291 0.991208C39.3726 1.06341 40.9975 1.09977 42.5853 1.09977C44.2099 1.09977 45.8344 1.06341 47.4231 0.991208C47.7121 1.13551 47.748 1.74958 47.4953 2.00234L46.7005 2.11028C45.005 2.36315 44.6797 2.4716 44.6797 6.29953V14.5702C44.6797 19.5535 46.1956 23.7431 51.2137 23.7431C55.9423 23.7431 57.8927 20.1666 57.8927 14.6775V10.1641C57.8927 7.45537 57.8553 4.0966 57.2057 3.04922C56.8808 2.50786 56.3034 2.2551 55.4006 2.11028L54.679 2.00234C54.3536 1.74958 54.3901 1.09977 54.7511 0.991208C55.9786 1.06341 57.3508 1.09977 58.758 1.09977C60.2744 1.09977 61.249 1.06341 62.5851 0.991208C62.8735 1.17197 62.9458 1.74958 62.657 2.00234L61.8626 2.18259C61.1773 2.3273 60.5266 2.4716 60.2744 3.04922C59.7687 4.13306 59.7687 7.31056 59.7687 10.1641V14.4622C59.7687 17.7488 59.2644 20.7816 57.3863 22.8031C55.5091 24.8268 52.8024 25.5125 50.311 25.5125C46.9174 25.5125 44.5344 24.791 42.874 23.2016C41.2502 21.6483 40.492 19.12 40.492 15.4728V6.29953Z" fill="currentColor"/>
<path d="M86.4224 7.16626C86.1699 7.45537 85.5203 7.49153 85.2678 7.23887C84.6539 4.96333 83.0294 1.9666 78.2637 1.9666C73.6793 1.9666 69.0578 5.21619 69.0578 12.6202C69.0578 20.3117 73.8597 24.0684 78.5168 24.0684C83.0663 24.0684 85.0514 21.0342 86.0614 18.6867C86.3869 18.3623 86.9637 18.5066 87.1446 18.8314C86.892 21.2507 85.9183 23.6346 85.412 24.3212C84.98 24.3934 84.5452 24.5376 84.1483 24.6455C83.3547 24.8978 80.8628 25.5124 78.5167 25.5124C74.9428 25.5124 71.8748 24.7909 69.2747 23.092C66.3502 21.1783 64.1477 17.8924 64.1477 13.162C64.1477 8.93546 66.0258 5.64951 68.6978 3.59088C71.3686 1.56831 75.0151 0.521435 78.662 0.521435C80.7182 0.521435 83.2093 0.882649 84.9066 1.31596C85.3392 1.42462 85.5929 1.45985 85.9183 1.53247C85.9897 2.36304 86.0614 4.49418 86.4224 7.16626Z" fill="currentColor"/>
<path d="M97.5283 16.0868C96.5911 16.0868 96.628 16.0868 96.3018 17.0611L94.8216 21.3959C94.0993 23.5265 94.2447 23.6346 95.5796 23.8152L96.6281 23.9949C96.8807 24.2486 96.8439 24.898 96.5545 25.0432C95.3995 24.9717 94.2086 24.9717 92.7284 24.9346C91.5367 24.9346 90.4178 24.9715 89.1555 25.0432C88.9027 24.8626 88.8646 24.3213 89.1174 23.9949L90.2009 23.8152C91.2481 23.6701 91.6462 23.3456 92.1876 22.1538C92.621 21.2153 93.1983 19.6983 93.9562 17.7487L98.901 4.89123C99.3708 3.73539 99.696 2.86815 99.5876 2.255C100.851 2.00234 102.043 0.521537 102.114 0.521537C102.403 0.521537 102.583 0.629891 102.728 0.810653C103.307 2.43514 103.774 4.13296 104.352 5.75755L109.55 20.8893C110.382 23.3095 110.562 23.5618 112.402 23.8868L112.944 23.9949C113.233 24.2486 113.233 24.8626 112.98 25.0432C111.5 24.9717 110.164 24.9346 108.287 24.9346C106.735 24.9346 105.146 25.0073 103.883 25.0432C103.594 24.8626 103.558 24.2129 103.774 23.9949L104.568 23.8868C105.868 23.7432 105.977 23.5265 105.507 21.9732L103.811 17.0611C103.45 16.0868 103.342 16.0868 102.331 16.0868H97.5283ZM101.862 14.4622C102.872 14.4622 103.017 14.3887 102.728 13.5225L101.211 9.18842C100.598 7.27482 100.381 6.58864 100.201 6.33589H100.129C99.9847 6.58864 99.6959 7.49122 99.0452 9.18842L97.5283 13.4139C97.1324 14.4622 97.2406 14.4622 98.1075 14.4622H101.862Z" fill="currentColor"/>
<path d="M10 29.6823C10.2551 29.6397 10.5892 29.6032 11.0145 29.6032C11.537 29.6032 11.9196 29.7249 12.1626 29.9435C12.3875 30.138 12.5211 30.4357 12.5211 30.8005C12.5211 31.1711 12.4118 31.4629 12.2052 31.6756C11.9258 31.9734 11.4702 32.1254 10.9538 32.1254C10.7959 32.1254 10.65 32.1193 10.5285 32.089V33.7299H10V29.6823ZM10.5285 31.6575C10.6439 31.6879 10.7897 31.7 10.9659 31.7C11.6038 31.7 11.9926 31.3899 11.9926 30.8248C11.9926 30.2839 11.6099 30.0226 11.0266 30.0226C10.7959 30.0226 10.6196 30.0409 10.5285 30.0651V31.6575Z" fill="currentColor"/>
<path d="M15.7231 32.2348C15.7231 33.3226 14.9698 33.7967 14.259 33.7967C13.4632 33.7967 12.8496 33.2132 12.8496 32.2834C12.8496 31.2989 13.4936 30.7215 14.3076 30.7215C15.152 30.7215 15.7231 31.3354 15.7231 32.2348ZM13.3902 32.2652C13.3902 32.9092 13.7607 33.3955 14.2832 33.3955C14.7935 33.3955 15.1763 32.9154 15.1763 32.253C15.1763 31.7546 14.9272 31.1226 14.2954 31.1226C13.6637 31.1226 13.3902 31.706 13.3902 32.2652Z" fill="currentColor"/>
<path d="M16.3978 31.5844C16.3978 31.2806 16.3917 31.0314 16.3734 30.7884H16.8473L16.8776 31.2745H16.8898C17.0356 30.9949 17.3758 30.7214 17.8619 30.7214C18.2688 30.7214 18.9006 30.9645 18.9006 31.9733V33.7297H18.366V32.0341C18.366 31.5601 18.1899 31.165 17.6856 31.165C17.3333 31.165 17.0599 31.4143 16.9688 31.712C16.9445 31.7788 16.9323 31.87 16.9323 31.9612V33.7297H16.3978V31.5844Z" fill="currentColor"/>
<path d="M20.3894 29.9436V30.7885H21.1548V31.1955H20.3894V32.7818C20.3894 33.1465 20.4926 33.3531 20.7903 33.3531C20.93 33.3531 21.0333 33.3348 21.1001 33.3168L21.1244 33.7178C21.0212 33.7603 20.8571 33.7907 20.6505 33.7907C20.4015 33.7907 20.2011 33.7117 20.0735 33.5659C19.9215 33.4079 19.8669 33.1466 19.8669 32.8002V31.1956H19.4113V30.7886H19.8669V30.0836L20.3894 29.9436Z" fill="currentColor"/>
<path d="M22.3518 29.9619C22.3579 30.1442 22.2243 30.29 22.0117 30.29C21.8233 30.29 21.6897 30.1442 21.6897 29.9619C21.6897 29.7734 21.8293 29.6276 22.0238 29.6276C22.2243 29.6276 22.3518 29.7734 22.3518 29.9619ZM21.7564 30.7884H22.291V33.7298H21.7564V30.7884Z" fill="currentColor"/>
<path d="M23.2328 33.7298V31.1955H22.8197V30.7884H23.2328V30.6303C23.2328 29.8524 23.6884 29.348 24.5146 29.348C24.7879 29.348 25.11 29.4331 25.2618 29.5426L25.11 29.9498C24.9824 29.8586 24.7515 29.7796 24.4903 29.7796C23.9253 29.7796 23.7613 30.1747 23.7613 30.6425V30.7885H25.4684V33.7299H24.9399V31.1956H23.7613V33.7299L23.2328 33.7298Z" fill="currentColor"/>
<path d="M28.4516 33.6205C28.3119 33.6934 28.0021 33.7906 27.6072 33.7906C26.7203 33.7906 26.1431 33.189 26.1431 32.2895C26.1431 31.3841 26.7628 30.7277 27.7226 30.7277C28.0386 30.7277 28.318 30.8066 28.4638 30.8796L28.3423 31.2929C28.2147 31.2199 28.0143 31.1531 27.7226 31.1531C27.0483 31.1531 26.6838 31.6515 26.6838 32.2653C26.6838 32.9459 27.1212 33.3652 27.7044 33.3652C28.0082 33.3652 28.2086 33.2863 28.3606 33.2194L28.4516 33.6205Z" fill="currentColor"/>
<path d="M29.673 29.9619C29.6791 30.1442 29.5454 30.29 29.3328 30.29C29.1445 30.29 29.0108 30.1442 29.0108 29.9619C29.0108 29.7734 29.1506 29.6276 29.3449 29.6276C29.5454 29.6276 29.673 29.7734 29.673 29.9619ZM29.0777 30.7884H29.6122V33.7298H29.0777V30.7884Z" fill="currentColor"/>
<path d="M32.1274 33.7298L32.0849 33.3592H32.0666C31.9027 33.5901 31.5867 33.7968 31.1675 33.7968C30.5723 33.7968 30.2685 33.3775 30.2685 32.952C30.2685 32.2409 30.9003 31.852 32.0363 31.858V31.7972C32.0363 31.5541 31.9694 31.1166 31.368 31.1166C31.0946 31.1166 30.8091 31.2017 30.6027 31.3354L30.4811 30.9829C30.7241 30.8248 31.0765 30.7215 31.4471 30.7215C32.3461 30.7215 32.5648 31.3354 32.5648 31.9249V33.0249C32.5648 33.2801 32.577 33.5293 32.6134 33.7298H32.1274ZM32.0485 32.2287C31.4652 32.2166 30.8031 32.3199 30.8031 32.8912C30.8031 33.2376 31.0339 33.4017 31.3073 33.4017C31.69 33.4017 31.933 33.1586 32.0181 32.9094C32.0363 32.8548 32.0485 32.794 32.0485 32.7393V32.2287Z" fill="currentColor"/>
<path d="M35.2626 29.6337V32.0585C35.2626 32.9762 35.6696 33.3651 36.2164 33.3651C36.8239 33.3651 37.2127 32.9641 37.2127 32.0585V29.6337H37.7473V32.0221C37.7473 33.2801 37.0851 33.7967 36.1981 33.7967C35.3598 33.7967 34.7279 33.3166 34.7279 32.0464V29.6337H35.2626Z" fill="currentColor"/>
<path d="M38.6467 31.5844C38.6467 31.2806 38.6406 31.0314 38.6224 30.7884H39.0963L39.1267 31.2745H39.1388C39.2846 30.9949 39.6248 30.7214 40.1108 30.7214C40.5178 30.7214 41.1496 30.9645 41.1496 31.9733V33.7297H40.615V32.0341C40.615 31.5601 40.4389 31.165 39.9346 31.165C39.5823 31.165 39.3089 31.4143 39.2178 31.712C39.1935 31.7788 39.1813 31.87 39.1813 31.9612V33.7297H38.6467V31.5844Z" fill="currentColor"/>
<path d="M42.6141 29.9619C42.6202 30.1442 42.4865 30.29 42.274 30.29C42.0856 30.29 41.9519 30.1442 41.9519 29.9619C41.9519 29.7734 42.0917 29.6276 42.2861 29.6276C42.4865 29.6276 42.6141 29.7734 42.6141 29.9619ZM42.0188 30.7884H42.5533V33.7298H42.0188V30.7884Z" fill="currentColor"/>
<path d="M43.6469 30.7884L44.2241 32.4414C44.3212 32.7088 44.4002 32.952 44.461 33.1951H44.4792C44.5461 32.952 44.6311 32.7088 44.7283 32.4414L45.2993 30.7884H45.8582L44.704 33.7298H44.1937L43.0759 30.7884H43.6469Z" fill="currentColor"/>
<path d="M46.5998 32.3564C46.612 33.0795 47.0737 33.3774 47.6082 33.3774C47.991 33.3774 48.2219 33.3105 48.4223 33.2255L48.5134 33.6083C48.3251 33.6934 48.0031 33.7906 47.5353 33.7906C46.6302 33.7906 46.0895 33.1951 46.0895 32.3078C46.0895 31.4205 46.612 30.7216 47.4685 30.7216C48.4283 30.7216 48.6836 31.5665 48.6836 32.1072C48.6836 32.2166 48.6714 32.3017 48.6654 32.3565L46.5998 32.3564ZM48.1672 31.9735C48.1732 31.6332 48.0274 31.1044 47.426 31.1044C46.8854 31.1044 46.6484 31.6028 46.6058 31.9735H48.1672Z" fill="currentColor"/>
<path d="M49.346 31.706C49.346 31.3596 49.34 31.0619 49.3217 30.7884H49.7895L49.8077 31.3657H49.8321C49.9657 30.9706 50.2877 30.7215 50.6461 30.7215C50.7069 30.7215 50.7494 30.7277 50.7979 30.7398V31.2442C50.7433 31.2321 50.6886 31.2259 50.6157 31.2259C50.239 31.2259 49.9718 31.5115 49.8989 31.9127C49.8867 31.9857 49.8746 32.0707 49.8746 32.1619V33.7299H49.346V31.706Z" fill="currentColor"/>
<path d="M51.2598 33.1829C51.4178 33.2863 51.6973 33.3955 51.9645 33.3955C52.3533 33.3955 52.5356 33.201 52.5356 32.958C52.5356 32.7028 52.3837 32.5629 51.9888 32.4171C51.4603 32.2286 51.2113 31.9369 51.2113 31.5845C51.2113 31.1104 51.594 30.7215 52.2258 30.7215C52.5234 30.7215 52.7847 30.8065 52.9488 30.9038L52.815 31.2928C52.6996 31.2198 52.487 31.1226 52.2137 31.1226C51.8977 31.1226 51.7216 31.3049 51.7216 31.5236C51.7216 31.7667 51.8977 31.8762 52.2804 32.0221C52.7908 32.2166 53.052 32.4718 53.052 32.9094C53.052 33.4259 52.651 33.7906 51.9524 33.7906C51.6304 33.7906 51.3327 33.7116 51.1261 33.5901L51.2598 33.1829Z" fill="currentColor"/>
<path d="M54.3341 29.9619C54.3402 30.1442 54.2066 30.29 53.994 30.29C53.8056 30.29 53.672 30.1442 53.672 29.9619C53.672 29.7734 53.8117 29.6276 54.0061 29.6276C54.2066 29.6276 54.3341 29.7734 54.3341 29.9619ZM53.7388 30.7884H54.2733V33.7298H53.7388V30.7884Z" fill="currentColor"/>
<path d="M57.6998 29.4148V32.9701C57.6998 33.2314 57.7058 33.5292 57.7241 33.7297H57.2441L57.2198 33.2192H57.2077C57.0436 33.5473 56.6852 33.7966 56.2053 33.7966C55.4945 33.7966 54.9477 33.195 54.9477 32.3014C54.9417 31.323 55.5493 30.7213 56.2661 30.7213C56.7156 30.7213 57.0194 30.934 57.153 31.171H57.1652V29.4148H57.6998ZM57.1652 31.9857C57.1652 31.9188 57.159 31.8276 57.1409 31.761C57.0619 31.4205 56.7702 31.141 56.3693 31.141C55.8165 31.141 55.4885 31.6272 55.4885 32.2774C55.4885 32.873 55.78 33.3652 56.3572 33.3652C56.7156 33.3652 57.0436 33.1282 57.1409 32.7271C57.159 32.6542 57.1652 32.5813 57.1652 32.4961V31.9857Z" fill="currentColor"/>
<path d="M60.2153 33.7298L60.1728 33.3592H60.1545C59.9905 33.5901 59.6745 33.7968 59.2553 33.7968C58.6601 33.7968 58.3563 33.3775 58.3563 32.952C58.3563 32.2409 58.9881 31.852 60.1241 31.858V31.7972C60.1241 31.5541 60.0573 31.1166 59.4559 31.1166C59.1825 31.1166 58.8969 31.2017 58.6905 31.3354L58.5689 30.9829C58.8119 30.8248 59.1643 30.7215 59.5349 30.7215C60.4339 30.7215 60.6526 31.3354 60.6526 31.9249V33.0249C60.6526 33.2801 60.6647 33.5293 60.7013 33.7298H60.2153ZM60.1363 32.2287C59.5531 32.2166 58.8909 32.3199 58.8909 32.8912C58.8909 33.2376 59.1218 33.4017 59.3952 33.4017C59.7778 33.4017 60.0208 33.1586 60.1059 32.9094C60.1241 32.8548 60.1363 32.794 60.1363 32.7393V32.2287Z" fill="currentColor"/>
<path d="M64.055 29.4148V32.9701C64.055 33.2314 64.0611 33.5292 64.0793 33.7297H63.5993L63.5751 33.2192H63.5629C63.3988 33.5473 63.0404 33.7966 62.5604 33.7966C61.8498 33.7966 61.3029 33.195 61.3029 32.3014C61.2968 31.323 61.9043 30.7213 62.6211 30.7213C63.0707 30.7213 63.3745 30.934 63.5081 31.171H63.5202V29.4148H64.055ZM63.5204 31.9857C63.5204 31.9188 63.5143 31.8276 63.4961 31.761C63.4171 31.4205 63.1256 31.141 62.7245 31.141C62.1716 31.141 61.8436 31.6272 61.8436 32.2774C61.8436 32.873 62.1353 33.3652 62.7124 33.3652C63.0708 33.3652 63.3989 33.1282 63.4961 32.7271C63.5144 32.6542 63.5204 32.5813 63.5204 32.4961V31.9857Z" fill="currentColor"/>
<path d="M69.1099 33.5961C68.9155 33.6933 68.5267 33.7906 68.0286 33.7906C66.8743 33.7906 66.0056 33.0613 66.0056 31.7182C66.0056 30.4358 66.8743 29.5668 68.144 29.5668C68.6544 29.5668 68.9763 29.6762 69.116 29.7491L68.9885 30.1806C68.788 30.0834 68.5025 30.0105 68.1622 30.0105C67.2023 30.0105 66.5645 30.6243 66.5645 31.7C66.5645 32.7028 67.1415 33.347 68.1379 33.347C68.4599 33.347 68.7879 33.2801 69.0005 33.1768L69.1099 33.5961Z" fill="currentColor"/>
<path d="M71.3399 33.7298L71.2973 33.3592H71.2792C71.1151 33.5901 70.7993 33.7968 70.3801 33.7968C69.7846 33.7968 69.481 33.3775 69.481 32.952C69.481 32.2409 70.1127 31.852 71.2488 31.858V31.7972C71.2488 31.5541 71.1819 31.1166 70.5805 31.1166C70.3072 31.1166 70.0217 31.2017 69.815 31.3354L69.6936 30.9829C69.9365 30.8248 70.2889 30.7215 70.6594 30.7215C71.5586 30.7215 71.7773 31.3354 71.7773 31.9249V33.0249C71.7773 33.2801 71.7893 33.5293 71.8259 33.7298H71.3399ZM71.261 32.2287C70.6777 32.2166 70.0155 32.3199 70.0155 32.8912C70.0155 33.2376 70.2464 33.4017 70.5197 33.4017C70.9026 33.4017 71.1455 33.1586 71.2306 32.9094C71.2488 32.8548 71.261 32.794 71.261 32.7393V32.2287Z" fill="currentColor"/>
<path d="M73.2599 29.9436V30.7885H74.0254V31.1955H73.2599V32.7818C73.2599 33.1465 73.3632 33.3531 73.6608 33.3531C73.8006 33.3531 73.9038 33.3348 73.9708 33.3168L73.995 33.7178C73.8917 33.7603 73.7277 33.7907 73.5212 33.7907C73.2721 33.7907 73.0717 33.7117 72.944 33.5659C72.7922 33.4079 72.7375 33.1466 72.7375 32.8002V31.1956H72.2819V30.7886H72.7375V30.0836L73.2599 29.9436Z" fill="currentColor"/>
<path d="M77.2515 32.2348C77.2515 33.3226 76.4982 33.7967 75.7873 33.7967C74.9916 33.7967 74.378 33.2132 74.378 32.2834C74.378 31.2989 75.0219 30.7215 75.8359 30.7215C76.6804 30.7215 77.2515 31.3354 77.2515 32.2348ZM74.9186 32.2652C74.9186 32.9093 75.2892 33.3955 75.8117 33.3955C76.322 33.3955 76.7047 32.9154 76.7047 32.253C76.7047 31.7546 76.4556 31.1226 75.8238 31.1226C75.192 31.1226 74.9186 31.706 74.9186 32.2652ZM76.6136 29.5182L75.8725 30.3872H75.4896L76.0242 29.5182H76.6136Z" fill="currentColor"/>
<path d="M78.4608 29.4148H77.9262V33.7298H78.4608V29.4148Z" fill="currentColor"/>
<path d="M79.9553 29.9619C79.9614 30.1442 79.8277 30.29 79.6151 30.29C79.4268 30.29 79.2931 30.1442 79.2931 29.9619C79.2931 29.7734 79.4328 29.6276 79.6272 29.6276C79.8277 29.6276 79.9553 29.7734 79.9553 29.9619ZM79.36 30.7884H79.8946V33.7298H79.36V30.7884Z" fill="currentColor"/>
<path d="M82.8775 33.6205C82.7379 33.6934 82.4279 33.7906 82.0331 33.7906C81.146 33.7906 80.569 33.189 80.569 32.2895C80.569 31.3841 81.1885 30.7277 82.1485 30.7277C82.4644 30.7277 82.7438 30.8066 82.8896 30.8796L82.768 31.2929C82.6405 31.2199 82.44 31.1531 82.1485 31.1531C81.4741 31.1531 81.1096 31.6515 81.1096 32.2653C81.1096 32.9459 81.547 33.3652 82.1302 33.3652C82.434 33.3652 82.6344 33.2863 82.7863 33.2194L82.8775 33.6205Z" fill="currentColor"/>
<path d="M85.1316 33.7298L85.089 33.3592H85.0709C84.9067 33.5901 84.5909 33.7968 84.1718 33.7968C83.5763 33.7968 83.2726 33.3775 83.2726 32.952C83.2726 32.2409 83.9043 31.852 85.0405 31.858V31.7972C85.0405 31.5541 84.9736 31.1166 84.3722 31.1166C84.0989 31.1166 83.8134 31.2017 83.6067 31.3354L83.4852 30.9829C83.7282 30.8248 84.0806 30.7215 84.4511 30.7215C85.3503 30.7215 85.5689 31.3354 85.5689 31.9249V33.0249C85.5689 33.2801 85.5809 33.5293 85.6176 33.7298H85.1316ZM85.0527 32.2287C84.4695 32.2166 83.8073 32.3199 83.8073 32.8912C83.8073 33.2376 84.0382 33.4017 84.3115 33.4017C84.6943 33.4017 84.9372 33.1586 85.0223 32.9094C85.0406 32.8548 85.0527 32.794 85.0527 32.7393V32.2287Z" fill="currentColor"/>
<path d="M88.4004 32.4414L87.9751 33.7298H87.4284L88.8196 29.6337H89.4575L90.8547 33.7298H90.2897L89.8523 32.4414H88.4004ZM89.743 32.0282L89.3421 30.8493C89.2509 30.5818 89.1902 30.3387 89.1294 30.1018H89.1173C89.0566 30.3448 88.9897 30.594 88.9108 30.8432L88.5099 32.0283L89.743 32.0282Z" fill="currentColor"/>
<path d="M91.4202 31.706C91.4202 31.3596 91.4141 31.0619 91.396 30.7884H91.8638L91.882 31.3657H91.9063C92.04 30.9706 92.3619 30.7215 92.7203 30.7215C92.7811 30.7215 92.8237 30.7277 92.8722 30.7398V31.2442C92.8176 31.2321 92.763 31.2259 92.69 31.2259C92.3134 31.2259 92.0462 31.5115 91.9732 31.9127C91.961 31.9857 91.9489 32.0707 91.9489 32.1619V33.7299H91.4204V31.706H91.4202Z" fill="currentColor"/>
<path d="M95.8917 30.7884C95.8795 31.001 95.8673 31.2381 95.8673 31.5967V33.3043C95.8673 33.9789 95.7338 34.3923 95.4483 34.6475C95.1627 34.915 94.7495 35 94.379 35C94.0267 35 93.6379 34.915 93.401 34.7569L93.5347 34.3498C93.7291 34.4713 94.0328 34.5807 94.3973 34.5807C94.944 34.5807 95.345 34.295 95.345 33.5536V33.2255H95.3328C95.1687 33.4989 94.8528 33.7177 94.3973 33.7177C93.6683 33.7177 93.1459 33.0978 93.1459 32.2834C93.1459 31.2867 93.7959 30.7215 94.4702 30.7215C94.9805 30.7215 95.2598 30.9889 95.3876 31.2321H95.3997L95.4239 30.7885L95.8917 30.7884ZM95.3388 31.9491C95.3388 31.8579 95.3327 31.779 95.3084 31.706C95.2112 31.3961 94.95 31.1408 94.5612 31.1408C94.0509 31.1408 93.6864 31.5723 93.6864 32.253C93.6864 32.8304 93.9781 33.3105 94.5552 33.3105C94.8832 33.3105 95.1809 33.1039 95.2964 32.7636C95.3268 32.6724 95.3389 32.5691 95.3389 32.478L95.3388 31.9491Z" fill="currentColor"/>
<path d="M97.0523 32.3564C97.0645 33.0795 97.5262 33.3774 98.0608 33.3774C98.4435 33.3774 98.6744 33.3105 98.8749 33.2255L98.966 33.6083C98.7777 33.6934 98.4557 33.7906 97.988 33.7906C97.0828 33.7906 96.5421 33.1951 96.5421 32.3078C96.5421 31.4205 97.0646 30.7216 97.9211 30.7216C98.8811 30.7216 99.1362 31.5665 99.1362 32.1072C99.1362 32.2166 99.1241 32.3017 99.1179 32.3565L97.0523 32.3564ZM98.6197 31.9735C98.6257 31.6332 98.4799 31.1044 97.8784 31.1044C97.3377 31.1044 97.1009 31.6028 97.0583 31.9735H98.6197Z" fill="currentColor"/>
<path d="M99.7986 31.5844C99.7986 31.2806 99.7925 31.0314 99.7743 30.7884H100.248L100.279 31.2745H100.291C100.437 30.9949 100.777 30.7214 101.263 30.7214C101.67 30.7214 102.302 30.9645 102.302 31.9733V33.7297H101.767V32.0341C101.767 31.5601 101.591 31.165 101.086 31.165C100.734 31.165 100.461 31.4143 100.37 31.712C100.345 31.7788 100.333 31.87 100.333 31.9612V33.7297H99.7986V31.5844Z" fill="currentColor"/>
<path d="M103.79 29.9436V30.7885H104.556V31.1955H103.79V32.7818C103.79 33.1465 103.894 33.3531 104.191 33.3531C104.331 33.3531 104.434 33.3348 104.501 33.3168L104.525 33.7178C104.422 33.7603 104.258 33.7907 104.052 33.7907C103.802 33.7907 103.602 33.7117 103.474 33.5659C103.323 33.4079 103.268 33.1466 103.268 32.8002V31.1956H102.812V30.7886H103.268V30.0836L103.79 29.9436Z" fill="currentColor"/>
<path d="M105.753 29.9619C105.759 30.1442 105.625 30.29 105.413 30.29C105.224 30.29 105.091 30.1442 105.091 29.9619C105.091 29.7734 105.23 29.6276 105.425 29.6276C105.625 29.6276 105.753 29.7734 105.753 29.9619ZM105.157 30.7884H105.692V33.7298H105.157V30.7884Z" fill="currentColor"/>
<path d="M106.579 31.5844C106.579 31.2806 106.573 31.0314 106.555 30.7884H107.029L107.059 31.2745H107.071C107.217 30.9949 107.557 30.7214 108.043 30.7214C108.45 30.7214 109.082 30.9645 109.082 31.9733V33.7297H108.547V32.0341C108.547 31.5601 108.371 31.165 107.867 31.165C107.515 31.165 107.241 31.4143 107.15 31.712C107.126 31.7788 107.114 31.87 107.114 31.9612V33.7297H106.579V31.5844Z" fill="currentColor"/>
<path d="M111.579 33.7298L111.537 33.3592H111.518C111.354 33.5901 111.039 33.7968 110.619 33.7968C110.024 33.7968 109.72 33.3775 109.72 32.952C109.72 32.2409 110.352 31.852 111.488 31.858V31.7972C111.488 31.5541 111.421 31.1166 110.82 31.1166C110.546 31.1166 110.261 31.2017 110.054 31.3354L109.933 30.9829C110.176 30.8248 110.528 30.7215 110.899 30.7215C111.798 30.7215 112.016 31.3354 112.016 31.9249V33.0249C112.016 33.2801 112.029 33.5293 112.065 33.7298H111.579ZM111.5 32.2287C110.917 32.2166 110.255 32.3199 110.255 32.8912C110.255 33.2376 110.486 33.4017 110.759 33.4017C111.142 33.4017 111.385 33.1586 111.47 32.9094C111.488 32.8548 111.5 32.794 111.5 32.7393V32.2287Z" fill="currentColor"/>
</svg>
