<svg width="124" height="35" viewBox="0 0 124 35" fill="none" xmlns="http://www.w3.org/2000/svg">
<path d="M65.4295 28.5931C65.4295 28.4317 65.5064 28.4086 65.7986 28.4855C66.0753 28.5624 66.0061 28.7469 65.6986 28.7469C65.4834 28.7469 65.4295 28.7161 65.4295 28.5931Z" fill="currentColor"/>
<path d="M66.1214 28.6392C66.1214 28.5393 66.3367 28.4394 66.5673 28.4394C66.6135 28.4394 66.6596 28.5086 66.6596 28.5931C66.6596 28.7161 66.6058 28.7469 66.3905 28.7469C66.2137 28.7469 66.1214 28.7084 66.1214 28.6392Z" fill="currentColor"/>
<path d="M64.507 27.6321C64.507 27.463 64.5454 27.3631 64.6069 27.3631C64.6684 27.3631 64.7453 27.4861 64.7914 27.6321C64.876 27.8858 64.8683 27.9012 64.6915 27.9012C64.5301 27.9012 64.507 27.8628 64.507 27.6321Z" fill="currentColor"/>
<path d="M80.6515 27.2862C80.6515 27.0325 80.6746 26.9787 80.8053 26.9787C80.9206 26.9787 80.959 27.0325 80.959 27.1709C80.959 27.2939 81.0052 27.3631 81.0744 27.3631C81.1359 27.3631 81.1897 27.4169 81.1897 27.4784C81.1897 27.5553 81.1051 27.5937 80.9206 27.5937C80.6592 27.5937 80.6515 27.586 80.6515 27.2862Z" fill="currentColor"/>
<path d="M82.0353 27.4784C82.0353 27.4169 82.0892 27.3631 82.1507 27.3631C82.2122 27.3631 82.266 27.2939 82.266 27.2093C82.266 27.1094 82.3198 27.0555 82.4197 27.0555C82.5427 27.0555 82.5735 27.1094 82.5735 27.3246C82.5735 27.5783 82.5581 27.5937 82.3044 27.5937C82.1199 27.5937 82.0353 27.5553 82.0353 27.4784Z" fill="currentColor"/>
<path d="M46.9786 25.1336V24.8261H47.5937V25.1336C47.5937 25.4565 47.5014 25.5333 47.363 25.3104C47.2862 25.1797 47.2862 25.1797 47.2093 25.3104C47.0709 25.5333 46.9786 25.4565 46.9786 25.1336Z" fill="currentColor"/>
<path d="M81.3434 25.0951C81.3434 24.8414 81.3588 24.8261 81.6125 24.8261C81.8662 24.8261 81.8816 24.8414 81.8816 25.0951C81.8816 25.3796 81.7816 25.4565 81.6894 25.2335C81.6433 25.1028 81.6356 25.1028 81.5433 25.2335C81.3972 25.4257 81.3434 25.395 81.3434 25.0951Z" fill="currentColor"/>
<path d="M18.3029 24.3187C18.3029 24.2495 18.2337 24.1803 18.1491 24.1572C17.8801 24.088 17.9646 23.9035 18.2645 23.9035C18.5182 23.9035 18.5335 23.9189 18.5335 24.1726C18.5335 24.3571 18.4951 24.4417 18.4182 24.4417C18.3567 24.4417 18.3029 24.3879 18.3029 24.3187Z" fill="currentColor"/>
<path d="M68.1203 19.5599C68.1203 19.483 68.0357 19.4446 67.8512 19.4446C67.6667 19.4446 67.5821 19.4061 67.5821 19.3292C67.5821 19.2677 67.5283 19.2139 67.4668 19.2139C67.4053 19.2139 67.3515 19.1601 67.3515 19.0986C67.3515 19.0371 67.3208 18.9833 67.2746 18.9833C67.2362 18.9833 67.1977 18.8603 67.1977 18.7142C67.1977 18.3606 67.3054 18.3759 67.513 18.7526C67.7051 19.0986 68.0204 19.3216 68.4124 19.4061C68.7507 19.4753 68.743 19.6752 68.3894 19.6752C68.2049 19.6752 68.1203 19.6368 68.1203 19.5599Z" fill="currentColor"/>
<path d="M68.7353 19.5676C68.7353 19.4676 68.9506 19.3677 69.1812 19.3677C69.2273 19.3677 69.2735 19.4369 69.2735 19.5214C69.2735 19.6444 69.2197 19.6752 69.0044 19.6752C68.8276 19.6752 68.7353 19.6368 68.7353 19.5676Z" fill="currentColor"/>
<path d="M108.635 18.2145C108.635 17.9608 108.658 17.907 108.789 17.907C108.904 17.907 108.943 17.9608 108.943 18.0992C108.943 18.2222 108.989 18.2914 109.058 18.2914C109.12 18.2914 109.174 18.3452 109.174 18.4067C109.174 18.4836 109.089 18.522 108.904 18.522C108.643 18.522 108.635 18.5143 108.635 18.2145Z" fill="currentColor"/>
<path d="M110.019 18.4067C110.019 18.3452 110.073 18.2914 110.134 18.2914C110.196 18.2914 110.25 18.2222 110.25 18.1376C110.25 18.0377 110.304 17.9839 110.404 17.9839C110.527 17.9839 110.557 18.0377 110.557 18.2529C110.557 18.5066 110.542 18.522 110.288 18.522C110.104 18.522 110.019 18.4836 110.019 18.4067Z" fill="currentColor"/>
<path d="M81.2665 17.5226C81.2665 16.8845 81.2742 16.8307 81.4203 16.8307C81.5664 16.8307 81.5741 16.8845 81.5741 17.5226C81.5741 18.1607 81.5664 18.2145 81.4203 18.2145C81.2742 18.2145 81.2665 18.1607 81.2665 17.5226Z" fill="currentColor"/>
<path d="M70.0423 17.4842C70.0423 17.0383 70.0576 16.9844 70.196 16.9844C70.3344 16.9844 70.3498 17.0383 70.3498 17.4842C70.3498 17.93 70.3344 17.9839 70.196 17.9839C70.0576 17.9839 70.0423 17.93 70.0423 17.4842Z" fill="currentColor"/>
<path d="M109.327 16.0235C109.327 15.7698 109.343 15.7544 109.596 15.7544C109.85 15.7544 109.865 15.7698 109.865 16.0235C109.865 16.3079 109.765 16.3848 109.673 16.1618C109.627 16.0311 109.619 16.0311 109.527 16.1618C109.381 16.354 109.327 16.3233 109.327 16.0235Z" fill="currentColor"/>
<path d="M69.0659 15.6621C68.7199 15.5468 68.7353 15.37 69.0813 15.37C69.3196 15.37 69.3503 15.3931 69.3503 15.5622C69.3503 15.6698 69.3427 15.7544 69.335 15.7467C69.3196 15.739 69.1966 15.7006 69.0659 15.6621Z" fill="currentColor"/>
<path d="M90.4151 10.419C90.4151 10.2883 90.6534 10.2191 91.0916 10.2191C91.3607 10.2191 91.4145 10.2422 91.4145 10.3729C91.4145 10.5113 91.3607 10.5266 90.9148 10.5266C90.5381 10.5266 90.4151 10.5036 90.4151 10.419Z" fill="currentColor"/>
<path d="M105.045 10.4728L104.791 10.4421V6.37518H105.06C105.245 6.37518 105.33 6.41362 105.33 6.4905C105.33 6.552 105.276 6.60582 105.214 6.60582C105.114 6.60582 105.099 6.85952 105.099 8.4509V10.296L105.676 10.2422C106.229 10.1961 106.252 10.2037 106.252 10.3652C106.252 10.5113 106.214 10.5266 105.775 10.5113C105.506 10.5113 105.176 10.4882 105.045 10.4728Z" fill="currentColor"/>
<path d="M98.9486 9.33501C98.9486 9.27351 99.0025 9.21969 99.064 9.21969C99.1255 9.21969 99.1793 9.1505 99.1793 9.06593C99.1793 8.96599 99.2331 8.91218 99.333 8.91218C99.456 8.91218 99.4868 8.96599 99.4868 9.18125C99.4868 9.43495 99.4714 9.45033 99.2177 9.45033C99.0332 9.45033 98.9486 9.41189 98.9486 9.33501Z" fill="currentColor"/>
<path d="M107.021 8.45091C107.021 7.88969 107.036 7.83588 107.175 7.83588C107.313 7.83588 107.328 7.88969 107.328 8.45091C107.328 9.01212 107.313 9.06593 107.175 9.06593C107.036 9.06593 107.021 9.01212 107.021 8.45091Z" fill="currentColor"/>
<path d="M74.0707 7.43611C74.1399 7.34385 74.1937 7.17472 74.1937 7.06709C74.1937 6.95946 74.1399 6.79033 74.0707 6.69807C73.9554 6.53663 73.9631 6.52894 74.186 6.52894H74.4243V7.60524H74.186C73.9631 7.60524 73.9554 7.59755 74.0707 7.43611Z" fill="currentColor"/>
<path d="M106.729 7.02865L106.56 6.75957H106.79C107.006 6.75957 107.021 6.78264 107.021 7.02865C107.021 7.36692 106.952 7.36692 106.729 7.02865Z" fill="currentColor"/>
<path d="M72.118 6.41362V6.14454H72.8868C73.6017 6.14454 73.6556 6.15223 73.6556 6.2983C73.6556 6.43668 73.6017 6.45206 73.0021 6.45206C72.4716 6.45206 72.3486 6.47512 72.3486 6.56738C72.3486 6.62888 72.2948 6.68269 72.2333 6.68269C72.1564 6.68269 72.118 6.59813 72.118 6.41362Z" fill="currentColor"/>
<path d="M36.3694 23.2116H38.2837L39.5752 25.1105L40.8668 27.0171L40.9129 25.1336C40.936 24.0957 40.959 23.2424 40.9667 23.2347C40.9744 23.2193 41.3973 23.2116 41.9047 23.2116H42.8272V29.9769H40.9898L40.6208 29.4465C40.4132 29.1543 39.8597 28.3394 39.3753 27.6398C38.891 26.9402 38.4759 26.3636 38.4451 26.3636C38.3375 26.3636 38.276 27.809 38.3298 28.9006L38.3913 29.9769H36.3694V23.2116Z" fill="currentColor"/>
<path d="M44.2264 29.9231C43.7651 29.8924 43.7421 29.8847 43.7959 29.7232C43.8958 29.3927 46.1945 23.2808 46.2176 23.2654C46.2329 23.2577 46.748 23.2654 47.3554 23.2885L48.4547 23.3269L49.6771 26.5943C50.3459 28.3855 50.8841 29.8693 50.8687 29.877C50.861 29.8847 50.4074 29.9077 49.8616 29.9154L48.8776 29.9385L48.693 29.385L48.5008 28.8238H47.4553C46.8787 28.8238 46.3252 28.8007 46.2329 28.7776C46.0869 28.7392 46.0484 28.7853 45.887 29.3388L45.7025 29.9385L45.2104 29.9462C44.9337 29.9462 44.4955 29.9385 44.2264 29.9231ZM47.9781 27.3092C47.9781 27.1862 47.3246 25.0567 47.2862 25.0567C47.2477 25.0567 46.7403 26.6788 46.625 27.1555L46.5789 27.3631H47.2785C47.6629 27.3631 47.9781 27.34 47.9781 27.3092Z" fill="currentColor"/>
<path d="M53.7209 29.9001C52.3909 29.5695 51.5145 28.2395 51.5145 26.5558C51.5145 24.334 52.9291 23.004 55.1278 23.1578C56.0196 23.227 56.5193 23.3884 56.9883 23.7728C57.4572 24.1572 57.9492 24.9645 57.7955 25.1028C57.7417 25.149 57.3726 25.2643 56.9729 25.3565C56.2963 25.5103 56.2348 25.518 56.1657 25.395C55.7121 24.6339 55.0048 24.4032 54.2821 24.7723C53.7517 25.0336 53.5825 25.4103 53.5364 26.4251C53.4903 27.3861 53.5748 27.7936 53.8977 28.1626C54.2744 28.5931 55.0202 28.6854 55.6121 28.3856C55.7659 28.3087 55.9043 28.1165 56.0657 27.7782C56.1964 27.5014 56.3425 27.2939 56.3886 27.3092C56.4347 27.3246 56.7884 27.4399 57.1651 27.5553C57.5495 27.6706 57.8877 27.7936 57.9262 27.8243C58.0261 27.9243 57.5725 28.8314 57.242 29.1928C57.0882 29.3696 56.7653 29.6079 56.527 29.7232C56.1195 29.9231 56.0119 29.9385 55.0509 29.9539C54.482 29.9616 53.8824 29.9385 53.7209 29.9001Z" fill="currentColor"/>
<path d="M59.2024 23.2116H61.2781V29.9769H59.2024V23.2116Z" fill="currentColor"/>
<path d="M64.8683 29.9001C64.407 29.7847 63.8305 29.4542 63.4999 29.1236C62.8772 28.5009 62.5235 27.3323 62.6081 26.2176C62.7311 24.7031 63.4691 23.7267 64.8145 23.3039C65.4142 23.1194 66.7826 23.127 67.3515 23.3192C68.2125 23.6114 68.9198 24.2495 69.2427 25.0259C69.5656 25.7947 69.5118 27.5091 69.1351 28.3087C68.8276 28.9698 68.5277 29.2927 67.8743 29.6387L67.3131 29.9385L66.2368 29.9539C65.6448 29.9616 65.0298 29.9385 64.8683 29.9001ZM66.6058 28.4086C66.9287 28.2779 67.2439 27.9012 67.3515 27.5322C67.4514 27.1632 67.4514 26.0254 67.3515 25.6564C67.1055 24.7953 66.0984 24.4032 65.3142 24.8645C64.8453 25.1336 64.7069 25.4642 64.6761 26.4098C64.6454 27.2939 64.7299 27.7167 65.0221 28.0627C65.3911 28.4932 66.0599 28.6392 66.6058 28.4086Z" fill="currentColor"/>
<path d="M70.7342 23.1962L70.911 23.2424C71.0032 23.2654 71.4338 23.2885 71.8643 23.2885H72.6408L73.8631 25.0721C74.532 26.0484 75.1239 26.8633 75.1778 26.8864C75.2469 26.9095 75.27 26.4943 75.27 25.0644V23.2116H77.192V30L76.9075 29.9462C76.7461 29.9231 76.3079 29.9001 75.9235 29.9001H75.2316L74.0015 28.0857C73.325 27.0863 72.7484 26.256 72.7176 26.2329C72.6792 26.2176 72.6561 26.971 72.6561 27.9166C72.6561 28.8622 72.6331 29.7079 72.61 29.8078C72.5639 29.9692 72.5331 29.9769 71.649 29.9769H70.7342V23.1962Z" fill="currentColor"/>
<path d="M83.1808 29.9692C83.1808 29.9539 83.1039 29.6771 83.004 29.3619C82.881 28.9237 82.8041 28.7853 82.7042 28.793C82.635 28.793 82.0738 28.8007 81.4664 28.8084L80.3594 28.8238L80.1979 29.3619L80.0288 29.9001H79.0294C78.4759 29.9001 78.0376 29.8693 78.053 29.8309C78.0684 29.7924 78.6296 28.2856 79.3061 26.4866L80.5362 23.2039L82.7426 23.2501L83.1578 24.3648C84.2725 27.3246 85.195 29.8386 85.172 29.8616C85.1335 29.9001 83.1885 30 83.1808 29.9692ZM82.3044 27.2708C82.289 27.217 82.166 26.8095 82.0353 26.3636C81.6356 25.0183 81.6356 25.026 81.5741 25.1413C81.5433 25.2028 81.3819 25.6794 81.2281 26.2022C81.0744 26.725 80.9283 27.2016 80.9052 27.2554C80.8745 27.34 81.0128 27.3631 81.6048 27.3631C82.1583 27.3631 82.3275 27.34 82.3044 27.2708Z" fill="currentColor"/>
<path d="M86.033 23.2116H88.1087V28.3625H91.3377V29.9769H86.033V23.2116Z" fill="currentColor"/>
<path d="M10.9072 29.8462L10.0769 29.8155V29.4849C10.0769 29.0083 10.346 27.5014 10.5458 26.8634C11.207 24.7338 12.783 22.6658 14.7819 21.305C15.5353 20.7899 16.9883 20.1518 17.98 19.9058C18.2183 19.8443 18.3029 19.7828 18.3029 19.6752C18.3029 19.5214 18.226 19.5214 14.1514 19.5214H10V15.4469H14.1514C18.0646 15.4469 18.3029 15.4392 18.3029 15.3085C18.3029 15.2085 18.1568 15.1317 17.6725 14.9933C13.4672 13.794 10.4075 10.0961 10.0923 5.83703L10.0308 5.06824H14.1514V5.51414C14.1514 6.07535 14.3898 7.02865 14.6896 7.67443C15.2278 8.81223 16.281 9.92698 17.3957 10.5497C17.7647 10.7496 18.1184 10.911 18.1799 10.911C18.2875 10.911 18.3029 10.6035 18.3029 7.98963V5.06824H22.4543V7.98963C22.4543 10.7188 22.462 10.911 22.5927 10.911C22.8311 10.911 23.9074 10.2652 24.4071 9.83472C25.6602 8.72767 26.3828 7.46686 26.6058 5.95235C26.6442 5.66021 26.6981 5.33732 26.7211 5.24506L26.7596 5.06824H30.7572L30.7111 5.62946C30.5881 7.13628 30.2652 8.36634 29.6733 9.54258C28.374 12.1257 26.1907 13.9862 23.3923 14.9087C22.7926 15.1009 22.4851 15.2393 22.4697 15.3239C22.4467 15.4315 22.8311 15.4469 26.5981 15.4469H30.7572V19.5214H26.5981C22.7849 19.5214 22.4467 19.5291 22.4697 19.6444C22.4851 19.7367 22.7772 19.8674 23.3846 20.0596C26.9594 21.2205 29.5349 23.9343 30.442 27.4938C30.5881 28.0473 30.7496 29.2389 30.7572 29.7309V29.9001H28.7661C26.575 29.9001 26.6827 29.9231 26.6827 29.4157C26.6827 29.0236 26.3982 27.9473 26.1522 27.4092C25.7524 26.5251 25.0375 25.5949 24.3456 25.0644C23.8228 24.6646 22.7696 24.0573 22.5927 24.0573C22.462 24.0573 22.4543 24.2341 22.4543 26.9787V29.9001H18.2798L18.3337 27.7475C18.3644 26.5635 18.3644 25.272 18.3337 24.8645C18.2875 24.1726 18.2721 24.1342 18.1107 24.1342C17.8647 24.1342 16.9883 24.6416 16.4117 25.1182C15.5814 25.8024 14.9125 26.7634 14.5051 27.8397C14.336 28.2856 14.2745 28.5547 14.1053 29.654L14.0669 29.9001L12.8983 29.8847C12.2525 29.877 11.3608 29.8539 10.9072 29.8462Z" fill="currentColor"/>
<path d="M38.0607 15.7544H35.9081V14.1399H42.289V15.7544H40.1364V20.9053H38.0607V15.7544Z" fill="currentColor"/>
<path d="M43.2885 14.1399H48.8237V14.7857C48.8237 15.3854 48.816 15.4315 48.6546 15.4776C48.5547 15.5007 47.7628 15.5237 46.8864 15.5237H45.2873V16.6769H46.7711C47.5783 16.6769 48.324 16.7 48.424 16.7231C48.5777 16.7692 48.5931 16.8153 48.5931 17.3304C48.5931 17.8455 48.5777 17.8916 48.424 17.9377C48.324 17.9608 47.5783 17.9839 46.7711 17.9839H45.2873V18.5528C45.2873 18.868 45.2643 19.1755 45.2412 19.2447C45.1951 19.3523 45.3949 19.3677 47.0863 19.3677H48.9775V20.9053H43.2885V14.1399Z" fill="currentColor"/>
<path d="M51.9219 20.7515C51.084 20.4747 50.3459 19.6368 50.0846 18.645C50.023 18.4298 49.9769 17.907 49.9769 17.4842C49.9769 16.6154 50.0922 16.108 50.4074 15.5237C51.0302 14.3783 52.4985 13.8401 54.1668 14.1476C54.7818 14.2629 55.2585 14.5166 55.6506 14.9395C55.9888 15.3085 56.3425 15.9466 56.2579 16.0311C56.1733 16.1234 54.6281 16.454 54.6127 16.3925C54.3667 15.6698 53.4595 15.3239 52.6984 15.6698C52.437 15.7851 52.3371 15.9004 52.1603 16.2618C51.9527 16.6846 51.9373 16.7769 51.945 17.561C51.9604 18.8449 52.2295 19.3292 52.9982 19.4446C53.5672 19.5214 53.9054 19.4215 54.2206 19.0679C54.3744 18.891 54.5435 18.6296 54.5896 18.4836C54.6819 18.1991 54.6511 18.1991 55.7659 18.522C56.4578 18.7296 56.4655 18.745 56.1272 19.4215C55.8581 19.9596 55.3507 20.467 54.8357 20.6977C54.3052 20.9437 52.6062 20.9744 51.9219 20.7515Z" fill="currentColor"/>
<path d="M57.511 14.1399H59.4099L60.6246 15.9312C61.2935 16.9076 61.8854 17.7686 61.9392 17.8301C62.0315 17.9224 62.0469 17.6763 62.0469 16.2157C62.0469 15.2624 62.0699 14.409 62.093 14.3167C62.1391 14.1476 62.1699 14.1399 63.054 14.1399H63.9688V20.9206L63.7997 20.8745C63.6998 20.8514 63.2692 20.8284 62.8387 20.8284H62.0622L60.8399 19.0448C60.171 18.0684 59.5791 17.2535 59.5253 17.2305C59.4561 17.2074 59.433 17.6225 59.433 19.0525V20.9053H57.511V14.1399Z" fill="currentColor"/>
<path d="M67.2977 20.7669C66.5058 20.4824 65.9831 19.9981 65.5372 19.137C65.3219 18.7219 65.3142 18.6835 65.3142 17.5226C65.3142 16.3463 65.3142 16.3233 65.5602 15.8159C66.1368 14.5858 67.3438 13.9785 68.9506 14.0861C70.9187 14.2168 72.0027 15.2931 72.1026 17.1997C72.1872 18.8833 71.6106 20.0211 70.3805 20.6285C69.95 20.8437 69.8654 20.8591 68.8122 20.8822C67.8743 20.9053 67.636 20.8899 67.2977 20.7669ZM69.2735 19.3216C69.8424 19.0909 70.0653 18.5528 70.0653 17.438C70.0653 16.8307 70.0346 16.6308 69.8962 16.3387C69.6655 15.862 69.2197 15.6006 68.6661 15.6006C67.7359 15.6006 67.2746 16.231 67.2746 17.5149C67.2746 18.522 67.5129 19.0448 68.0742 19.2985C68.4662 19.4753 68.866 19.483 69.2735 19.3216Z" fill="currentColor"/>
<path d="M73.348 14.1399H75.4238V19.2908H78.6527V19.8597C78.6527 20.1672 78.6296 20.5362 78.6065 20.6669L78.5604 20.9053H73.348V14.1399Z" fill="currentColor"/>
<path d="M81.7586 20.8361C80.7284 20.5901 79.8904 19.7213 79.606 18.6066C79.4291 17.907 79.483 16.6462 79.7213 16.0388C80.1979 14.8241 81.1743 14.163 82.6119 14.0861C84.2879 13.9939 85.4795 14.5935 86.0561 15.8159C86.3021 16.3233 86.3021 16.3463 86.3021 17.4842C86.2944 18.4989 86.279 18.6911 86.1253 19.0679C85.8024 19.8751 85.0259 20.5824 84.2187 20.7899C83.7497 20.9129 82.2045 20.936 81.7586 20.8361ZM83.7113 19.237C84.2187 18.8603 84.4032 18.2145 84.3263 17.069C84.2571 16.1388 83.8343 15.6698 82.9963 15.616C82.412 15.5776 82.1199 15.7083 81.8354 16.1388C81.428 16.7538 81.4126 18.2299 81.8124 18.8757C82.1507 19.4215 83.1885 19.6214 83.7113 19.237Z" fill="currentColor"/>
<path d="M89.6079 20.7976C88.0857 20.3056 87.3477 19.1217 87.4322 17.3304C87.5091 15.7467 88.1779 14.7396 89.4695 14.2783C90.3305 13.9708 92.1833 14.0169 92.8675 14.3629C93.4211 14.6473 94.113 15.5084 94.0053 15.7851C93.9746 15.8697 92.6677 16.1465 92.314 16.1388C92.2371 16.1388 92.0834 16.0311 91.9681 15.9004C91.7144 15.5929 91.3684 15.4469 90.9148 15.4469C90.4535 15.4469 90.123 15.5929 89.8231 15.9312C89.5079 16.2925 89.4157 16.6308 89.4157 17.4918C89.4157 18.768 89.7386 19.3369 90.5766 19.5137C91.0301 19.6137 91.3453 19.5753 91.9758 19.3523L92.414 19.1985V18.3683H91.0301V17.0613H94.259L94.2437 18.4605L94.2206 19.8674L93.8362 20.1211C93.6286 20.2595 93.1751 20.4824 92.8368 20.6131C92.2525 20.8514 92.1603 20.8591 91.0686 20.8822C90.2767 20.8976 89.8231 20.8668 89.6079 20.7976Z" fill="currentColor"/>
<path d="M95.6429 14.1399H97.6417V20.9053H95.6429V14.1399Z" fill="currentColor"/>
<path d="M101.094 20.7592C100.494 20.567 99.9942 20.1903 99.6405 19.6521C99.1255 18.8833 98.9256 17.8378 99.0947 16.7538C99.3638 15.0394 100.563 14.063 102.408 14.063C103.431 14.063 104.338 14.4167 104.838 15.001C105.068 15.2854 105.437 15.985 105.376 16.0388C105.353 16.0619 104.976 16.1618 104.545 16.2618C103.823 16.4309 103.746 16.4309 103.677 16.3156C103.315 15.7313 102.869 15.4776 102.293 15.5468C101.816 15.5929 101.447 15.8543 101.24 16.2772C101.086 16.5924 101.063 16.7538 101.063 17.561C101.063 18.3529 101.086 18.5297 101.232 18.7911C101.501 19.2985 101.662 19.3984 102.277 19.4292C103.023 19.4753 103.254 19.3446 103.577 18.6988C103.707 18.4298 103.853 18.2222 103.9 18.2376C103.946 18.2529 104.276 18.3606 104.638 18.4759C105.591 18.768 105.56 18.7219 105.23 19.3984C104.668 20.5209 103.938 20.9053 102.377 20.8976C101.778 20.8976 101.393 20.8591 101.094 20.7592Z" fill="currentColor"/>
<path d="M111.165 20.8976C111.165 20.8822 111.088 20.6054 110.988 20.2902C110.865 19.852 110.788 19.7136 110.688 19.7213C110.619 19.7213 110.058 19.729 109.45 19.7367L108.343 19.7521L108.182 20.2902L108.013 20.8284H107.013C106.46 20.8284 106.021 20.7976 106.037 20.7592C106.052 20.7207 106.613 19.2139 107.29 17.415L108.52 14.1322L110.726 14.1784L111.142 15.2931C112.256 18.2529 113.179 20.7669 113.156 20.7899C113.117 20.8284 111.172 20.9283 111.165 20.8976ZM110.258 18.0838C109.888 16.8153 109.681 16.1618 109.635 16.0696C109.596 16.0004 109.473 16.2925 109.297 16.8768C109.135 17.3765 108.981 17.8916 108.935 18.0146C108.897 18.1376 108.866 18.2529 108.866 18.2606C108.866 18.276 109.189 18.2914 109.589 18.2914H110.319L110.258 18.0838Z" fill="currentColor"/>
<path d="M38.4221 11.7567C37.9608 11.6414 37.4149 11.3262 37.1536 11.0263C36.5539 10.3421 36.477 9.93466 36.4155 7.09015L36.3694 5.06824H38.4451V7.32079C38.4451 9.84241 38.4682 9.98079 38.9833 10.2345C39.3292 10.4113 39.9442 10.4113 40.2902 10.2345C40.8053 9.98079 40.8284 9.84241 40.8284 7.32079V5.06824H42.8964L42.858 7.24391C42.8349 8.43553 42.7811 9.58871 42.7426 9.79628C42.5966 10.5728 41.9815 11.3339 41.2435 11.6567C40.8975 11.8105 38.9141 11.8797 38.4221 11.7567Z" fill="currentColor"/>
<path d="M48.424 11.1263C48.1549 10.7342 47.5706 9.88085 47.1247 9.22738L46.3252 8.04345L46.256 9.90391L46.1945 11.7567H44.3648V8.65079C44.3648 6.94408 44.3417 5.43726 44.3186 5.30657L44.2648 5.06055L46.2406 5.10668L47.5091 6.98252L48.7853 8.85067L48.8314 6.98252C48.8545 5.95235 48.8776 5.09899 48.8852 5.09131C48.8929 5.07593 49.3158 5.06824 49.8232 5.06824H50.7457V11.7567H49.9462C49.508 11.7567 49.0928 11.7798 49.0313 11.8028C48.9544 11.8259 48.7622 11.6183 48.424 11.1263Z" fill="currentColor"/>
<path d="M52.2833 5.06824H54.359V11.8336H52.2833V5.06824Z" fill="currentColor"/>
<path d="M66.0676 11.7798L63.3538 11.7567V8.65079C63.3538 6.94408 63.3307 5.43726 63.3077 5.30657L63.2616 5.06824H68.8891V5.71402C68.8891 6.31368 68.8814 6.3598 68.7199 6.40593C68.62 6.429 67.8281 6.45206 66.9517 6.45206H65.3527V7.60524H66.8364C67.6436 7.60524 68.3894 7.6283 68.4893 7.65137C68.6431 7.69749 68.6584 7.74362 68.6584 8.30484V8.91218H65.3527V10.296H69.0428V11.0648C69.0428 11.749 69.0275 11.8336 68.9121 11.8182C68.8353 11.8028 67.5514 11.7874 66.0676 11.7798Z" fill="currentColor"/>
<path d="M70.196 5.08362L72.3717 5.12206C74.9702 5.1605 75.0778 5.16818 75.516 5.44495C76.008 5.76015 76.231 6.2368 76.231 6.95946C76.2233 7.43611 76.1926 7.5668 75.9927 7.882C75.8082 8.18952 75.6621 8.31252 75.2008 8.54316L74.6396 8.81992L74.8626 8.93524C75.2623 9.1505 75.639 9.63484 76.1849 10.6419C76.4847 11.1878 76.7307 11.6644 76.7307 11.6875C76.7307 11.7182 76.2541 11.7644 75.6775 11.7951C74.7857 11.8413 74.6165 11.8336 74.5473 11.7413C74.5012 11.6721 74.2398 11.1955 73.9631 10.6804C73.6863 10.1653 73.3327 9.58871 73.1712 9.4042C72.9175 9.11206 72.833 9.06593 72.5716 9.06593H72.2717V11.8336H70.196V5.08362ZM73.6632 7.67443C74.0476 7.58218 74.2091 7.3746 74.1783 7.02096C74.1399 6.57506 73.9016 6.44437 73.0482 6.39056L72.3486 6.35212V7.82819L72.8714 7.78975C73.1558 7.76668 73.5095 7.71287 73.6632 7.67443Z" fill="currentColor"/>
<path d="M79.0448 11.7567C78.2837 11.5952 77.6379 10.9802 77.3765 10.1499C77.215 9.64252 77.2535 9.61177 78.0223 9.58871C79.1678 9.55796 79.0524 9.52721 79.2446 9.93466C79.483 10.4267 79.7828 10.6035 80.3978 10.6035C80.7976 10.6035 80.9052 10.5728 81.1051 10.4036C81.2973 10.2499 81.3434 10.1422 81.3434 9.9116C81.3434 9.53489 81.0436 9.27351 80.4363 9.09669C78.6834 8.61235 78.03 8.2664 77.7301 7.68212C77.3611 6.95946 77.6532 5.87547 78.3221 5.45264C78.8833 5.09131 79.5137 4.9683 80.5131 5.00674C81.2896 5.03749 81.4434 5.06824 81.8893 5.27582C82.4197 5.52183 82.7042 5.81397 82.9194 6.32137C83.1424 6.85183 83.1578 6.84414 81.8047 6.95177L81.2204 6.9979L81.1205 6.72113C80.9898 6.3598 80.6438 6.14454 80.1902 6.14454C79.606 6.14454 79.2754 6.40593 79.3753 6.79033C79.4368 7.04402 79.6675 7.15166 80.8053 7.45917C82.5504 7.92044 83.1885 8.45859 83.25 9.52721C83.2885 10.1807 83.0809 10.7035 82.6042 11.1417C82.0123 11.6875 81.6971 11.7798 80.4593 11.8028C79.8674 11.8182 79.2293 11.7951 79.0448 11.7567Z" fill="currentColor"/>
<path d="M84.4954 5.06824H86.5712V11.8336H84.4954V5.06824Z" fill="currentColor"/>
<path d="M88.1856 5.04518L90.1537 5.09899C91.4683 5.13743 92.2371 5.19125 92.4831 5.26813C92.9444 5.40651 93.4211 5.74478 93.7209 6.15992C94.3667 7.05171 94.5204 9.07362 94.0284 10.1961C93.8439 10.6112 93.3057 11.1878 92.929 11.3877C92.4293 11.6414 91.6836 11.7413 89.9 11.7951L88.1856 11.8489V5.04518ZM91.4145 10.2114C91.7144 10.1499 91.8451 10.073 92.0142 9.8501C92.2141 9.58102 92.2218 9.55796 92.2218 8.48166C92.2218 7.49761 92.2064 7.36692 92.0603 7.17472C91.7451 6.75189 91.5222 6.64426 90.8687 6.6135L90.2614 6.59044V10.296H90.6457C90.8533 10.296 91.1993 10.2576 91.4145 10.2114Z" fill="currentColor"/>
<path d="M100.094 11.8259C100.094 11.8105 100.017 11.5337 99.9173 11.2185C99.7943 10.7803 99.7174 10.6419 99.6175 10.6496C99.5483 10.6496 98.9871 10.6573 98.3721 10.665L97.265 10.6804L97.0959 11.2185L96.9344 11.7567H95.9427C95.3968 11.7567 94.951 11.7413 94.951 11.7182C94.951 11.6798 97.0728 6.02923 97.2958 5.48339L97.4188 5.1605L98.4951 5.10668C99.087 5.07593 99.5944 5.06824 99.6175 5.09131C99.6713 5.15281 102.108 11.6952 102.078 11.7259C102.047 11.7644 100.102 11.8566 100.094 11.8259ZM98.8871 8.06651C98.6949 7.42842 98.5104 6.93639 98.4874 6.96715C98.4412 7.02096 97.7955 9.08131 97.7955 9.18125C97.7955 9.20432 98.1184 9.21969 98.5181 9.21969H99.2331L98.8871 8.06651Z" fill="currentColor"/>
<path d="M102.946 5.07593L104.661 5.11437C105.599 5.12975 106.567 5.1605 106.806 5.17587C107.836 5.24506 108.658 6.03691 108.981 7.27466C109.12 7.78975 109.135 8.96599 109.012 9.54258C108.881 10.1653 108.505 10.8111 108.074 11.1493C107.444 11.6491 107.136 11.7029 104.238 11.7951L102.946 11.8336V5.07593ZM106.544 10.0884C106.936 9.79628 107.052 9.42726 107.052 8.49703C107.052 7.04403 106.706 6.60582 105.56 6.60582H105.022V8.39709C105.022 9.38883 105.045 10.2191 105.084 10.2499C105.191 10.3729 106.344 10.2422 106.544 10.0884Z" fill="currentColor"/>
<path d="M56.6115 8.47397C55.9273 6.66732 55.3738 5.18356 55.3892 5.16818C55.4046 5.15281 55.8581 5.13743 56.3963 5.12206L57.3803 5.10668L57.5956 5.76015C57.7109 6.12148 58.0492 7.18241 58.3567 8.12801C58.6565 9.06593 58.9333 9.83472 58.9717 9.83472C59.0409 9.83472 59.5714 8.24333 60.1864 6.18298L60.4862 5.18356L60.9783 5.13743C61.2473 5.10668 61.7086 5.08362 61.9931 5.07593C62.462 5.06824 62.5158 5.08362 62.4774 5.20662C62.4543 5.27582 61.9008 6.77495 61.2473 8.52778L60.0634 11.7182L57.857 11.7644L56.6115 8.47397Z" fill="currentColor"/>
</svg>
