<svg width="650" height="650" viewBox="0 0 650 650" fill="none" xmlns="http://www.w3.org/2000/svg">
<rect width="650" height="650" rx="65" fill="#181616"/>
<path d="M325.691 211.356C328.971 204.056 331.299 200.406 332.674 200.406H333.467C335.054 200.406 338.281 202.099 343.148 205.484C348.014 208.87 350.447 212.044 350.447 215.006C350.447 219.132 336.906 251.082 309.822 310.855C282.739 370.629 267.187 404.166 263.167 411.466C259.253 418.66 256.555 423.474 255.074 425.907C253.593 428.34 251.583 431.038 249.043 434C244.494 439.607 238.834 442.411 232.064 442.411C229.313 442.411 226.88 442.728 224.764 443.363C222.648 444.103 221.378 444.474 220.955 444.474C217.57 444.474 215.877 443.68 215.877 442.093C215.877 441.776 216.3 440.453 217.147 438.126C218.099 435.904 230.212 410.249 253.487 361.161C228.625 360.209 206.779 359.468 187.947 358.939C169.856 381.685 153.458 405.488 138.753 430.35C136.954 433.841 135.262 436.275 133.675 437.65C132.088 439.131 129.919 439.872 127.168 439.872C124.418 439.872 121.456 438.443 118.282 435.587C115.108 432.836 113.521 429.61 113.521 425.907C113.521 415.327 127.168 392.687 154.463 357.987C141.662 357.987 133.516 358.304 130.025 358.939C126.639 359.574 124.471 359.891 123.519 359.891C120.662 359.891 119.234 357.511 119.234 352.75C119.234 347.883 122.037 343.652 127.645 340.055C133.357 336.352 140.975 334.501 150.496 334.501C151.237 334.501 152.559 334.448 154.463 334.342C161.023 334.024 167.741 333.76 174.617 333.548C197.68 306.465 221.801 281.339 246.98 258.17C272.16 235.001 293.953 218.762 312.361 209.452C315.324 207.971 317.651 207.283 319.344 207.389C321.142 207.389 323.258 208.711 325.691 211.356ZM314.583 233.731C275.968 263.036 240.686 296.309 208.736 333.548C227.461 333.972 246.399 334.765 265.547 335.929C284.802 295.41 301.147 261.344 314.583 233.731ZM356.795 347.513C381.762 319.16 403.027 304.984 420.589 304.984C424.926 304.984 428.471 306.306 431.221 308.951C434.078 311.49 435.506 314.823 435.506 318.949C435.506 323.075 432.544 330.004 426.619 339.737C420.801 349.365 415.405 357.511 410.433 364.176C407.788 367.561 404.773 369.254 401.387 369.254C398.108 369.254 395.516 368.037 393.611 365.604C391.813 363.171 390.914 360.314 390.914 357.035C390.914 349.735 394.828 341.483 402.657 332.279L402.339 331.961C398.848 332.279 390.173 339.155 376.314 352.591C362.561 366.027 350.818 378.088 341.085 388.773C331.457 399.352 320.984 412.259 309.664 427.494C306.384 432.043 303.58 434.317 301.253 434.317C299.031 434.317 296.069 433.63 292.366 432.254C288.558 430.773 286.283 429.715 285.543 429.081C284.696 428.446 284.273 427.388 284.273 425.907C284.273 424.426 284.696 422.733 285.543 420.829C286.389 418.819 287.976 416.015 290.303 412.418C292.525 408.821 295.91 403.002 300.46 394.962C305.114 386.922 312.308 374.755 322.042 358.463C331.775 342.171 337.593 332.332 339.498 328.946C343.518 321.964 346.797 316.886 349.336 313.712C354.097 307.682 362.138 304.667 373.458 304.667C375.997 304.667 377.266 306.253 377.266 309.427C377.266 314.4 372.664 323.762 363.46 337.516L356.795 347.513ZM467.879 328.629C478.141 321.541 488.191 316.092 498.03 312.284C507.869 308.475 516.386 306.571 523.58 306.571C530.774 306.571 535.376 308.634 537.386 312.76C541.512 307.999 546.643 305.46 552.779 305.143C554.577 305.037 556.799 304.984 559.444 304.984C562.089 304.984 563.729 305.354 564.363 306.095C564.998 306.73 565.58 307.999 566.109 309.903C566.638 311.808 566.955 312.866 567.061 313.077C567.167 313.289 567.22 313.659 567.22 314.188C567.22 314.611 566.955 315.193 566.426 315.934C565.897 316.568 565.263 317.203 564.522 317.838C563.887 318.473 563.517 318.843 563.411 318.949C540.031 352.486 516.121 390.73 491.683 433.683C516.862 411.36 539.396 395.332 559.285 385.599C560.555 384.964 561.771 384.647 562.935 384.647C564.628 384.647 565.739 385.758 566.268 387.98C566.797 390.095 567.061 393.163 567.061 397.184C567.061 401.204 566.797 403.69 566.268 404.642C565.844 405.594 563.411 407.499 558.968 410.355C554.525 413.211 548.759 416.914 541.67 421.463C534.582 426.013 527.071 431.038 519.136 436.539C500.093 449.763 484.436 463.675 472.164 478.275C456.295 497.424 444.922 512.87 438.045 524.613C435.506 529.162 431.221 531.437 425.191 531.437C413.236 531.437 407.259 525.777 407.259 514.457C407.259 502.925 412.919 491.129 424.239 479.068C432.702 470.076 440.478 462.723 447.566 457.01C454.655 451.297 458.516 448.071 459.151 447.33C466.98 435.587 477.612 418.924 491.048 397.342C479.622 409.297 468.514 418.819 457.723 425.907C447.038 432.995 439.05 436.539 433.76 436.539C417.574 436.539 409.481 429.61 409.481 415.751C409.481 404.748 412.284 393.64 417.891 382.425C423.498 371.211 430.692 361.214 439.473 352.433C448.254 343.546 457.723 335.611 467.879 328.629ZM528.34 324.503C516.068 327.148 504.537 331.538 493.746 337.674C482.955 343.705 474.068 350.211 467.086 357.193C460.103 364.07 454.073 371.158 448.995 378.458C439.473 392.105 434.712 402.685 434.712 410.196C434.712 411.995 435.136 412.894 435.982 412.894C436.934 412.894 438.944 411.942 442.012 410.038C445.186 408.133 449.629 404.907 455.342 400.357C461.055 395.703 467.403 390.201 474.385 383.854C490.572 368.937 508.557 349.153 528.34 324.503Z" fill="white"/>
</svg>
